<svg xmlns="http://www.w3.org/2000/svg" xmlns:xlink="http://www.w3.org/1999/xlink" id="Layer_1" x="0px" y="0px" viewBox="0 0 283.46 141.73" style="enable-background:new 0 0 283.46 141.73;" xml:space="preserve"> <style type="text/css"> .st0{fill:#FFFFFF;} </style> <g> <g> <path class="st0" d="M32.2,25.36H14.74v55.56h19.79c15.9,0,27-11.23,27-27.32C61.54,37.24,49.2,25.36,32.2,25.36z M53.76,53.68 c0,13.53-8.09,23.34-19.23,23.34H22.36V29.26h9.84C44.9,29.26,53.76,39.3,53.76,53.68z"></path> <path class="st0" d="M249.59,53.61c0-16.37-12.34-28.25-29.33-28.25h-17.47v55.56h19.79C238.49,80.92,249.59,69.69,249.59,53.61z M210.41,77.03V29.26h9.84c12.69,0,21.56,10.05,21.56,24.43c0,13.53-8.09,23.34-19.23,23.34H210.41z"></path> <path class="st0" d="M114.76,80.92l-16.5-24.87c8.31-1.86,13.24-7.42,13.24-15.01c0-9.67-7.61-15.68-19.87-15.68H73v55.56h7.62 v-24.2h9.59l16.21,24.2H114.76z M103.73,41.04c0,7.49-4.97,11.78-13.64,11.78h-9.46V29.26h9.46 C98.63,29.26,103.73,33.66,103.73,41.04z"></path> <rect x="122.23" y="56.29" class="st0" width="68.42" height="3.98"></rect> <polygon class="st0" points="19.3,93.51 14.49,93.51 14.49,115.8 29.9,115.8 29.9,113.22 19.3,113.22 "></polygon> <path class="st0" d="M48.68,93.27c-6.46,0-11.32,4.89-11.32,11.38c0,6.49,4.87,11.38,11.32,11.38S60,111.15,60,104.66 C60,98.17,55.13,93.27,48.68,93.27z M48.68,95.76c3.69,0,6.37,3.74,6.37,8.89c0,5.15-2.68,8.89-6.37,8.89 c-3.69,0-6.37-3.74-6.37-8.89C42.31,99.5,44.99,95.76,48.68,95.76z"></path> <path class="st0" d="M110.88,95.76c2.83,0,4.67,1.76,5.05,4.83l0.07,0.55h4.86l-0.11-0.72c-0.66-4.48-4.3-7.15-9.72-7.15 c-6.73,0-11.08,4.44-11.08,11.32c0,5.53,3.08,11.44,11.71,11.44c4.16,0,7.35-1.38,9-3.89l0.1-0.16v-7.43h-9.7v2.61h4.87v4.68 c-0.92,1.07-2.58,1.7-4.51,1.7c-4.81,0-6.52-4.56-6.52-8.83C104.9,100.39,106.47,95.76,110.88,95.76z"></path> <polygon class="st0" points="136.77,105.71 147.23,105.71 147.23,103.13 136.77,103.13 136.77,96.09 148.13,96.09 148.13,93.51 131.97,93.51 131.97,115.8 148.43,115.8 148.43,113.22 136.77,113.22 "></polygon> <polygon class="st0" points="168.97,109.54 161.78,93.51 156.36,93.51 166.8,115.8 169.54,115.8 179.25,93.51 176.11,93.51 "></polygon> <rect x="188.53" y="93.51" class="st0" width="4.8" height="22.29"></rect> <polygon class="st0" points="203.04,96.09 210.55,96.09 210.55,115.8 215.38,115.8 215.38,96.09 222.89,96.09 222.89,93.51 203.04,93.51 "></polygon> <polygon class="st0" points="241.31,102.59 235.55,93.51 229.86,93.51 238,106.49 238,115.8 242.83,115.8 242.83,105.2 250.36,93.51 247.18,93.51 "></polygon> <path class="st0" d="M262.47,35.6h0.41l2.49,3.72h2.92l-2.76-4.11c1.09-0.51,1.72-1.44,1.72-2.62c0-1.81-1.48-2.97-3.77-2.97 h-3.57v9.71h2.56V35.6z M262.47,31.37h0.7c0.98,0,1.47,0.41,1.47,1.23c0,0.82-0.49,1.23-1.47,1.23h-0.7V31.37z"></path> <path class="st0" d="M263.41,25.36c-5.22,0-9.15,3.96-9.15,9.22s3.93,9.22,9.15,9.22c5.22,0,9.15-3.96,9.15-9.22 S268.62,25.36,263.41,25.36z M263.41,27.34c4.14,0,7.14,3.04,7.14,7.24c0,4.19-3,7.24-7.14,7.24c-4.14,0-7.14-3.04-7.14-7.24 C256.27,30.39,259.27,27.34,263.41,27.34z"></path> </g> <g> <polygon class="st0" points="86.68,93.51 86.68,108.45 73.08,93.68 72.93,93.53 70.63,93.53 70.63,115.8 73.24,115.8 73.24,100.83 87.03,115.8 89.32,115.8 89.32,93.51 "></polygon> </g> </g> </svg>