<?xml version="1.0" encoding="UTF-8"?> <svg xmlns="http://www.w3.org/2000/svg" width="274" height="96" viewBox="0 0 274 96" fill="none"><path d="M21.2095 54.6906H8.32546V4.12656H18.7455C32.1828 4.12656 41.5668 14.7586 41.5668 29.9839C41.5668 44.2999 33.0041 54.6906 21.2095 54.6906ZM18.7455 0.00123391H0.258789V58.8159H21.2095C38.0401 58.8159 49.7948 46.9266 49.7948 29.9012C49.7948 12.5759 36.7375 0.00123391 18.7455 0.00123391Z" fill="#0A100D"></path><path d="M207.382 4.12657H217.8C231.238 4.12657 240.621 14.7599 240.621 29.9839C240.621 44.2986 232.06 54.6892 220.267 54.6892H207.382V4.12657ZM248.851 29.9012C248.851 12.5746 235.792 -9.25858e-05 217.8 -9.25858e-05H199.313V58.8173H220.267C237.096 58.8173 248.851 46.9266 248.851 29.9012Z" fill="#0A100D"></path><path d="M80.0109 29.0692H70.0016V4.12657H80.0109C89.0535 4.12657 94.4536 8.78791 94.4536 16.5972C94.4536 24.5239 89.1895 29.0692 80.0109 29.0692ZM106.134 58.8173L88.6682 32.4906C97.4682 30.5239 102.686 24.6412 102.686 16.5972C102.686 6.35991 94.6269 -9.25858e-05 81.6536 -9.25858e-05H61.9336V58.8173H70.0016V33.1959H80.1482L97.3109 58.8173" fill="#0A100D"></path><path d="M114.037 36.9438H186.461V32.736H114.037V36.9438Z" fill="#0A100D"></path><path d="M5.08535 72.1413H0V95.7346H16.312V93.0013H5.08535" fill="#0A100D"></path><path d="M36.182 93.352C32.274 93.352 29.438 89.3933 29.438 83.9373C29.438 78.4826 32.274 74.5239 36.182 74.5239C40.0886 74.5239 42.9247 78.4826 42.9247 83.9373C42.9247 89.3933 40.0886 93.352 36.182 93.352ZM36.182 71.8866C29.3486 71.8866 24.1953 77.0679 24.1953 83.9373C24.1953 90.8079 29.3486 95.9893 36.182 95.9893C43.0153 95.9893 48.1687 90.8079 48.1687 83.9373C48.1687 77.0679 43.0153 71.8866 36.182 71.8866Z" fill="#0A100D"></path><path d="M102.029 74.5239C105.027 74.5239 106.976 76.3853 107.377 79.6319L107.448 80.2173H112.597L112.483 79.452C111.779 74.716 107.932 71.8866 102.189 71.8866C95.0614 71.8866 90.4561 76.5919 90.4561 83.8746C90.4561 89.7306 93.7147 95.9893 102.856 95.9893C107.26 95.9893 110.641 94.5266 112.381 91.8719L112.491 91.7053V83.8439H102.221V86.6079H107.372V91.5559C106.397 92.6853 104.636 93.352 102.601 93.352C97.512 93.352 95.7001 88.5226 95.7001 84.0013C95.7001 79.4199 97.3627 74.5239 102.029 74.5239Z" fill="#0A100D"></path><path d="M129.435 85.0506H140.502V82.3173H129.435V74.8746H141.458V72.1413H124.35V95.7346H141.774V93.0026H129.435" fill="#0A100D"></path><path d="M163.518 89.1093L155.906 72.1413H150.166L161.219 95.7346H164.115L174.397 72.1413H171.069" fill="#0A100D"></path><path d="M184.217 95.7346H189.302V72.1414H184.217V95.7346Z" fill="#0A100D"></path><path d="M199.576 74.8746H207.527V95.7346H212.644V74.8746H220.593V72.1413H199.576" fill="#0A100D"></path><path d="M240.086 81.748L233.993 72.1413H227.969L236.583 85.8786V95.7346H241.701V84.516L249.666 72.1413H246.299" fill="#0A100D"></path><path d="M263.224 8.96932H262.484V6.36798H263.224C264.255 6.36798 264.779 6.80532 264.779 7.66798C264.779 8.53198 264.255 8.96932 263.224 8.96932ZM267.543 7.64266C267.543 5.73199 265.976 4.49731 263.554 4.49731H259.77V14.7747H262.484V10.8387H262.918L265.548 14.7747H268.637L265.718 10.4213C266.876 9.88531 267.543 8.89333 267.543 7.64266Z" fill="#0A100D"></path><path d="M263.477 17.4266C259.097 17.4266 255.917 14.2026 255.917 9.76261C255.917 5.32395 259.097 2.09995 263.477 2.09995C267.859 2.09995 271.039 5.32395 271.039 9.76261C271.039 14.2026 267.859 17.4266 263.477 17.4266ZM263.477 -4.76642e-05C257.956 -4.76642e-05 253.792 4.19728 253.792 9.76261C253.792 15.3293 257.956 19.5266 263.477 19.5266C269 19.5266 273.164 15.3293 273.164 9.76261C273.164 4.19728 269 -4.76642e-05 263.477 -4.76642e-05Z" fill="#0A100D"></path><path d="M76.4052 87.9531L62.0118 72.3238L61.8532 72.1558H59.4238V95.7332H62.1878V79.8891L76.7785 95.7332H79.2025V72.1412H76.4052" fill="#0A100D"></path></svg> 