<?xml version="1.0" encoding="UTF-8"?>
<svg id="Layer_1" data-name="Layer 1" xmlns="http://www.w3.org/2000/svg" viewBox="0 0 400 400">
  <defs>
    <style>
      .cls-1 {
        fill: #b54c70;
      }
    </style>
  </defs>
  <path class="cls-1" d="M200,386.56c-102.87,0-186.56-83.69-186.56-186.56S97.13,13.44,200,13.44s186.56,83.69,186.56,186.56-83.69,186.56-186.56,186.56ZM200,20.81C101.19,20.81,20.81,101.19,20.81,200s80.38,179.19,179.19,179.19,179.19-80.38,179.19-179.19S298.81,20.81,200,20.81Z"/>
  <g>
    <path class="cls-1" d="M326.92,259.52c-.18-.12-.57-.41-1.2-1.08-.92-.97-1.96-2.29-3.06-3.69-3.97-5.04-8.92-11.32-16.03-11.32-3.24,0-6.24,1.3-9.17,3.96-2.16,1.96-3.95,4.35-5.7,6.67-1.3,1.73-2.52,3.36-3.65,4.44-.52.5-.89.75-1.11.88-.21-.17-.55-.45-1.01-.95-.91-.96-1.95-2.28-3.06-3.68-3.97-5.04-8.92-11.32-16.03-11.32-3.24,0-6.24,1.3-9.17,3.96-2.16,1.96-3.95,4.35-5.69,6.66-1.29,1.73-2.52,3.36-3.66,4.46-.52.5-.89.75-1.11.88-.21-.17-.55-.45-1.01-.95-.92-.97-1.96-2.29-3.06-3.68-3.97-5.04-8.92-11.32-16.03-11.32-3.24,0-6.24,1.3-9.17,3.96-2.16,1.96-3.95,4.35-5.7,6.67-1.3,1.73-2.52,3.36-3.65,4.44-.94.9-1.36.99-1.35.99H78.05c-2.38,0-4.31,1.93-4.31,4.31s1.93,4.31,4.31,4.31h129.26c5.23,0,8.62-4.52,11.9-8.89,2.52-3.36,5.38-7.17,7.96-7.17,2.93,0,6.59,4.64,9.26,8.03,3.34,4.24,6.22,7.9,10.37,8.02h.24s.21,0,.21,0c5.12-.12,8.46-4.58,11.7-8.89,2.52-3.36,5.38-7.17,7.96-7.17,2.93,0,6.58,4.64,9.26,8.03,3.34,4.24,6.22,7.9,10.37,8.02h.24s.21,0,.21,0c5.12-.12,8.46-4.58,11.7-8.89,2.52-3.36,5.38-7.17,7.96-7.17,2.93,0,6.59,4.64,9.26,8.03,3.39,4.31,6.32,8.03,10.61,8.03,2.38,0,4.31-1.93,4.31-4.31,0-2.24-1.69-4.08-3.89-4.29Z"/>
    <path class="cls-1" d="M106.1,209.69c17.75,15.74,40.57,24.41,64.26,24.41,1.02,0,2.04-.02,3.14-.05,2.36-.07,4.24-2.05,4.19-4.41l-.16-6.86,12.02,6.58-18.09,11c-2.03,1.23-2.68,3.89-1.44,5.93.79,1.3,2.17,2.07,3.69,2.07.79,0,1.56-.22,2.24-.63l24.47-14.89c1.31-.8,2.11-2.25,2.07-3.78-.04-1.54-.9-2.95-2.24-3.68l-25.13-13.75c-1.35-.74-3-.7-4.31.1-1.31.8-2.11,2.25-2.07,3.78l.23,9.96c-21.06-.33-41.32-8.21-57.13-22.23-16.94-15.02-27.37-35.7-29.37-58.23-.21-2.37-2.3-4.13-4.68-3.91-2.37.21-4.13,2.31-3.91,4.68,2.2,24.74,13.65,47.44,32.24,63.92Z"/>
    <path class="cls-1" d="M135.94,167.76c18.51,16.42,42.56,25.13,67.32,24.36.46-.01.9-.11,1.21-.25,1.82-.6,3.01-2.28,2.96-4.2l-.16-6.86,12.02,6.58-18.09,11c-2.03,1.24-2.68,3.89-1.45,5.93.79,1.3,2.17,2.07,3.69,2.07.79,0,1.56-.22,2.24-.63l24.47-14.89c1.31-.8,2.11-2.25,2.07-3.78-.03-1.53-.89-2.95-2.24-3.68l-25.13-13.75c-1.35-.74-3-.7-4.31.1-1.31.8-2.1,2.25-2.07,3.78l.23,9.98c-21.04-.35-41.26-8.23-57.05-22.22-16.94-15.02-27.37-35.7-29.37-58.23-.21-2.37-2.32-4.14-4.68-3.91-1.15.1-2.19.64-2.93,1.53-.74.88-1.09,2-.99,3.15,2.2,24.74,13.65,47.44,32.24,63.92Z"/>
    <path class="cls-1" d="M82.52,279.2c-2.38,0-4.31,1.93-4.31,4.31v4.88c0,2.38,1.93,4.31,4.31,4.31s4.31-1.93,4.31-4.31v-4.88c0-2.38-1.93-4.31-4.31-4.31Z"/>
    <path class="cls-1" d="M99.58,290.98c-2.38,0-4.31,1.93-4.31,4.31v4.88c0,2.38,1.93,4.31,4.31,4.31s4.31-1.93,4.31-4.31v-4.88c0-2.38-1.93-4.31-4.31-4.31Z"/>
    <path class="cls-1" d="M116.65,279.2c-2.38,0-4.31,1.93-4.31,4.31v4.88c0,2.38,1.93,4.31,4.31,4.31s4.31-1.93,4.31-4.31v-4.88c0-2.38-1.93-4.31-4.31-4.31Z"/>
    <path class="cls-1" d="M133.72,290.98c-2.38,0-4.31,1.93-4.31,4.31v4.88c0,2.38,1.93,4.31,4.31,4.31s4.31-1.93,4.31-4.31v-4.88c0-2.38-1.93-4.31-4.31-4.31Z"/>
    <path class="cls-1" d="M150.79,279.2c-2.38,0-4.31,1.93-4.31,4.31v4.88c0,2.38,1.93,4.31,4.31,4.31s4.31-1.93,4.31-4.31v-4.88c0-2.38-1.93-4.31-4.31-4.31Z"/>
    <path class="cls-1" d="M167.86,290.98c-2.38,0-4.31,1.93-4.31,4.31v4.88c0,2.38,1.93,4.31,4.31,4.31s4.31-1.93,4.31-4.31v-4.88c0-2.38-1.93-4.31-4.31-4.31Z"/>
    <path class="cls-1" d="M184.93,279.2c-2.38,0-4.31,1.93-4.31,4.31v4.88c0,2.38,1.93,4.31,4.31,4.31s4.31-1.93,4.31-4.31v-4.88c0-2.38-1.93-4.31-4.31-4.31Z"/>
    <path class="cls-1" d="M202,290.98c-2.38,0-4.31,1.93-4.31,4.31v4.88c0,2.38,1.93,4.31,4.31,4.31s4.31-1.93,4.31-4.31v-4.88c0-2.38-1.93-4.31-4.31-4.31Z"/>
    <path class="cls-1" d="M219.07,279.2c-2.38,0-4.31,1.93-4.31,4.31v4.88c0,2.38,1.93,4.31,4.31,4.31s4.31-1.93,4.31-4.31v-4.88c0-2.38-1.93-4.31-4.31-4.31Z"/>
    <path class="cls-1" d="M236.14,290.98c-2.38,0-4.31,1.93-4.31,4.31v4.88c0,2.38,1.93,4.31,4.31,4.31s4.31-1.93,4.31-4.31v-4.88c0-2.38-1.93-4.31-4.31-4.31Z"/>
    <path class="cls-1" d="M253.21,279.2c-2.38,0-4.31,1.93-4.31,4.31v4.88c0,2.38,1.93,4.31,4.31,4.31s4.31-1.93,4.31-4.31v-4.88c0-2.38-1.93-4.31-4.31-4.31Z"/>
    <path class="cls-1" d="M270.28,290.98c-2.38,0-4.31,1.93-4.31,4.31v4.88c0,2.38,1.93,4.31,4.31,4.31s4.31-1.93,4.31-4.31v-4.88c0-2.38-1.93-4.31-4.31-4.31Z"/>
    <path class="cls-1" d="M287.35,279.2c-2.38,0-4.31,1.93-4.31,4.31v4.88c0,2.38,1.93,4.31,4.31,4.31s4.31-1.93,4.31-4.31v-4.88c0-2.38-1.93-4.31-4.31-4.31Z"/>
    <path class="cls-1" d="M304.42,290.98c-2.38,0-4.31,1.93-4.31,4.31v4.88c0,2.38,1.93,4.31,4.31,4.31s4.31-1.93,4.31-4.31v-4.88c0-2.38-1.93-4.31-4.31-4.31Z"/>
    <path class="cls-1" d="M321.49,279.2c-2.38,0-4.31,1.93-4.31,4.31v4.88c0,2.38,1.93,4.31,4.31,4.31s4.31-1.93,4.31-4.31v-4.88c0-2.38-1.93-4.31-4.31-4.31Z"/>
  </g>
</svg>