<?xml version="1.0" encoding="utf-8"?>
<!-- Generator: Adobe Illustrator 28.0.0, SVG Export Plug-In . SVG Version: 6.00 Build 0)  -->
<svg version="1.1" id="Layer_1" xmlns="http://www.w3.org/2000/svg" xmlns:xlink="http://www.w3.org/1999/xlink" x="0px" y="0px"
	 viewBox="0 0 150 150" style="enable-background:new 0 0 150 150;" xml:space="preserve">
<style type="text/css">
	.st0{fill:#D2B886;}
</style>
<path class="st0" d="M73.1,112.5c-30.6,0-55.6-24.9-55.6-55.6S42.4,1.4,73.1,1.4s55.6,24.9,55.6,55.6S103.7,112.5,73.1,112.5z
	 M73.1,6.4C45.2,6.4,22.5,29.1,22.5,57s22.7,50.6,50.6,50.6s50.6-22.7,50.6-50.6S100.9,6.4,73.1,6.4z"/>
<path class="st0" d="M73.1,98.7c-23,0-41.7-18.7-41.7-41.7s18.7-41.7,41.7-41.7S114.8,34,114.8,57S96.1,98.7,73.1,98.7z M73.1,20.3
	c-20.2,0-36.7,16.5-36.7,36.7s16.5,36.7,36.7,36.7s36.7-16.5,36.7-36.7S93.3,20.3,73.1,20.3z"/>
<path class="st0" d="M44.5,149.5c-0.1,0-0.2,0-0.3,0c-1-0.1-1.9-0.9-2.1-1.9l-4-17.9l-17.1,6.7c-1,0.4-2.1,0.1-2.8-0.7
	s-0.8-1.9-0.3-2.8l14.9-28c0.7-1.2,2.2-1.7,3.4-1c1.2,0.7,1.7,2.2,1,3.4l-11.7,22.1l13.5-5.3c0.7-0.3,1.4-0.2,2.1,0.1
	c0.6,0.3,1.1,0.9,1.3,1.7l3.2,14.2l12.3-23.1c0.7-1.2,2.2-1.7,3.4-1c1.2,0.7,1.7,2.2,1,3.4l-15.5,29.1
	C46.2,149,45.4,149.5,44.5,149.5L44.5,149.5z"/>
<path class="st0" d="M101.7,149.5c-0.9,0-1.8-0.5-2.2-1.3L84,119c-0.7-1.2-0.2-2.7,1-3.4c1.2-0.7,2.7-0.2,3.4,1l12.3,23.2l3.2-14.2
	c0.2-0.7,0.6-1.3,1.3-1.7s1.4-0.4,2.1-0.1l13.5,5.3L109,107.1c-0.7-1.2-0.2-2.7,1-3.4c1.2-0.7,2.7-0.2,3.4,1l14.9,28
	c0.5,0.9,0.4,2.1-0.3,2.8s-1.8,1.1-2.8,0.7l-17.1-6.7l-4,17.9c-0.2,1-1.1,1.8-2.1,1.9C101.9,149.5,101.8,149.5,101.7,149.5
	L101.7,149.5z"/>
<path class="st0" d="M89.2,82.6c-0.5,0-1-0.2-1.4-0.5L73.1,71.6L58.4,82.1c-0.9,0.6-2.1,0.6-3-0.1c-0.9-0.7-1.2-1.8-0.8-2.9
	l6.3-16.8L46.1,49.6c-0.8-0.7-1.1-1.8-0.7-2.8c0.4-1,1.3-1.6,2.3-1.6h16.7l6.3-16.8c0.4-1,1.3-1.6,2.3-1.6s2,0.6,2.3,1.6l6.3,16.8
	h16.7c1.1,0,2,0.7,2.3,1.6c0.4,1,0.1,2.1-0.7,2.8L85.2,62.3l6.3,16.8c0.4,1,0.1,2.2-0.8,2.9C90.3,82.4,89.7,82.5,89.2,82.6
	L89.2,82.6z M73.1,66c0.5,0,1,0.2,1.4,0.5l9.5,6.8l-4-10.8c-0.4-1-0.1-2.1,0.7-2.8l11-9.4H80c-1,0-2-0.7-2.3-1.6l-4.6-12.2
	l-4.6,12.2c-0.4,1-1.3,1.6-2.3,1.6H54.5l11,9.4c0.8,0.7,1.1,1.8,0.7,2.8l-4,10.8l9.5-6.8C72.1,66.2,72.6,66,73.1,66z"/>
</svg>
