<?xml version="1.0" encoding="UTF-8"?>
<svg id="Layer_1" data-name="Layer 1" xmlns="http://www.w3.org/2000/svg" viewBox="0 0 400 400">
  <defs>
    <style>
      .cls-1 {
        fill: #5a8fae;
      }
    </style>
  </defs>
  <path class="cls-1" d="M200,386.65c-102.92,0-186.65-83.73-186.65-186.66S97.08,13.35,200,13.35s186.66,83.73,186.66,186.65-83.73,186.66-186.66,186.66ZM200,20.71C101.14,20.71,20.71,101.14,20.71,200s80.43,179.29,179.28,179.29,179.29-80.43,179.29-179.29S298.86,20.71,200,20.71Z"/>
  <path class="cls-1" d="M236.31,282.46v-24.08l-33.61-31.03-33.61,31.03v24.08h67.22ZM162.15,282.46v-25.59c0-1.08.5-2.04,1.26-2.67l36.94-34.11c1.34-1.23,3.38-1.21,4.69,0l37.08,34.23c.74.68,1.12,1.62,1.12,2.55v25.59h23.3v-34.49l-49.44-46.42c-1.29-1.41-1.18-3.61.23-4.9l49.22-44.66v-34.46h-127.69v34.44l49.4,44.54c1.31,1.39,1.24,3.59-.15,4.9l-49.25,46.54v34.5h23.29ZM162.15,125.62c0-1.92,1.56-3.47,3.47-3.47s3.47,1.56,3.47,3.47v17.59l26.47,24.95c1.39,1.31,1.46,3.5.15,4.9-1.31,1.39-3.5,1.46-4.9.15l-27.41-25.84c-.77-.64-1.25-1.6-1.25-2.67v-19.08ZM294.01,299.34c0,1.92-1.55,3.47-3.47,3.47s-3.47-1.55-3.47-3.47c0-2.74-1.12-5.22-2.91-7.01-1.81-1.8-4.3-2.92-7.03-2.92H122.87c-2.73,0-5.22,1.12-7.02,2.92l-.14.14c-1.71,1.78-2.78,4.21-2.78,6.88v17.43h177.61c1.92,0,3.47,1.56,3.47,3.47s-1.55,3.47-3.47,3.47H109.46c-1.92,0-3.47-1.55-3.47-3.47v-20.9c0-4.55,1.83-8.71,4.8-11.75l.16-.17c3.06-3.05,7.28-4.96,11.92-4.96h9.04v-35.99c0-1.07.49-2.03,1.25-2.67l47.46-44.85-47.56-42.86c-.76-.68-1.14-1.63-1.14-2.58v-35.98h-9.05c-4.64,0-8.87-1.9-11.92-4.96-3.06-3.05-4.96-7.28-4.96-11.92,0-1.92,1.55-3.47,3.47-3.47s3.47,1.55,3.47,3.47c0,2.73,1.12,5.22,2.92,7.02,1.8,1.8,4.29,2.92,7.02,2.92h154.26c2.73,0,5.22-1.12,7.02-2.92,1.8-1.8,2.92-4.29,2.92-7.02v-17.43H109.46c-1.92,0-3.47-1.55-3.47-3.47s1.55-3.47,3.47-3.47h181.08c1.92,0,3.47,1.55,3.47,3.47v20.9c0,4.64-1.9,8.87-4.96,11.92-3.05,3.06-7.28,4.96-11.92,4.96h-3.64v35.98c0,1.08-.5,2.04-1.27,2.68l-47.44,43.05,47.62,44.69c.73.68,1.09,1.6,1.09,2.52v35.99h3.65c4.64,0,8.87,1.9,11.92,4.96s4.96,7.29,4.96,11.92Z"/>
</svg>