<?xml version="1.0" encoding="UTF-8"?>
<svg id="Layer_1" data-name="Layer 1" xmlns="http://www.w3.org/2000/svg" viewBox="0 0 400 400">
  <defs>
    <style>
      .cls-1 {
        fill: #fff;
      }

      .cls-2 {
        fill: #8b1ac6;
      }
    </style>
  </defs>
  <circle class="cls-2" cx="200" cy="200" r="189.47"/>
  <g>
    <g>
      <path class="cls-1" d="M308.73,208.75H81.11c-1.86,0-3.37-1.51-3.37-3.37s1.51-3.37,3.37-3.37h227.62c1.86,0,3.37,1.51,3.37,3.37s-1.51,3.37-3.37,3.37Z"/>
      <path class="cls-1" d="M308.73,239.07H81.11c-1.86,0-3.37-1.51-3.37-3.37s1.51-3.37,3.37-3.37h227.62c1.86,0,3.37,1.51,3.37,3.37s-1.51,3.37-3.37,3.37Z"/>
      <g>
        <g>
          <path class="cls-1" d="M101.84,285.83c-7.01,0-12.72-5.71-12.72-12.73s5.71-12.72,12.72-12.72,12.72,5.71,12.72,12.72-5.71,12.73-12.72,12.73ZM101.84,267.13c-3.3,0-5.98,2.68-5.98,5.97s2.68,5.98,5.98,5.98,5.98-2.68,5.98-5.98-2.68-5.97-5.98-5.97Z"/>
          <path class="cls-1" d="M163.89,285.83c-7.01,0-12.72-5.71-12.72-12.73s5.71-12.73,12.72-12.73,12.72,5.71,12.72,12.73-5.71,12.73-12.72,12.73ZM163.89,267.12c-3.3,0-5.98,2.68-5.98,5.98s2.68,5.98,5.98,5.98,5.98-2.68,5.98-5.98-2.68-5.98-5.98-5.98Z"/>
          <path class="cls-1" d="M225.94,285.83c-7.01,0-12.72-5.71-12.72-12.73s5.71-12.73,12.72-12.73,12.72,5.71,12.72,12.73-5.71,12.73-12.72,12.73ZM225.94,267.12c-3.3,0-5.98,2.68-5.98,5.98s2.68,5.98,5.98,5.98,5.98-2.68,5.98-5.98-2.68-5.98-5.98-5.98Z"/>
          <path class="cls-1" d="M288,285.83c-7.01,0-12.72-5.71-12.72-12.73s5.71-12.73,12.72-12.73,12.72,5.71,12.72,12.73-5.71,12.73-12.72,12.73ZM288,267.12c-3.3,0-5.98,2.68-5.98,5.98s2.68,5.98,5.98,5.98,5.98-2.68,5.98-5.98-2.68-5.98-5.98-5.98Z"/>
        </g>
        <g>
          <path class="cls-1" d="M132.87,325.18c-7.01,0-12.72-5.71-12.72-12.73s5.71-12.73,12.72-12.73,12.72,5.71,12.72,12.73-5.71,12.73-12.72,12.73ZM132.87,306.47c-3.3,0-5.98,2.68-5.98,5.98s2.68,5.98,5.98,5.98,5.98-2.68,5.98-5.98-2.68-5.98-5.98-5.98Z"/>
          <path class="cls-1" d="M194.92,325.18c-7.01,0-12.72-5.71-12.72-12.73s5.71-12.73,12.72-12.73,12.72,5.71,12.72,12.73-5.71,12.73-12.72,12.73ZM194.92,306.47c-3.3,0-5.98,2.68-5.98,5.98s2.68,5.98,5.98,5.98,5.98-2.68,5.98-5.98-2.68-5.98-5.98-5.98Z"/>
          <path class="cls-1" d="M256.97,325.18c-7.01,0-12.72-5.71-12.72-12.73s5.71-12.73,12.72-12.73,12.72,5.71,12.72,12.73-5.71,12.73-12.72,12.73ZM256.97,306.47c-3.3,0-5.98,2.68-5.98,5.98s2.68,5.98,5.98,5.98,5.98-2.68,5.98-5.98-2.68-5.98-5.98-5.98Z"/>
        </g>
      </g>
    </g>
    <g>
      <g>
        <path class="cls-1" d="M286.46,144.97c-.94,0-1.86-.39-2.51-1.12-9.2-10.26-22.38-15.53-36.12-15.08-1.5.17-2.74-.76-3.28-2.08-.54-1.32-.2-2.84.87-3.8,10.26-9.19,15.76-22.36,15.08-36.12-.07-1.43.76-2.74,2.08-3.28,1.33-.52,2.84-.2,3.79.87,9.2,10.27,22.41,15.71,36.13,15.08,1.43-.32,2.66.71,3.23,1.96.57,1.25.33,2.73-.63,3.73-10.31,10.81-15.87,24.04-15.27,36.31.07,1.43-.76,2.74-2.08,3.28-.42.17-.85.26-1.28.26ZM255.37,122.24c10.32,1.04,20.05,5.11,28.03,11.74,1.19-9.6,5.37-19.31,12.06-27.97-10.46-.95-20.34-5.01-28.43-11.7-1.03,10.27-5.07,19.96-11.65,27.93Z"/>
        <path class="cls-1" d="M191.69,190.69c-1.43,0-2.7-.9-3.18-2.25-5.34-15.08-17.07-26.81-32.16-32.17-1.35-.47-2.24-1.74-2.24-3.17s.9-2.7,2.25-3.17c15.09-5.34,26.81-17.06,32.16-32.16.96-2.7,5.4-2.7,6.35,0,5.35,15.09,17.07,26.81,32.16,32.16,1.35.47,2.25,1.75,2.25,3.17s-.9,2.7-2.24,3.17c-15.09,5.35-26.81,17.08-32.16,32.17-.48,1.35-1.75,2.25-3.18,2.25ZM165.97,153.1c11.08,5.69,20.04,14.65,25.72,25.72,5.68-11.07,14.64-20.03,25.72-25.72-11.08-5.68-20.04-14.64-25.72-25.71-5.68,11.07-14.64,20.03-25.72,25.71Z"/>
        <path class="cls-1" d="M103.43,137.94c-.3,0-.6-.04-.89-.12-1.38-.38-2.37-1.59-2.47-3.01-.76-10.53-6.16-20.02-14.81-26.05-1.17-.81-1.7-2.28-1.32-3.65.38-1.38,1.58-2.37,3-2.47,10.52-.77,20.01-6.16,26.04-14.81.82-1.17,2.28-1.71,3.66-1.33,1.38.38,2.37,1.59,2.47,3.01.76,10.52,6.16,20.01,14.81,26.05,1.17.81,1.7,2.28,1.32,3.66-.38,1.37-1.58,2.36-3.01,2.46-10.51.76-20,6.15-26.04,14.81-.64.93-1.68,1.45-2.77,1.45ZM94.93,108.14c5.14,5.19,8.8,11.61,10.63,18.68,5.19-5.14,11.62-8.79,18.69-10.63-5.14-5.19-8.8-11.62-10.63-18.69-5.19,5.14-11.62,8.79-18.69,10.64Z"/>
      </g>
      <g>
        <path class="cls-1" d="M278.65,169.29h-3.5c-1.86,0-3.37-1.51-3.37-3.37s1.51-3.37,3.37-3.37h3.5c1.86,0,3.37,1.51,3.37,3.37s-1.51,3.37-3.37,3.37Z"/>
        <path class="cls-1" d="M260.86,169.29h-3.5c-1.86,0-3.37-1.51-3.37-3.37s1.51-3.37,3.37-3.37h3.5c1.86,0,3.37,1.51,3.37,3.37s-1.51,3.37-3.37,3.37Z"/>
        <path class="cls-1" d="M268.01,179.93c-1.86,0-3.37-1.51-3.37-3.37v-3.5c0-1.86,1.51-3.37,3.37-3.37s3.37,1.51,3.37,3.37v3.5c0,1.86-1.51,3.37-3.37,3.37Z"/>
        <path class="cls-1" d="M268.01,162.15c-1.86,0-3.37-1.51-3.37-3.37v-3.5c0-1.86,1.51-3.37,3.37-3.37s3.37,1.51,3.37,3.37v3.5c0,1.86-1.51,3.37-3.37,3.37Z"/>
      </g>
      <g>
        <path class="cls-1" d="M191.37,84.93c-.86,0-1.72-.34-2.38-.99-1.32-1.32-1.32-3.45,0-4.77l2.47-2.47c1.32-1.3,3.45-1.3,4.76,0,1.32,1.32,1.32,3.45,0,4.77l-2.47,2.47c-.66.65-1.52.99-2.38.99Z"/>
        <path class="cls-1" d="M178.79,97.5c-.86,0-1.72-.34-2.38-.99-1.32-1.32-1.32-3.45,0-4.77l2.47-2.47c1.32-1.3,3.45-1.3,4.76,0,1.32,1.32,1.32,3.45,0,4.77l-2.47,2.47c-.66.65-1.52.99-2.38.99Z"/>
        <path class="cls-1" d="M193.84,97.5c-.86,0-1.73-.34-2.38-.99l-2.47-2.47c-1.32-1.32-1.31-3.45,0-4.77,1.32-1.3,3.45-1.3,4.76,0l2.47,2.47c1.32,1.32,1.31,3.45,0,4.77-.66.65-1.52.99-2.38.99Z"/>
        <path class="cls-1" d="M181.26,84.93c-.86,0-1.73-.34-2.38-.99l-2.47-2.47c-1.32-1.32-1.31-3.45,0-4.77,1.32-1.3,3.45-1.3,4.76,0l2.47,2.47c1.32,1.32,1.31,3.45,0,4.77-.66.65-1.52.99-2.38.99Z"/>
      </g>
      <g>
        <path class="cls-1" d="M128.57,164.93c-.86,0-1.73-.34-2.39-1-1.31-1.31-1.31-3.45,0-4.76l2.47-2.46c1.32-1.31,3.45-1.3,4.76.01,1.31,1.31,1.31,3.45,0,4.76l-2.47,2.46c-.66.66-1.52.99-2.38.99Z"/>
        <path class="cls-1" d="M115.99,177.5c-.87,0-1.73-.34-2.39-1-1.31-1.31-1.31-3.45,0-4.76l2.47-2.46c1.32-1.32,3.45-1.29,4.76.01,1.31,1.31,1.31,3.45,0,4.76l-2.47,2.46c-.66.66-1.52.99-2.38.99Z"/>
        <path class="cls-1" d="M131.04,177.5c-.86,0-1.72-.33-2.38-.99l-2.47-2.46c-1.32-1.31-1.32-3.45,0-4.76,1.31-1.3,3.45-1.33,4.76-.01l2.47,2.46c1.32,1.31,1.32,3.45,0,4.76-.66.66-1.52,1-2.39,1Z"/>
        <path class="cls-1" d="M118.46,164.93c-.86,0-1.72-.33-2.38-.99l-2.47-2.46c-1.32-1.31-1.32-3.45,0-4.76,1.31-1.31,3.45-1.32,4.76-.01l2.47,2.46c1.32,1.31,1.32,3.45,0,4.76-.66.66-1.52,1-2.39,1Z"/>
      </g>
    </g>
  </g>
</svg>