<?xml version="1.0" encoding="UTF-8"?>
<svg id="Layer_1" data-name="Layer 1" xmlns="http://www.w3.org/2000/svg" viewBox="0 0 400 400">
  <defs>
    <style>
      .cls-1 {
        fill: #5a8fae;
      }
    </style>
  </defs>
  <g>
    <path class="cls-1" d="M184.4,257.26c-.59-.08-1.17-.16-1.76-.26-2.61-.43-5.08,1.34-5.51,3.95-.43,2.61,1.34,5.08,3.95,5.51.68.11,1.37.21,2.06.3.21.03.42.04.63.04,2.37,0,4.43-1.76,4.75-4.17.35-2.63-1.5-5.04-4.13-5.39Z"/>
    <path class="cls-1" d="M161.34,259.21c.79.5,1.68.74,2.55.74,1.59,0,3.15-.79,4.06-2.24,1.41-2.24.74-5.21-1.5-6.62-.48-.3-.96-.62-1.43-.95-2.18-1.51-5.17-.97-6.68,1.21-1.51,2.18-.97,5.17,1.21,6.68.59.41,1.19.8,1.78,1.18Z"/>
    <path class="cls-1" d="M204.42,257.19c-.62.07-1.23.13-1.85.19-2.64.24-4.58,2.58-4.34,5.22.23,2.49,2.32,4.36,4.77,4.36.15,0,.3,0,.45-.02.66-.06,1.32-.13,1.99-.2,2.63-.28,4.54-2.65,4.26-5.28-.28-2.63-2.65-4.54-5.28-4.26Z"/>
    <path class="cls-1" d="M284.92,223.24s.04,0,.06,0c.43,0,.85,0,1.28,0h.56s.02,0,.03,0c2.64,0,4.78-2.13,4.8-4.77.01-2.65-2.12-4.81-4.77-4.82h-.62c-.47,0-.93,0-1.4,0-2.65.03-4.77,2.21-4.74,4.86.03,2.63,2.17,4.74,4.8,4.74Z"/>
    <path class="cls-1" d="M304.83,225.27c.58.14,1.16.29,1.73.45.42.12.85.17,1.27.17,2.11,0,4.04-1.4,4.63-3.54.7-2.56-.81-5.19-3.37-5.89-.66-.18-1.33-.35-2-.51-2.58-.62-5.17.96-5.79,3.53-.62,2.58.96,5.17,3.53,5.79Z"/>
    <path class="cls-1" d="M184.35,114.93c.01.61.02,1.22.03,1.83.01,2.64,2.16,4.78,4.8,4.78h.02c2.65-.01,4.79-2.17,4.78-4.82,0-.68-.01-1.35-.03-2.03-.06-2.65-2.26-4.75-4.91-4.68-2.65.07-4.74,2.27-4.68,4.91Z"/>
    <path class="cls-1" d="M181.74,97.15c.62,2.09,2.53,3.44,4.6,3.44.45,0,.91-.06,1.36-.2,2.54-.75,3.99-3.42,3.24-5.96-.2-.67-.4-1.33-.62-1.99-.83-2.52-3.55-3.88-6.06-3.05-2.52.83-3.88,3.55-3.05,6.06.19.56.36,1.13.53,1.69Z"/>
    <path class="cls-1" d="M325.04,244.87c-2.34-2.34-4.93-4.46-7.69-6.29-8.02-5.3-17.37-8.16-28.67-8.79l-.15-.84-.04.83c-1.72-.09-3.19-.14-4.61-.14h-.34c-11.67.04-23.67,2.25-33.86,4.4l-1.27.27.29-1.26c3.32-14.65,5.88-26.76,6.22-38.17.02-.79.03-1.56.03-2.33,0-13.38-3.55-23.48-10.83-30.93-7.89-8.04-18.85-11.59-33.56-10.9-11.44.53-23.51,3.35-36.96,6.71l-1.32.33.31-1.33c2.47-10.44,5.05-22.7,5.37-34.42.04-1.28.03-2.53.01-3.77-.22-11.78-2.85-21.34-8.05-29.37l-.13-.19c-1.76-2.69-3.79-5.19-6.04-7.43-1.55-1.55-4.07-1.55-5.61,0-1.55,1.55-1.55,4.07,0,5.61.91.91,1.81,1.92,2.75,3.08l.47.58-67.18,67.18-.58-.47c-1.16-.93-2.17-1.83-3.09-2.75-1.55-1.55-4.07-1.55-5.61,0-1.55,1.55-1.55,4.07,0,5.61,2.25,2.25,4.74,4.27,7.41,6.02l.19.13c8.05,5.21,17.61,7.84,29.23,8.05,1.39.03,2.64.03,3.92,0,11.72-.32,23.98-2.89,34.42-5.36l1.33-.31-.33,1.32c-3.23,12.96-6.18,25.54-6.71,36.96-.68,14.69,2.86,25.64,10.83,33.48l.19.21c7.36,7.16,17.44,10.69,30.76,10.71.85,0,1.62,0,2.4-.03,11.42-.34,23.53-2.9,38.17-6.22l1.26-.29-.27,1.27c-2.15,10.19-4.36,22.19-4.4,33.87,0,1.51.04,3.08.13,4.94l-.82.26.83-.05c.63,11.27,3.48,20.6,8.7,28.53l.12.17c1.84,2.76,3.94,5.33,6.26,7.65,1.5,1.5,4.12,1.5,5.61,0,1.55-1.55,1.55-4.07,0-5.61-1-1-1.97-2.08-2.95-3.31l-.47-.58,64.84-64.84.58.47c1.22.99,2.3,1.95,3.31,2.95,1.5,1.5,4.11,1.5,5.61,0,.75-.75,1.16-1.75,1.16-2.81s-.41-2.06-1.16-2.81ZM171.83,166.03c9.58-2.4,19.48-4.88,28.5-6.28l2.51-.39-39.83,39.83.39-2.51c1.39-9.02,3.88-18.93,6.28-28.5l.43-1.72,1.72-.43ZM120.25,166.29l-.37-.02c-6.74-.32-12.51-1.57-17.66-3.81l-1.11-.49,64.52-64.52.49,1.12c2.24,5.14,3.49,10.92,3.81,17.66l.02.37-49.69,49.69ZM134.15,165.71l-2.36.27,37.83-37.83-.27,2.36c-1.08,9.51-3.36,19.52-5.68,28.92l-.12.49-.49.12c-9.39,2.31-19.4,4.6-28.92,5.68ZM167.65,231.01c-3.48-5.04-5.25-11.4-5.41-19.46v-.35s52.62-52.62,52.62-52.62h.35c8.05.16,14.42,1.93,19.46,5.42l.82.57-67.27,67.27-.57-.82ZM194.55,243.32h-.36c-8.01-.26-14.38-2.01-19.46-5.38l-.85-.56,67.14-67.14.56.85c3.37,5.08,5.12,11.45,5.37,19.46v.36s-.24.25-.24.25l-52.16,52.16ZM239.84,236.19l-2.99.67c-9.42,2.14-19.16,4.35-28.06,5.54l-2.43.33,40.02-40.02-.33,2.43c-1.19,8.91-3.4,18.64-5.54,28.06l-.67,2.99ZM241.51,273.13c.72-10.02,2.86-20.67,4.86-29.77l.11-.52.52-.11c9.11-2,19.77-4.15,29.77-4.86l2.22-.16-37.64,37.64.16-2.22ZM246.36,305.01l-.5-1.08c-2.35-5.07-3.77-10.68-4.33-17.12l-.03-.39,48.59-48.59.39.03c6.45.57,12.05,1.99,17.12,4.34l1.08.5-62.3,62.3Z"/>
    <path class="cls-1" d="M106.49,224.69l-2.41,2.41c-1.87,1.87-1.87,4.91,0,6.79.94.94,2.17,1.41,3.39,1.41s2.46-.47,3.39-1.41l2.41-2.41c1.87-1.87,1.87-4.91,0-6.79-1.87-1.87-4.91-1.87-6.79,0Z"/>
    <path class="cls-1" d="M119.48,211.7l-2.41,2.41c-1.87,1.87-1.87,4.91,0,6.79.94.94,2.16,1.41,3.39,1.41s2.46-.47,3.39-1.41l2.41-2.41c1.87-1.87,1.87-4.91,0-6.79-1.87-1.87-4.91-1.87-6.79,0Z"/>
    <path class="cls-1" d="M123.86,224.69c-1.87-1.87-4.91-1.87-6.79,0-1.87,1.87-1.87,4.91,0,6.79l2.41,2.41c.94.94,2.16,1.41,3.39,1.41s2.46-.47,3.39-1.41c1.87-1.87,1.87-4.91,0-6.79l-2.41-2.41Z"/>
    <path class="cls-1" d="M110.87,211.7c-1.87-1.87-4.91-1.87-6.79,0-1.87,1.87-1.87,4.91,0,6.79l2.41,2.41c.94.94,2.17,1.41,3.39,1.41s2.46-.47,3.39-1.41c1.87-1.87,1.87-4.91,0-6.79l-2.41-2.41Z"/>
    <path class="cls-1" d="M156.49,300.26l.75.75c.94.94,2.16,1.41,3.39,1.41s2.46-.47,3.39-1.41c1.87-1.87,1.87-4.91,0-6.79l-.75-.75c-1.87-1.87-4.91-1.87-6.79,0-1.87,1.87-1.87,4.91,0,6.79Z"/>
    <path class="cls-1" d="M174.04,304.24c-1.87-1.87-4.91-1.87-6.79,0s-1.87,4.91,0,6.79l.75.75c.94.94,2.17,1.41,3.39,1.41s2.46-.47,3.39-1.41c1.87-1.87,1.87-4.91,0-6.79l-.75-.75Z"/>
    <path class="cls-1" d="M157.25,304.24l-.75.75c-1.87,1.87-1.87,4.91,0,6.79.94.94,2.16,1.41,3.39,1.41s2.46-.47,3.39-1.41l.75-.75c1.87-1.87,1.87-4.91,0-6.79-1.87-1.87-4.91-1.87-6.79,0Z"/>
    <path class="cls-1" d="M168.01,293.48l-.75.75c-1.87,1.87-1.87,4.91,0,6.79.94.94,2.17,1.41,3.39,1.41s2.46-.47,3.39-1.41l.75-.75c1.87-1.87,1.87-4.91,0-6.79-1.87-1.87-4.91-1.87-6.79,0Z"/>
  </g>
  <path class="cls-1" d="M200,386.65c-102.92,0-186.65-83.73-186.65-186.66S97.08,13.35,200,13.35s186.66,83.73,186.66,186.65-83.73,186.66-186.66,186.66ZM200,20.71C101.14,20.71,20.71,101.14,20.71,200s80.43,179.29,179.28,179.29,179.29-80.43,179.29-179.29S298.86,20.71,200,20.71Z"/>
</svg>