<?xml version="1.0" encoding="UTF-8"?>
<svg id="Layer_1" data-name="Layer 1" xmlns="http://www.w3.org/2000/svg" viewBox="0 0 284.67 400">
  <defs>
    <style>
      .cls-1 {
        fill: #fff;
      }
    </style>
  </defs>
  <path class="cls-1" d="M215.6,200c0,11.64,9.47,21.11,21.12,21.11s21.11-9.47,21.11-21.11-9.47-21.11-21.11-21.11-21.12,9.47-21.12,21.11Z"/>
  <path class="cls-1" d="M170.45,178.89c-11.64,0-21.12,9.47-21.12,21.11s9.47,21.11,21.12,21.11,21.11-9.47,21.11-21.11-9.47-21.11-21.11-21.11Z"/>
  <path class="cls-1" d="M170.45,123.67c-11.64,0-21.12,9.47-21.12,21.11s9.47,21.11,21.12,21.11,21.11-9.47,21.11-21.11-9.47-21.11-21.11-21.11Z"/>
  <path class="cls-1" d="M104.19,68.45c-11.64,0-21.12,9.47-21.12,21.11s9.47,21.11,21.12,21.11,21.11-9.47,21.11-21.11-9.47-21.11-21.11-21.11Z"/>
  <path class="cls-1" d="M37.94,13.24c-11.64,0-21.12,9.47-21.12,21.11s9.47,21.11,21.12,21.11,21.11-9.47,21.11-21.11-9.47-21.11-21.11-21.11Z"/>
  <path class="cls-1" d="M170.45,234.1c-11.64,0-21.12,9.47-21.12,21.11s9.47,21.11,21.12,21.11,21.11-9.47,21.11-21.11-9.47-21.11-21.11-21.11Z"/>
  <path class="cls-1" d="M104.19,178.89c-11.64,0-21.12,9.47-21.12,21.11s9.47,21.11,21.12,21.11,21.11-9.47,21.11-21.11-9.47-21.11-21.11-21.11Z"/>
  <path class="cls-1" d="M104.19,123.67c-11.64,0-21.12,9.47-21.12,21.11s9.47,21.11,21.12,21.11,21.11-9.47,21.11-21.11-9.47-21.11-21.11-21.11Z"/>
  <path class="cls-1" d="M104.19,234.1c-11.64,0-21.12,9.47-21.12,21.11s9.47,21.11,21.12,21.11,21.11-9.47,21.11-21.11-9.47-21.11-21.11-21.11Z"/>
  <path class="cls-1" d="M104.19,289.32c-11.64,0-21.12,9.47-21.12,21.11s9.47,21.11,21.12,21.11,21.11-9.47,21.11-21.11-9.47-21.11-21.11-21.11Z"/>
  <path class="cls-1" d="M37.94,68.45c-11.64,0-21.12,9.47-21.12,21.11s9.47,21.11,21.12,21.11,21.11-9.47,21.11-21.11-9.47-21.11-21.11-21.11Z"/>
  <path class="cls-1" d="M37.94,178.89c-11.64,0-21.12,9.47-21.12,21.11s9.47,21.11,21.12,21.11,21.11-9.47,21.11-21.11-9.47-21.11-21.11-21.11Z"/>
  <path class="cls-1" d="M37.94,123.67c-11.64,0-21.12,9.47-21.12,21.11s9.47,21.11,21.12,21.11,21.11-9.47,21.11-21.11-9.47-21.11-21.11-21.11Z"/>
  <path class="cls-1" d="M37.94,234.1c-11.64,0-21.12,9.47-21.12,21.11s9.47,21.11,21.12,21.11,21.11-9.47,21.11-21.11-9.47-21.11-21.11-21.11Z"/>
  <path class="cls-1" d="M37.94,289.32c-11.64,0-21.12,9.47-21.12,21.11s9.47,21.11,21.12,21.11,21.11-9.47,21.11-21.11-9.47-21.11-21.11-21.11Z"/>
  <path class="cls-1" d="M37.94,344.53c-11.64,0-21.12,9.47-21.12,21.11s9.47,21.11,21.12,21.11,21.11-9.47,21.11-21.11-9.47-21.11-21.11-21.11Z"/>
</svg>