<?xml version="1.0" encoding="UTF-8"?>
<svg id="Layer_1" data-name="Layer 1" xmlns="http://www.w3.org/2000/svg" viewBox="0 0 400 400">
  <defs>
    <style>
      .cls-1 {
        fill: #b54c70;
      }
    </style>
  </defs>
  <path class="cls-1" d="M200,386.56c-102.87,0-186.56-83.69-186.56-186.56S97.13,13.44,200,13.44s186.56,83.69,186.56,186.56-83.69,186.56-186.56,186.56ZM200,20.81C101.19,20.81,20.81,101.19,20.81,200s80.38,179.19,179.19,179.19,179.19-80.38,179.19-179.19S298.81,20.81,200,20.81Z"/>
  <g>
    <path class="cls-1" d="M240.84,156.11c1.65-1.67,3.39-3.23,5.19-4.73.24-.2.48-.39.72-.59-.6-.51-1.19-1.03-1.76-1.59-1.68-1.64-3.18-3.41-4.49-5.3-.2.2-.4.4-.61.59-1.7,1.62-3.44,3.18-5.29,4.62-.26.2-.53.4-.79.6,2.19,2.38,4.15,4.92,5.87,7.6.38-.41.77-.81,1.17-1.21Z"/>
    <path class="cls-1" d="M173.73,247.34c-.33,1.37-.69,2.73-1.08,4.07,3.09.37,6.07,1.09,8.91,2.1.33-1.25.69-2.5,1.07-3.74.78-2.51,1.66-4.99,2.64-7.44-3.45-.47-6.82-1.25-10.08-2.34-.39,2.47-.89,4.92-1.46,7.34Z"/>
    <path class="cls-1" d="M131.18,171.76c-2.15-.37-4.29-.82-6.4-1.4-.03,3.24-.68,6.33-1.83,9.17,2.14.31,4.25.75,6.34,1.26,2.73.68,5.44,1.47,8.11,2.43.26-3.57.85-7.07,1.76-10.47-2.69-.2-5.35-.54-7.99-.99Z"/>
    <path class="cls-1" d="M257.58,201.54c-2.31-.58-4.6-1.23-6.85-2.02-1.13-.4-2.24-.82-3.35-1.29-.01,0-.02,0-.03-.01-.66,3.3-1.61,6.52-2.85,9.63.05,0,.1.01.14.02,1.19.18,2.36.41,3.53.66,2.33.51,4.62,1.16,6.89,1.88,2.73.88,5.43,1.87,8.09,3,.32-3.61,1.27-7.05,2.72-10.2-2.8-.43-5.56-1-8.29-1.67Z"/>
    <path class="cls-1" d="M163.28,136.27c-1.41-2.43-2.73-4.92-3.92-7.48-2.66,2.3-5.66,4.21-8.92,5.66,1.79,2.18,3.46,4.43,5.03,6.74.7,1.04,1.39,2.1,2.05,3.17,2.37-1.96,4.88-3.7,7.51-5.22-.6-.94-1.18-1.9-1.74-2.86Z"/>
    <path class="cls-1" d="M167.31,142.47c7.53-4.3,16.24-6.76,25.53-6.76,14.86,0,28.25,6.29,37.66,16.35.43-.28.85-.56,1.26-.85.7-.48,1.38-.98,2.05-1.49-.54-.59-1.1-1.18-1.67-1.75-10.5-10.5-24.45-16.28-39.3-16.28-9.92,0-19.45,2.59-27.81,7.43.66,1.04,1.34,2.06,2.07,3.05.07.1.14.19.21.29Z"/>
    <path class="cls-1" d="M236.91,160.51c4.75,7.8,7.48,16.96,7.48,26.76,0,3.14-.28,6.21-.82,9.2.17.09.34.18.51.26,1.08.53,2.16,1.02,3.26,1.48.71-3.56,1.07-7.22,1.07-10.94,0-10.78-3.05-21.09-8.74-29.95-.42.45-.83.9-1.24,1.37-.52.59-1.03,1.2-1.53,1.82Z"/>
    <path class="cls-1" d="M141.28,187.27c0-.84.02-1.67.06-2.51-1.3-.55-2.62-1.07-3.94-1.54-.1,1.34-.15,2.69-.15,4.05,0,14.84,5.78,28.8,16.28,39.3,6.19,6.19,13.58,10.74,21.65,13.43.21-1.35.4-2.71.55-4.08-20.07-7.05-34.45-26.17-34.45-48.65Z"/>
    <path class="cls-1" d="M159.55,147.91c-.13-.24-.25-.49-.39-.73-.52-.96-1.07-1.9-1.64-2.83-1.38,1.14-2.71,2.34-3.98,3.62-6.98,6.98-11.87,15.49-14.37,24.78,1.37.1,2.75.17,4.13.19,2.86-9.89,8.59-18.56,16.25-25.04Z"/>
    <path class="cls-1" d="M240.33,207.35c-7.83,18.5-26.15,31.48-47.5,31.48-2,0-3.97-.12-5.91-.34-.59,1.27-1.14,2.56-1.66,3.85,2.49.34,5.01.51,7.57.51,14.84,0,28.8-5.78,39.3-16.28,5.43-5.43,9.6-11.79,12.36-18.73-1.14-.18-2.28-.33-3.44-.44-.24-.02-.48-.04-.72-.06Z"/>
    <path class="cls-1" d="M230.49,152.07c2.41,2.58,4.57,5.41,6.41,8.44.5-.62,1-1.23,1.53-1.82.41-.46.82-.92,1.24-1.37-1.72-2.68-3.68-5.22-5.87-7.6-.67.51-1.35,1.01-2.05,1.49-.42.29-.84.57-1.26.85Z"/>
    <path class="cls-1" d="M175.74,235.92c-.15,1.37-.33,2.73-.55,4.08,3.26,1.09,6.63,1.87,10.08,2.34.52-1.29,1.07-2.58,1.66-3.85-3.88-.44-7.62-1.31-11.19-2.57Z"/>
    <path class="cls-1" d="M143.3,172.95c-1.39-.02-2.76-.09-4.13-.19-.91,3.4-1.51,6.9-1.76,10.47,1.32.47,2.63.99,3.94,1.54.2-4.08.87-8.04,1.96-11.82Z"/>
    <path class="cls-1" d="M244.08,196.73c-.17-.08-.34-.18-.51-.26-.68,3.79-1.78,7.43-3.24,10.88.24.02.48.03.72.06,1.16.11,2.3.26,3.44.44,1.24-3.11,2.19-6.33,2.85-9.63-1.1-.45-2.18-.95-3.26-1.48Z"/>
    <path class="cls-1" d="M159.55,147.91c2.41-2.04,5-3.86,7.76-5.43-.07-.1-.14-.19-.21-.29-.72-1-1.41-2.02-2.07-3.05-2.62,1.52-5.13,3.26-7.51,5.22.57.93,1.12,1.87,1.64,2.83.13.24.26.49.39.73Z"/>
    <path class="cls-1" d="M192.84,234.8c-1.35,0-2.69-.06-4.02-.17-.29.55-.57,1.1-.84,1.65-.36.73-.71,1.47-1.05,2.21,1.94.22,3.91.34,5.91.34,21.35,0,39.67-12.98,47.5-31.48-1.43-.12-2.87-.19-4.33-.19-7.54,16.3-24.05,27.65-43.17,27.65Z"/>
    <path class="cls-1" d="M176.09,231.75c-17.97-6.79-30.78-24.17-30.78-44.48,0-.23,0-.45,0-.68-.01,0-.02-.01-.04-.02-1.04-.52-2.08-1.01-3.13-1.47-.27-.12-.53-.23-.8-.34-.04.83-.06,1.67-.06,2.51,0,22.48,14.39,41.59,34.45,48.65.11-.97.2-1.94.27-2.92.03-.41.05-.83.08-1.25Z"/>
    <path class="cls-1" d="M236.91,160.51c-.25.31-.5.61-.74.92-.65.84-1.28,1.71-1.88,2.6,3.87,6.88,6.08,14.8,6.08,23.24,0,2.42-.18,4.8-.53,7.12,1.23.75,2.47,1.44,3.74,2.08.54-2.98.82-6.06.82-9.2,0-9.8-2.74-18.96-7.48-26.76Z"/>
    <path class="cls-1" d="M147.53,172.89c2.63-8.28,7.48-15.59,13.85-21.22-.2-.45-.4-.9-.61-1.35-.38-.82-.79-1.62-1.21-2.42-7.65,6.48-13.39,15.14-16.25,25.04.46,0,.92.01,1.38.01.94,0,1.89-.03,2.85-.07Z"/>
    <path class="cls-1" d="M169.83,145.69c6.82-3.79,14.67-5.95,23.01-5.95,13.37,0,25.47,5.55,34.12,14.47.62-.34,1.23-.69,1.83-1.06.58-.35,1.15-.72,1.71-1.09-9.41-10.06-22.8-16.35-37.66-16.35-9.29,0-18,2.46-25.53,6.76.62.85,1.26,1.69,1.93,2.51.19.24.39.47.59.7Z"/>
    <path class="cls-1" d="M226.95,154.21c2.84,2.93,5.31,6.23,7.33,9.82.61-.89,1.23-1.76,1.88-2.6.24-.31.49-.62.74-.92-1.85-3.03-4-5.86-6.41-8.44-.56.37-1.13.73-1.71,1.09-.6.36-1.21.71-1.83,1.06Z"/>
    <path class="cls-1" d="M188.82,234.63c-4.44-.37-8.72-1.36-12.73-2.88-.02.42-.05.83-.08,1.25-.07.98-.17,1.95-.27,2.92,3.57,1.25,7.31,2.13,11.19,2.57.34-.74.69-1.48,1.05-2.21.27-.55.55-1.1.84-1.65Z"/>
    <path class="cls-1" d="M145.28,186.58s.02.01.04.02c.07-4.77.84-9.37,2.22-13.7-.95.04-1.9.07-2.85.07-.46,0-.92,0-1.38-.01-1.09,3.78-1.76,7.74-1.96,11.82.27.11.54.22.8.34,1.05.46,2.09.95,3.13,1.47Z"/>
    <path class="cls-1" d="M236,207.16c1.46,0,2.9.07,4.33.19,1.46-3.45,2.55-7.09,3.24-10.88-1.26-.64-2.51-1.33-3.74-2.08-.68,4.49-1.99,8.77-3.83,12.76Z"/>
    <path class="cls-1" d="M161.38,151.67c2.58-2.29,5.42-4.3,8.45-5.98-.2-.23-.4-.47-.59-.7-.67-.82-1.31-1.66-1.93-2.51-2.76,1.57-5.35,3.4-7.76,5.43.42.8.83,1.6,1.21,2.42.21.44.41.89.61,1.35Z"/>
    <path class="cls-1" d="M162.94,195.44c.26.74.55,1.48.87,2.21,1.24,2.84,2.89,5.53,4.9,7.94,1.98,2.37,4.29,4.49,6.85,6.26.54-1.85,1.5-3.54,2.81-4.94-2.19-1.26-4.21-2.81-6.01-4.61-1.89-1.9-3.52-4.08-4.83-6.45-.21-.39-.41-.78-.61-1.18-.21.08-.41.15-.63.22-1.11.35-2.24.53-3.36.57Z"/>
    <path class="cls-1" d="M164.63,170.53c-.31-.13-.65-.07-.9.13.44.04.87.11,1.3.2-.1-.14-.23-.26-.4-.33Z"/>
    <path class="cls-1" d="M199.09,218.42c1.31-.05,2.62-.16,3.93-.33h.02c.12-.02.23-.04.35-.07,2.17-.49,3.53-2.64,3.05-4.81-.49-2.17-2.64-3.53-4.81-3.05-.98.22-1.98.4-2.98.54.25.62.45,1.26.59,1.93.43,1.97.35,3.95-.15,5.79Z"/>
    <path class="cls-1" d="M175.68,211.93c2.61,1.78,5.47,3.22,8.47,4.28,3,1.06,6.13,1.74,9.3,2.05,1.87.18,3.76.23,5.65.16.5-1.84.59-3.82.15-5.79-.15-.67-.35-1.31-.59-1.93-1.58.22-3.19.32-4.79.31-2.62-.02-5.25-.34-7.81-.99-2.55-.65-5.03-1.63-7.35-2.92-.11-.06-.22-.13-.33-.19-1.3,1.4-2.27,3.09-2.81,4.94.04.03.08.06.12.08Z"/>
    <path class="cls-1" d="M164.48,187.68l-.29-1.53c-.08-.34-.1-.68-.15-1.03l-.14-1.03-.08-1.04c-.02-.35-.06-.69-.06-1.04,0-.69-.04-1.39,0-2.09.14-2.79.54-5.59,1.38-8.28h0c.08-.28.03-.56-.12-.78-.43-.09-.86-.15-1.3-.2-.12.09-.21.21-.27.36-1.14,2.77-1.85,5.71-2.26,8.7-.1.75-.13,1.5-.2,2.26-.03.38-.03.76-.04,1.14l-.02,1.14.05,1.14c.02.38.02.76.06,1.14l.17,1.71.09.57c.33,2.25.87,4.48,1.63,6.64,1.11-.03,2.24-.22,3.36-.57.21-.07.42-.14.63-.22-1-2.05-1.78-4.23-2.32-6.48l-.13-.5Z"/>
    <path class="cls-1" d="M243.38,140.97c-8.06-12.23-6.85-28.83,3.79-39.76,12.28-12.63,32.48-12.91,45.11-.62,12.63,12.28,12.91,32.48.62,45.11-11.6,11.92-30.24,12.83-42.91,2.56-1.1.82-2.18,1.67-3.24,2.53,6.7,5.71,14.99,8.56,23.28,8.56,9.37,0,18.72-3.63,25.75-10.86,13.81-14.2,13.5-36.99-.7-50.8-14.2-13.81-36.99-13.5-50.8.7-6.69,6.88-10.3,15.95-10.17,25.54.1,7.25,2.33,14.13,6.38,19.95.98-.96,1.94-1.93,2.89-2.93Z"/>
    <path class="cls-1" d="M246.75,150.79c1.06-.87,2.14-1.71,3.24-2.53-.75-.61-1.49-1.25-2.19-1.94-1.7-1.65-3.16-3.45-4.41-5.34-.94,1-1.9,1.97-2.89,2.93,1.31,1.89,2.81,3.66,4.49,5.3.57.56,1.16,1.08,1.76,1.59Z"/>
    <path class="cls-1" d="M292.9,145.69c12.28-12.63,12-32.82-.62-45.11-12.63-12.28-32.82-12-45.11.62-10.63,10.93-11.85,27.53-3.79,39.76.95-1.01,1.88-2.04,2.79-3.1-2.54-4.19-3.94-9-4.01-14.03-.1-7.45,2.7-14.49,7.89-19.82,5.46-5.61,12.72-8.43,19.99-8.43s14.03,2.62,19.43,7.88c11.02,10.72,11.26,28.4.55,39.42-9.85,10.12-25.57,11.14-36.6,2.94-1.17.78-2.31,1.6-3.43,2.43,12.68,10.27,31.32,9.36,42.91-2.56Z"/>
    <path class="cls-1" d="M250.59,143.43c-1.73-1.68-3.21-3.55-4.43-5.56-.91,1.06-1.84,2.09-2.79,3.1,1.25,1.9,2.72,3.69,4.41,5.34.71.69,1.44,1.33,2.19,1.94,1.12-.84,2.26-1.65,3.43-2.43-.98-.73-1.92-1.52-2.82-2.39Z"/>
    <path class="cls-1" d="M275.65,104.66h0c1.57.8,3,1.84,4.31,3,.33.29.63.61.94.91.31.31.58.65.87.97.27.34.55.68.8,1.03l.56.8.17.28c.92,1.46,1.68,3.02,2.16,4.65.12.41.23.82.33,1.23l.19.93.04.31c.05.42.12.84.16,1.25l.06,1.26c.04,3.35-.86,6.66-2.51,9.51-1.65,2.86-4.02,5.27-6.74,7.06h0c-.06.04-.12.09-.18.13-1.09.86-1.27,2.45-.41,3.54s2.45,1.27,3.54.41c3.15-2.5,5.73-5.68,7.4-9.29,1.67-3.61,2.38-7.65,1.97-11.56l-.21-1.46c-.09-.48-.21-.96-.31-1.43l-.08-.36-.32-1.05c-.15-.46-.32-.92-.5-1.37-.71-1.8-1.71-3.47-2.88-4.98l-.22-.29-.69-.82c-.31-.36-.65-.7-.97-1.04-.35-.32-.68-.66-1.04-.97-.36-.3-.72-.62-1.1-.9-1.52-1.12-3.15-2.09-4.89-2.78-.27-.11-.58,0-.71.27-.14.28-.03.61.25.76Z"/>
    <path class="cls-1" d="M135.93,133.49c-17.62,0-31.9-14.28-31.9-31.9s14.28-31.9,31.9-31.9,31.9,14.28,31.9,31.9c0,9.21-3.91,17.5-10.15,23.33.53,1.31,1.09,2.6,1.68,3.87,7.64-6.59,12.49-16.33,12.49-27.19,0-19.81-16.11-35.92-35.92-35.92s-35.92,16.11-35.92,35.92,16.11,35.92,35.92,35.92c5.16,0,10.07-1.1,14.51-3.07-.89-1.08-1.81-2.15-2.77-3.19-3.64,1.44-7.59,2.24-11.74,2.24Z"/>
    <path class="cls-1" d="M157.68,124.92c-2.89,2.69-6.27,4.85-10.01,6.33.95,1.04,1.88,2.11,2.77,3.19,3.26-1.44,6.26-3.36,8.92-5.66-.59-1.27-1.15-2.56-1.68-3.87Z"/>
    <path class="cls-1" d="M167.83,101.59c0-17.62-14.28-31.9-31.9-31.9s-31.9,14.28-31.9,31.9,14.28,31.9,31.9,31.9c4.15,0,8.11-.8,11.74-2.24-.34-.38-.69-.75-1.04-1.12-.66-.69-1.34-1.37-2.03-2.05-2.73.9-5.64,1.39-8.67,1.39-15.37,0-27.88-12.51-27.88-27.88s12.51-27.88,27.88-27.88,27.88,12.51,27.88,27.88c0,7.42-2.92,14.16-7.66,19.16.31.93.64,1.85.98,2.76.18.47.36.94.55,1.4,6.24-5.82,10.15-14.12,10.15-23.33Z"/>
    <path class="cls-1" d="M156.15,120.76c-3.15,3.32-7.1,5.87-11.55,7.33.69.67,1.37,1.35,2.03,2.05.35.37.7.75,1.04,1.12,3.73-1.48,7.12-3.64,10.01-6.33-.19-.46-.37-.93-.55-1.4-.35-.91-.67-1.83-.98-2.76Z"/>
    <path class="cls-1" d="M131.01,116.74c-.18-.03-.35-.06-.53-.1h0c-.07-.02-.14-.03-.22-.04-1.38-.18-2.64.8-2.82,2.18-.18,1.38.8,2.64,2.18,2.82,2.34.3,4.72.29,7.04-.03-.46-.3-.93-.6-1.43-.88-1.76-1-3.18-2.36-4.22-3.95Z"/>
    <path class="cls-1" d="M155.72,103.27l.05-.35.11-1.07c.04-.47.05-.95.07-1.42-.01-.48,0-.95-.03-1.42-.04-.47-.06-.94-.12-1.41-.26-1.87-.7-3.72-1.41-5.45-.11-.26-.41-.41-.69-.32-.3.09-.46.41-.37.7h0c.52,1.69.78,3.44.86,5.19.02.44,0,.87,0,1.31,0,.44-.06.87-.09,1.3-.06.43-.1.86-.18,1.29l-.18.96-.08.31c-.23.95-.53,1.89-.89,2.79.42,1.12.69,2.29.78,3.47.02.26.04.52.07.78.19-.37.37-.75.54-1.12.8-1.77,1.29-3.65,1.57-5.54Z"/>
    <path class="cls-1" d="M152.77,105.68c-.27.69-.58,1.36-.94,2-.21.37-.42.74-.65,1.09l-.53.79-.2.25c-.26.33-.52.67-.79.99l-.86.92c-2.37,2.37-5.37,4.03-8.57,4.84-3.03.77-6.21.79-9.23.19,1.04,1.58,2.46,2.95,4.22,3.95.5.28.97.58,1.43.88,1.63-.23,3.23-.6,4.78-1.14,3.75-1.32,7.14-3.63,9.66-6.65l.9-1.16c.28-.4.54-.82.81-1.22l.2-.31.53-.96c.03-.06.06-.13.09-.19-.03-.26-.05-.52-.07-.78-.09-1.18-.35-2.36-.78-3.47Z"/>
    <path class="cls-1" d="M119.33,179.12c-.19-.02-.37-.02-.56-.04-3.36,7.14-10.62,12.09-19.04,12.09-11.62,0-21.04-9.42-21.04-21.04s9.42-21.04,21.04-21.04,20.47,8.86,21.02,19.99c.21.08.42.16.64.23,1.07.37,2.15.71,3.23,1.01.06.02.12.03.18.05,0-.08,0-.16,0-.24,0-13.82-11.24-25.06-25.06-25.06s-25.06,11.24-25.06,25.06,11.24,25.06,25.06,25.06c10.5,0,19.5-6.49,23.23-15.66-.09-.01-.17-.03-.26-.04-1.11-.16-2.23-.29-3.36-.37Z"/>
    <path class="cls-1" d="M124.6,170.32c-1.08-.3-2.16-.63-3.23-1.01-.21-.07-.42-.15-.64-.23.02.35.03.7.03,1.05,0,3.2-.72,6.24-2,8.95.19.01.37.02.56.04,1.13.09,2.25.21,3.36.37.09.01.17.03.26.04,1.15-2.84,1.8-5.93,1.83-9.17-.06-.02-.12-.03-.18-.05Z"/>
    <path class="cls-1" d="M99.72,149.09c-11.62,0-21.04,9.42-21.04,21.04s9.42,21.04,21.04,21.04c8.42,0,15.68-4.95,19.04-12.09-.94-.07-1.89-.11-2.85-.13-.55,0-1.1,0-1.65,0-2.99,4.91-8.39,8.19-14.55,8.19-9.38,0-17.02-7.64-17.02-17.02s7.64-17.02,17.02-17.02c8.44,0,15.46,6.18,16.79,14.25.56.26,1.11.51,1.68.74.84.35,1.69.68,2.55.98-.55-11.13-9.75-19.99-21.02-19.99Z"/>
    <path class="cls-1" d="M116.51,167.36c.15.9.23,1.83.23,2.77,0,3.23-.91,6.25-2.47,8.83.55-.01,1.1-.01,1.65,0,.95.02,1.9.06,2.85.13,1.28-2.72,2-5.75,2-8.95,0-.35,0-.7-.03-1.05-.85-.31-1.7-.63-2.55-.98-.56-.23-1.12-.48-1.68-.74Z"/>
    <path class="cls-1" d="M112.07,166.86c0-.18-.15-.34-.34-.35-.2-.01-.37.14-.38.34h0c-.12,2.27-.87,4.48-2.11,6.33-.62.92-1.34,1.78-2.17,2.48-.21.18-.42.35-.64.51l-.5.36-.17.11c-.23.14-.46.29-.7.42l-.72.37c-1.96.9-4.14,1.23-6.25,1.01-2.11-.23-4.15-.99-5.91-2.12-.04-.03-.08-.05-.13-.07-.79-.42-1.77-.11-2.19.68-.42.79-.11,1.77.68,2.19,2.29,1.2,4.83,1.89,7.39,1.93,2.56.04,5.12-.6,7.32-1.86l.8-.5c.26-.18.51-.37.76-.56l.19-.14.53-.46c.23-.21.46-.43.67-.65.88-.89,1.59-1.91,2.18-2.99,1.18-2.16,1.76-4.61,1.67-7.02Z"/>
    <path class="cls-1" d="M294.17,185.05c-12.54,0-23.37,7.45-28.31,18.16,1.39.22,2.79.4,4.2.55,4.52-8.72,13.62-14.68,24.11-14.68,14.99,0,27.15,12.15,27.15,27.15s-12.15,27.15-27.15,27.15-27.15-12.15-27.15-27.15c0-.34.01-.68.03-1.02-1.29-.63-2.6-1.23-3.91-1.79-.08.92-.13,1.86-.13,2.81,0,17.19,13.98,31.17,31.17,31.17s31.17-13.98,31.17-31.17-13.98-31.17-31.17-31.17Z"/>
    <path class="cls-1" d="M270.06,203.76c-1.41-.14-2.81-.33-4.2-.55-1.45,3.15-2.4,6.59-2.72,10.2,1.32.56,2.62,1.15,3.91,1.79.15-4.11,1.22-7.99,3.01-11.44Z"/>
    <path class="cls-1" d="M274.5,204.08c4.08-6.59,11.37-10.99,19.67-10.99,12.75,0,23.12,10.37,23.12,23.12s-10.37,23.12-23.12,23.12-22.52-9.79-23.1-22.03c-.9-.51-1.8-1-2.71-1.46-.44-.22-.87-.44-1.31-.65-.01.34-.03.68-.03,1.02,0,14.99,12.15,27.15,27.15,27.15s27.15-12.15,27.15-27.15-12.15-27.15-27.15-27.15c-10.5,0-19.6,5.96-24.11,14.68.56.06,1.13.11,1.7.16.91.08,1.82.13,2.74.17Z"/>
    <path class="cls-1" d="M268.37,215.85c.91.46,1.81.95,2.71,1.46-.02-.36-.03-.73-.03-1.09,0-4.45,1.27-8.61,3.45-12.14-.92-.04-1.83-.09-2.74-.17-.57-.05-1.13-.1-1.7-.16-1.79,3.45-2.85,7.33-3.01,11.44.44.21.88.43,1.31.65Z"/>
    <path class="cls-1" d="M279.5,223c.58,1.32,1.3,2.56,2.17,3.68.95,1.23,2.05,2.33,3.28,3.25.19.14.46.12.62-.06.17-.19.15-.48-.03-.65h0c-1.08-.97-2.01-2.09-2.78-3.3-.09-.14-.16-.28-.24-.41-.59-.39-1.15-.83-1.66-1.32-.44-.42-.89-.82-1.35-1.2Z"/>
    <path class="cls-1" d="M286.77,203.37c1.18-.25,2.35-.32,3.49-.23.42-.17.85-.34,1.28-.48h0c.06-.02.11-.04.17-.07,1.05-.45,1.53-1.67,1.08-2.72-.45-1.05-1.67-1.53-2.72-1.08-2.76,1.19-5.26,2.94-7.27,5.14.03,0,.06,0,.09,0,1.27-.13,2.55-.27,3.87-.55Z"/>
    <path class="cls-1" d="M278.21,213.31l-.15,1.2c-.03.4-.04.8-.06,1.2v.3s.02.9.02.9c.02.4.06.8.1,1.19.18,1.58.62,3.11,1.22,4.56.05.12.11.23.16.35.46.38.91.77,1.35,1.2.51.48,1.07.92,1.66,1.32-.65-1.09-1.18-2.25-1.55-3.45-.42-1.35-.69-2.75-.72-4.14,0-.35,0-.7,0-1.04l.05-.78.03-.26c.05-.34.08-.69.14-1.03l.22-1.01c.68-2.67,2.1-5.09,4.01-7,1.59-1.59,3.51-2.82,5.56-3.67-1.14-.09-2.31-.02-3.49.23-1.32.28-2.6.43-3.87.55-.03,0-.06,0-.09,0-.19.21-.39.42-.57.64-2.09,2.5-3.51,5.55-4.02,8.74Z"/>
    <path class="cls-1" d="M180.66,257.45c14.33,5.3,24.55,19.09,24.55,35.26,0,20.76-16.83,37.59-37.59,37.59s-37.59-16.83-37.59-37.59,16.83-37.59,37.59-37.59c1.27,0,2.53.06,3.76.19.12-.35.25-.69.37-1.04.32-.95.62-1.9.9-2.87-1.65-.2-3.33-.31-5.03-.31-22.94,0-41.61,18.67-41.61,41.61s18.67,41.61,41.61,41.61,41.61-18.67,41.61-41.61c0-18.06-11.56-33.46-27.67-39.21-.28,1.07-.54,2.15-.77,3.24-.05.23-.09.47-.14.7Z"/>
    <path class="cls-1" d="M171.75,254.28c-.12.35-.25.69-.37,1.04,3.23.32,6.34,1.05,9.27,2.14.05-.23.09-.47.14-.7.23-1.09.49-2.17.77-3.24-2.84-1.01-5.82-1.73-8.91-2.1-.28.96-.57,1.92-.9,2.87Z"/>
    <path class="cls-1" d="M130.03,292.72c0,20.76,16.83,37.59,37.59,37.59s37.59-16.83,37.59-37.59c0-16.18-10.22-29.96-24.55-35.26-.19.95-.36,1.9-.5,2.86-.06.4-.11.8-.16,1.2,12.4,4.94,21.2,17.05,21.2,31.2,0,18.51-15.06,33.57-33.57,33.57s-33.57-15.06-33.57-33.57,15.06-33.57,33.57-33.57c.74,0,1.48.03,2.21.08.23-.52.45-1.04.66-1.56.32-.78.61-1.57.9-2.35-1.24-.12-2.49-.19-3.76-.19-20.76,0-37.59,16.83-37.59,37.59Z"/>
    <path class="cls-1" d="M169.83,259.23c3.57.23,6.98,1.03,10.16,2.29.05-.4.1-.8.16-1.2.14-.96.31-1.92.5-2.86-2.94-1.09-6.04-1.82-9.27-2.14-.28.79-.58,1.58-.9,2.35-.21.52-.43,1.04-.66,1.56Z"/>
    <path class="cls-1" d="M157.46,271.53c-.54.31-1.08.62-1.6.96l-1.17.78-.38.28c-.5.38-1.02.74-1.48,1.17l-.72.62c-.23.21-.49.4-.71.63-3.69,3.46-6.48,8.07-7.68,13.2-.6,2.56-.81,5.22-.6,7.87.2,2.65.81,5.27,1.78,7.76v.03c.05.09.09.18.13.27.8,1.6,2.75,2.25,4.35,1.45,1.6-.8,2.25-2.75,1.45-4.35-1.83-3.66-2.57-7.89-1.99-12.04.59-4.14,2.49-8.15,5.4-11.42.17-.22.37-.4.56-.6l.57-.59c.37-.41.79-.76,1.2-1.13l.31-.28.97-.78c.44-.34.89-.66,1.35-.99.35-.25.71-.47,1.07-.7.02-.02.05-.05.07-.07.53-.48.99-.98,1.45-1.47.44-.5.89-1,1.29-1.52.54-.67,1.05-1.36,1.54-2.05-.12.03-.24.06-.36.1-2.35.71-4.66,1.63-6.81,2.88Z"/>
    <path class="cls-1" d="M161.8,272.12c-.46.5-.92,1-1.45,1.47-.02.02-.05.05-.07.07,1.54-.97,3.18-1.78,4.89-2.46,4.2-1.69,8.8-2.55,13.41-2.35h0c.37.02.7-.25.74-.63.05-.4-.23-.76-.62-.81-4.67-.62-9.49-.19-14.08,1.14-.49.69-.99,1.37-1.54,2.05-.4.51-.84,1.02-1.29,1.52Z"/>
  </g>
</svg>