<?xml version="1.0" encoding="UTF-8"?>
<svg id="Layer_1" data-name="Layer 1" xmlns="http://www.w3.org/2000/svg" viewBox="0 0 400 400">
  <defs>
    <style>
      .cls-1 {
        fill: #f57e25;
      }
    </style>
  </defs>
  <path class="cls-1" d="M200,384.06c-101.49,0-184.05-82.57-184.05-184.06S98.51,15.94,200,15.94s184.06,82.57,184.06,184.05-82.57,184.06-184.06,184.06ZM200,23.21C102.52,23.21,23.21,102.52,23.21,200s79.31,176.79,176.79,176.79,176.79-79.31,176.79-176.79S297.48,23.21,200,23.21Z"/>
  <g>
    <path class="cls-1" d="M202.06,234.71c-1.63,0-3.26-.15-4.9-.44-7.24-1.29-13.54-5.33-17.74-11.36-4.2-6.03-5.8-13.34-4.51-20.57,1.29-7.24,5.33-13.54,11.36-17.74,6.03-4.2,13.34-5.8,20.57-4.51,7.24,1.29,13.54,5.33,17.74,11.36,4.2,6.03,5.8,13.34,4.51,20.57-1.29,7.24-5.33,13.54-11.36,17.74-4.67,3.25-10.1,4.95-15.67,4.95ZM201.96,187.7c-3.95,0-7.79,1.2-11.1,3.5-4.27,2.97-7.12,7.43-8.04,12.56-.92,5.12.22,10.3,3.19,14.57,2.98,4.27,7.44,7.12,12.56,8.04,5.12.91,10.3-.22,14.56-3.2,4.27-2.97,7.12-7.43,8.04-12.56s-.22-10.3-3.2-14.57c-2.97-4.27-7.43-7.12-12.56-8.04-1.16-.21-2.32-.31-3.47-.31Z"/>
    <path class="cls-1" d="M181.07,275.38c-16.32,0-29.68-4.05-39.92-12.12-19.04-15.03-21.09-39.54-21.09-49.38v-.24c0-12.67,0-51.25,39.79-62.53,11.26-3.19,22.36-8.11,33.1-12.87,24.51-10.87,47.67-21.12,65.46-6.49,15.11,12.43,26.89,48.21,19.63,79.67-4.93,21.34-20.3,49.05-65.56,59.87-11.45,2.73-21.92,4.1-31.41,4.1ZM237.38,132.55c-11.76,0-25.77,6.21-41.18,13.04-10.99,4.87-22.36,9.91-34.16,13.26-33.95,9.63-33.95,41.28-33.95,54.8v.24c0,8.67,1.76,30.22,18.04,43.07,14.15,11.17,35.84,13.36,64.48,6.51,41.26-9.86,55.18-34.73,59.6-53.86,6.94-30.07-5.17-62-16.91-71.66-4.67-3.84-10.01-5.41-15.92-5.41Z"/>
    <path class="cls-1" d="M85.66,216.25c-1.55,0-3.03-.91-3.69-2.42-9.24-21.36-9-45.74.66-66.89,13.52-29.61,40.87-47.83,71.45-48.47l-7.56-7.76c-1.55-1.59-1.51-4.13.08-5.68,1.59-1.55,4.14-1.51,5.68.08l14.62,15.01c1.18,1.21,1.48,3.04.73,4.56-.74,1.52-2.36,2.42-4.04,2.24-31.17-3.37-60.08,13.65-73.65,43.37-8.72,19.09-8.94,41.09-.6,60.36.88,2.04-.06,4.4-2.09,5.28-.52.22-1.06.33-1.59.33Z"/>
    <path class="cls-1" d="M247.48,316.12c-.97,0-1.95-.35-2.73-1.07l-15.39-14.22c-1.28-1.18-1.65-3.05-.92-4.63s2.4-2.51,4.12-2.31c33.6,3.99,66.81-15.52,78.98-46.36,7.02-17.79,6.94-37.35-.22-55.07-.83-2.06.16-4.4,2.22-5.23,2.06-.84,4.4.16,5.23,2.22,7.94,19.64,8.03,41.32.25,61.03-12.11,30.7-43,51.26-76.1,51.94l7.29,6.73c1.63,1.51,1.73,4.05.22,5.68-.79.86-1.87,1.29-2.95,1.29Z"/>
  </g>
</svg>