<?xml version="1.0" encoding="UTF-8"?>
<svg id="Layer_1" data-name="Layer 1" xmlns="http://www.w3.org/2000/svg" viewBox="0 0 400 400">
  <defs>
    <style>
      .cls-1 {
        fill: #fff;
      }

      .cls-2 {
        fill: #8b1ac6;
      }
    </style>
  </defs>
  <circle class="cls-2" cx="200" cy="200" r="189.47"/>
  <circle class="cls-2" cx="200" cy="200" r="189.47"/>
  <g>
    <path class="cls-1" d="M291.03,213.8c0-14.85-8.67-28.58-22.08-34.97-2.21-1.05-4.86-.12-5.91,2.09-1.05,2.21-.12,4.86,2.09,5.91,10.34,4.93,17.02,15.52,17.02,26.97,0,16.46-13.39,29.86-29.86,29.86-2.45,0-4.44,1.99-4.44,4.44s1.99,4.44,4.44,4.44c3.95,0,7.77-.6,11.36-1.71.14,1.01.23,2.03.23,3.06,0,10.85-8.08,20.26-18.79,21.88-3,.45-6.28.28-9.29-.56-2.37-.66-4.81.73-5.46,3.08-.66,2.36.72,4.81,3.08,5.46,2.7.75,5.5,1.13,8.32,1.13,1.58,0,3.15-.12,4.67-.35,15.01-2.28,26.33-15.46,26.33-30.65,0-2.3-.28-4.57-.78-6.79,11.38-6.75,19.04-19.13,19.04-33.29Z"/>
    <path class="cls-1" d="M230.67,291.48c-3.02,1.58-6.3,2.38-9.75,2.38-5.4,0-10.59-2.11-14.48-5.8V115.2c2.64-3.74,6.97-6.04,11.57-6.04,6.63,0,12.23,4.62,13.75,10.81-.86.31-1.72.64-2.56,1.03-2.22,1.04-3.17,3.68-2.13,5.9,1.04,2.22,3.68,3.18,5.9,2.14,2.63-1.23,5.46-1.86,8.4-1.86,10.93,0,19.83,8.89,19.83,19.83,0,3.6-.97,7.12-2.81,10.19-1.26,2.1-.58,4.83,1.52,6.09.71.43,1.5.63,2.28.63,1.51,0,2.98-.77,3.81-2.15.24-.4.45-.8.67-1.21,3.23,3.42,5.31,7.8,5.84,12.59.25,2.27,2.17,3.95,4.4,3.95.16,0,.33,0,.49-.03,2.43-.27,4.19-2.46,3.92-4.9-.92-8.29-5.1-15.7-11.6-20.79.22-1.44.34-2.89.34-4.36,0-15.83-12.87-28.7-28.7-28.7-.29,0-.57.04-.86.05-2.3-10.31-11.53-18.07-22.49-18.07-6.02,0-11.76,2.4-16.01,6.49-4.25-4.09-9.99-6.49-16.01-6.49-5.52,0-10.85,1.98-15.03,5.58-1.86,1.6-2.07,4.4-.47,6.26,1.6,1.86,4.4,2.07,6.26.47,2.57-2.21,5.85-3.43,9.24-3.43,4.6,0,8.93,2.3,11.57,6.04v172.86c-3.9,3.69-9.08,5.8-14.49,5.8-7.15,0-13.57-3.53-17.41-9.18,1.65-.18,3.29-.48,4.89-.93,2.36-.66,3.74-3.1,3.08-5.46-.66-2.36-3.1-3.74-5.46-3.08-3.01.84-6.29,1.01-9.29.56-9.3-1.41-16.7-8.57-18.42-17.82-.45-2.41-2.77-4.01-5.17-3.55-2.41.45-4,2.76-3.55,5.17,2.26,12.22,11.62,21.83,23.6,24.55,4.56,11.24,15.37,18.62,27.71,18.62,6.93,0,13.61-2.46,18.92-6.79,5.31,4.34,11.99,6.79,18.92,6.79,4.82,0,9.61-1.17,13.86-3.39,2.17-1.14,3.01-3.82,1.88-5.99-1.14-2.17-3.82-3.01-5.99-1.88Z"/>
    <path class="cls-1" d="M122.49,175.59c0,3.73.66,7.34,1.94,10.76-7.18,7.17-11.46,17.03-11.46,27.45,0,21.36,17.37,38.73,38.73,38.73,2.45,0,4.44-1.99,4.44-4.44s-1.99-4.44-4.44-4.44c-16.46,0-29.86-13.39-29.86-29.86,0-11.45,6.68-22.03,17.02-26.97,2.21-1.05,3.15-3.7,2.09-5.91-1.05-2.21-3.7-3.15-5.91-2.09-1.08.51-2.11,1.09-3.12,1.69-.37-1.6-.56-3.24-.56-4.93,0-5.7,2.17-11.04,5.97-15.06.22.41.44.82.68,1.23.83,1.39,2.3,2.15,3.81,2.15.78,0,1.56-.2,2.28-.63,2.1-1.26,2.78-3.99,1.52-6.09-1.84-3.06-2.81-6.59-2.81-10.19,0-10.93,8.89-19.83,19.83-19.83,2.94,0,5.76.63,8.4,1.86,2.22,1.04,4.86.08,5.9-2.14s.08-4.86-2.14-5.9c-3.82-1.79-7.91-2.7-12.16-2.7-15.83,0-28.7,12.87-28.7,28.7,0,1.47.13,2.94.35,4.38-7.42,5.82-11.79,14.64-11.79,24.2Z"/>
    <path class="cls-1" d="M251.78,149.84c-1.33-2.06-4.08-2.64-6.14-1.31-4.54,2.94-10.62,1.64-13.56-2.9-1.33-2.05-4.08-2.64-6.14-1.31-2.06,1.33-2.64,4.08-1.31,6.14,3.57,5.51,9.58,8.52,15.7,8.52,3.48,0,7-.97,10.13-3,2.06-1.33,2.64-4.08,1.31-6.14Z"/>
    <path class="cls-1" d="M242.7,214.04c1.72-4.68,1.52-9.75-.57-14.29-1.03-2.22-3.66-3.2-5.89-2.17-2.22,1.03-3.19,3.66-2.17,5.89,1.1,2.38,1.21,5.04.3,7.5-.9,2.46-2.71,4.41-5.09,5.51-2.22,1.03-3.2,3.66-2.17,5.89.75,1.62,2.35,2.58,4.03,2.58.62,0,1.25-.13,1.86-.41,4.53-2.09,7.98-5.82,9.7-10.5Z"/>
    <path class="cls-1" d="M233.88,260.55c2.37-.64,3.77-3.07,3.13-5.44-.64-2.37-3.07-3.76-5.44-3.13-4.82,1.3-8.85,4.39-11.33,8.72-2.49,4.32-3.14,9.36-1.84,14.18.53,1.98,2.32,3.28,4.28,3.28.38,0,.77-.05,1.16-.15,2.37-.64,3.77-3.07,3.13-5.44-.68-2.53-.34-5.18.97-7.44,1.31-2.27,3.42-3.89,5.95-4.58Z"/>
    <path class="cls-1" d="M180.34,132.46c-9.59,0-17.39,7.8-17.39,17.39,0,2.45,1.99,4.44,4.44,4.44s4.44-1.99,4.44-4.44c0-4.7,3.82-8.52,8.52-8.52,2.45,0,4.44-1.99,4.44-4.44s-1.99-4.44-4.44-4.44Z"/>
    <path class="cls-1" d="M163.58,222.77c.21.03.41.04.62.04,2.18,0,4.08-1.61,4.39-3.82,1.32-9.5-5.33-18.3-14.82-19.63-2.44-.35-4.67,1.35-5.01,3.78-.34,2.43,1.35,4.67,3.78,5.01,4.65.65,7.91,4.96,7.26,9.61-.34,2.43,1.35,4.67,3.78,5.01Z"/>
    <path class="cls-1" d="M183.35,270.99c.21.03.41.04.62.04,2.18,0,4.08-1.61,4.39-3.83.64-4.6-.55-9.18-3.35-12.88-2.8-3.71-6.88-6.1-11.48-6.74-2.43-.34-4.67,1.36-5.01,3.78-.34,2.43,1.36,4.67,3.78,5.01,2.26.31,4.25,1.49,5.62,3.3,1.37,1.81,1.95,4.06,1.64,6.31-.34,2.43,1.35,4.67,3.78,5.01Z"/>
    <path class="cls-1" d="M123.5,284.92l-22.81,12.83c-1.24.7-2.07,1.94-2.23,3.35-.17,1.41.35,2.81,1.4,3.78l6.94,6.41-18.12,8.29c-2.23,1.02-3.21,3.65-2.19,5.88.75,1.63,2.35,2.59,4.04,2.59.62,0,1.24-.13,1.84-.4l24.18-11.06c1.35-.62,2.3-1.87,2.54-3.33s-.28-2.95-1.37-3.96l-7.36-6.79,17.5-9.84c2.13-1.2,2.89-3.91,1.69-6.04-1.2-2.14-3.9-2.89-6.04-1.69Z"/>
    <path class="cls-1" d="M97.77,206.77c2.36.67,4.81-.71,5.47-3.07.66-2.36-.72-4.81-3.07-5.47l-25.2-7.06c-1.36-.38-2.83-.09-3.95.79s-1.74,2.24-1.68,3.66l.38,9.44-18.67-6.95c-2.3-.85-4.85.32-5.71,2.61-.85,2.3.31,4.85,2.61,5.71l24.92,9.28c.5.19,1.03.28,1.55.28.92,0,1.83-.29,2.6-.84,1.2-.87,1.89-2.29,1.83-3.77l-.4-10.01,19.33,5.42Z"/>
    <path class="cls-1" d="M99.28,107.66c.62,1.35,1.87,2.3,3.33,2.54,1.47.23,2.95-.28,3.96-1.37l6.79-7.36,9.84,17.5c.81,1.45,2.32,2.26,3.87,2.26.74,0,1.48-.18,2.17-.57,2.14-1.2,2.89-3.91,1.69-6.04l-12.83-22.81c-.7-1.24-1.94-2.07-3.35-2.23-1.41-.17-2.81.35-3.78,1.4l-6.41,6.94-8.29-18.12c-1.02-2.23-3.65-3.21-5.88-2.19-2.23,1.02-3.21,3.65-2.19,5.88l11.06,24.18Z"/>
    <path class="cls-1" d="M315.33,319.57l-18.12-8.29,6.94-6.41c1.04-.96,1.56-2.37,1.4-3.78-.16-1.41-.99-2.65-2.23-3.35l-22.81-12.83c-2.14-1.2-4.84-.44-6.04,1.69-1.2,2.14-.44,4.84,1.69,6.04l17.5,9.84-7.36,6.79c-1.09,1.01-1.61,2.49-1.37,3.96s1.19,2.72,2.54,3.33l24.18,11.06c.6.27,1.22.4,1.84.4,1.68,0,3.29-.96,4.04-2.59,1.02-2.23.04-4.86-2.19-5.88Z"/>
    <path class="cls-1" d="M358.67,200.71c-.85-2.29-3.4-3.46-5.71-2.61l-18.67,6.95.37-9.44c.06-1.42-.57-2.78-1.68-3.66-1.11-.88-2.58-1.17-3.95-.79l-25.2,7.06c-2.36.66-3.74,3.11-3.07,5.47.66,2.36,3.11,3.74,5.47,3.07l19.33-5.42-.4,10.01c-.06,1.48.63,2.9,1.83,3.77.77.56,1.68.84,2.6.84.52,0,1.05-.09,1.55-.28l24.92-9.28c2.3-.86,3.46-3.41,2.61-5.71Z"/>
    <path class="cls-1" d="M274.75,120.66c.69.39,1.43.57,2.17.57,1.55,0,3.06-.81,3.87-2.26l9.84-17.5,6.79,7.36c1.01,1.09,2.49,1.6,3.96,1.37,1.47-.23,2.72-1.19,3.33-2.54l11.06-24.18c1.02-2.23.04-4.86-2.19-5.88-2.23-1.02-4.86-.04-5.88,2.19l-8.29,18.12-6.41-6.94c-.96-1.04-2.36-1.56-3.78-1.4-1.41.17-2.65.99-3.35,2.23l-12.83,22.81c-1.2,2.13-.44,4.84,1.69,6.04Z"/>
  </g>
</svg>