<?xml version="1.0" encoding="UTF-8"?>
<svg id="Layer_1" data-name="Layer 1" xmlns="http://www.w3.org/2000/svg" viewBox="0 0 400 400">
  <defs>
    <style>
      .cls-1 {
        fill: #b54c70;
      }
    </style>
  </defs>
  <path class="cls-1" d="M200,386.56c-102.87,0-186.56-83.69-186.56-186.56S97.13,13.44,200,13.44s186.56,83.69,186.56,186.56-83.69,186.56-186.56,186.56ZM200,20.81C101.19,20.81,20.81,101.19,20.81,200s80.38,179.19,179.19,179.19,179.19-80.38,179.19-179.19S298.81,20.81,200,20.81Z"/>
  <path class="cls-1" d="M296.63,240.2h-2.37c-10.57,0-19.16,6.81-19.16,15.18s8.6,15.18,19.16,15.18h2.37c10.57,0,19.16-6.81,19.16-15.18s-8.6-15.18-19.16-15.18ZM296.63,262.09h-2.37c-6.31,0-10.7-3.54-10.7-6.72s4.39-6.72,10.7-6.72h2.37c6.31,0,10.7,3.54,10.7,6.72s-4.39,6.72-10.7,6.72ZM251.09,255.38c0-8.37-8.6-15.18-19.16-15.18h-2.37c-10.57,0-19.16,6.81-19.16,15.18s8.6,15.18,19.16,15.18h2.37c10.57,0,19.16-6.81,19.16-15.18ZM231.93,262.09h-2.37c-6.31,0-10.7-3.54-10.7-6.72s4.39-6.72,10.7-6.72h2.37c6.31,0,10.7,3.54,10.7,6.72s-4.39,6.72-10.7,6.72ZM186.39,255.38c0-8.37-8.6-15.18-19.16-15.18h-2.37c-10.57,0-19.16,6.81-19.16,15.18s8.6,15.18,19.16,15.18h2.37c10.57,0,19.16-6.81,19.16-15.18ZM167.23,262.09h-2.37c-6.31,0-10.7-3.54-10.7-6.72s4.39-6.72,10.7-6.72h2.37c6.31,0,10.7,3.54,10.7,6.72s-4.39,6.72-10.7,6.72ZM121.7,255.38c0-8.37-8.6-15.18-19.16-15.18h-2.37c-10.57,0-19.16,6.81-19.16,15.18s8.6,15.18,19.16,15.18h2.37c10.57,0,19.16-6.81,19.16-15.18ZM102.54,262.09h-2.37c-6.31,0-10.7-3.54-10.7-6.72s4.39-6.72,10.7-6.72h2.37c6.31,0,10.7,3.54,10.7,6.72s-4.39,6.72-10.7,6.72ZM261.05,281.67h-2.37c-10.57,0-19.16,6.81-19.16,15.18s8.59,15.18,19.16,15.18h2.37c10.57,0,19.16-6.81,19.16-15.18s-8.59-15.18-19.16-15.18ZM261.05,303.56h-2.37c-6.31,0-10.7-3.54-10.7-6.72s4.39-6.72,10.7-6.72h2.37c6.31,0,10.7,3.54,10.7,6.72s-4.39,6.72-10.7,6.72ZM196.35,281.67h-2.37c-10.57,0-19.16,6.81-19.16,15.18s8.59,15.18,19.16,15.18h2.37c10.57,0,19.16-6.81,19.16-15.18s-8.59-15.18-19.16-15.18ZM196.35,303.56h-2.37c-6.31,0-10.7-3.54-10.7-6.72s4.39-6.72,10.7-6.72h2.37c6.31,0,10.7,3.54,10.7,6.72s-4.39,6.72-10.7,6.72ZM131.66,281.67h-2.37c-10.57,0-19.16,6.81-19.16,15.18s8.59,15.18,19.16,15.18h2.37c10.57,0,19.16-6.81,19.16-15.18s-8.59-15.18-19.16-15.18ZM131.66,303.56h-2.37c-6.31,0-10.7-3.54-10.7-6.72s4.39-6.72,10.7-6.72h2.37c6.31,0,10.7,3.54,10.7,6.72s-4.39,6.72-10.7,6.72ZM331.72,219.59c0,2.75-2.23,4.98-4.98,4.98h-74.26v-9.95h74.26c2.75,0,4.98,2.23,4.98,4.98ZM153.79,224.56h-80.54c-2.75,0-4.98-2.23-4.98-4.98s2.23-4.98,4.98-4.98h80.54v9.95ZM270.74,191.57h56.01c2.75,0,4.98,2.23,4.98,4.98s-2.23,4.98-4.98,4.98h-56.01v-9.95ZM68.28,196.55c0-2.75,2.23-4.98,4.98-4.98h63.95v9.95h-63.95c-2.75,0-4.98-2.23-4.98-4.98ZM170.81,159.14s.08,0,.12,0c.21,0,.38-.09.58-.11.23.03.43.13.66.13h.08c10.01-.16,19.17-4.11,25.11-10.83,5.65-6.38,8.1-14.79,7.07-24.48-2.86-20.56-26.84-56.45-27.86-57.97-1.15-1.71-3.18-2.48-5.09-2.11-1.61-.01-3.19.66-4.16,2.08-1.03,1.51-25.22,37.16-28.31,57.9-1.12,9.55,1.23,17.98,6.8,24.39,5.86,6.75,14.97,10.76,24.99,11ZM148.89,125.06c2.08-13.93,16.23-37.4,23.03-48.05,6.73,10.69,20.74,34.26,22.65,48.04.72,6.77-.84,12.39-4.64,16.68-4.1,4.63-10.6,7.36-17.82,7.47-.18,0-.33.09-.5.11-.19-.03-.35-.12-.55-.12-7.23-.18-13.68-2.94-17.71-7.58-3.74-4.31-5.23-9.93-4.45-16.56ZM160.92,142.6c-6.59-5.86-8.81-15.74-5.53-24.58.86-2.32,3.45-3.49,5.76-2.64,2.32.86,3.5,3.44,2.64,5.76-2.32,6.25-.13,11.92,3.08,14.77,1.85,1.64,2.02,4.48.37,6.32-.88,1-2.11,1.5-3.35,1.5-1.06,0-2.12-.37-2.97-1.13ZM224.23,206.08c2.4-.59,4.82.9,5.4,3.3.58,2.41-.9,4.83-3.3,5.4-4.53,1.09-9.09,1.62-13.59,1.62-19.44,0-37.91-9.79-48.79-26.15l-3.03,7.61c-.7,1.75-2.38,2.82-4.16,2.82-.55,0-1.11-.1-1.65-.32-2.3-.91-3.42-3.52-2.5-5.82l6.3-15.81c.89-2.23,3.36-3.33,5.62-2.54.43-.03.87-.07,1.32.03l15.38,3.38c2.42.53,3.94,2.92,3.41,5.34-.46,2.09-2.31,3.52-4.37,3.52-.32,0-.64-.03-.97-.11l-6.78-1.49c11.58,16.01,31.98,23.96,51.71,19.21ZM217.2,103.81c.41-2.44,2.69-4.09,5.15-3.68,24.42,4.07,43.35,23.19,47.81,46.98l5.79-5.85c1.74-1.75,4.58-1.77,6.33-.03,1.76,1.74,1.77,4.58.03,6.33l-11.98,12.1c-.87.88-2.03,1.33-3.18,1.33-1.02,0-2.02-.4-2.85-1.09-.47-.14-.92-.34-1.34-.64l-12.83-9.12c-2.02-1.43-2.49-4.23-1.06-6.25,1.43-2.02,4.23-2.5,6.25-1.05l5.65,4.02c-4.41-19.26-20.08-34.55-40.1-37.89-2.44-.41-4.09-2.71-3.68-5.15Z"/>
</svg>