<?xml version="1.0" encoding="UTF-8"?>
<svg id="Layer_1" data-name="Layer 1" xmlns="http://www.w3.org/2000/svg" viewBox="0 0 400 400">
  <defs>
    <style>
      .cls-1 {
        fill: #f57e25;
      }
    </style>
  </defs>
  <path class="cls-1" d="M200,384.06c-101.49,0-184.05-82.57-184.05-184.06S98.51,15.94,200,15.94s184.06,82.57,184.06,184.05-82.57,184.06-184.06,184.06ZM200,23.21C102.52,23.21,23.21,102.52,23.21,200s79.31,176.79,176.79,176.79,176.79-79.31,176.79-176.79S297.48,23.21,200,23.21Z"/>
  <g>
    <path class="cls-1" d="M122.19,255.46c-1.06,0-2.14-.09-3.22-.29-9.92-1.77-16.55-11.28-14.78-21.2.86-4.81,3.54-8.99,7.54-11.78,4-2.79,8.86-3.86,13.66-3,4.81.86,8.99,3.54,11.78,7.54,2.79,4,3.85,8.86,3,13.66h0c-1.58,8.84-9.3,15.06-17.98,15.06ZM122.16,226.93c-2.08,0-4.1.63-5.84,1.84-2.25,1.57-3.75,3.91-4.23,6.61-.99,5.56,2.72,10.9,8.29,11.89,5.56,1,10.9-2.72,11.89-8.29h0c.48-2.7-.12-5.42-1.68-7.66-1.57-2.25-3.91-3.75-6.61-4.23-.61-.11-1.22-.16-1.83-.16Z"/>
    <path class="cls-1" d="M277,283.48c-3.03,0-6.02-.76-8.75-2.25-4.28-2.34-7.39-6.21-8.77-10.9-2.83-9.67,2.74-19.84,12.41-22.67,4.69-1.37,9.62-.83,13.91,1.51s7.39,6.22,8.77,10.9.83,9.62-1.51,13.91c-2.34,4.28-6.22,7.4-10.9,8.77-1.7.5-3.43.74-5.16.74ZM277.04,254.94c-.97,0-1.94.14-2.89.42-5.42,1.59-8.55,7.29-6.96,12.72.77,2.63,2.51,4.8,4.92,6.11,2.4,1.31,5.17,1.61,7.8.85,2.63-.77,4.8-2.51,6.11-4.92,1.31-2.4,1.61-5.17.85-7.8h0c-.77-2.63-2.51-4.8-4.92-6.11-1.53-.84-3.21-1.26-4.91-1.26Z"/>
    <path class="cls-1" d="M123.96,279.28c-18.81,0-32.82-4.5-41.69-13.4-9.17-9.2-10.19-20.33-9.93-26.34-1.17-11.76,2.28-35.05,23.68-41.12,7.2-2.04,14.35-5.21,21.26-8.27,16.29-7.22,31.68-14.04,43.88-4.01,10.08,8.29,15.81,37.7,7.82,61.8-6.37,19.21-20.18,30.29-38.89,31.19-2.1.1-4.14.15-6.13.15ZM146.62,189.18c-7.34,0-16.26,3.95-26.09,8.31-7.17,3.18-14.58,6.46-22.32,8.66-20.55,5.83-17.89,32.58-17.86,32.85.02.21.03.43.02.64-.24,4.61.44,13.41,7.58,20.59,8.14,8.17,22.19,11.83,41.75,10.9,19.43-.93,27.94-14.49,31.66-25.7,7.01-21.13,1.81-47.23-5.3-53.07-2.73-2.24-5.9-3.17-9.44-3.17Z"/>
    <path class="cls-1" d="M267.36,317.32c-1.76,0-3.55-.08-5.36-.26-14.06-1.39-27.84-11.26-34.28-24.57-6.31-13.04-5.07-27.55,3.48-40.88,5.94-9.25,6.97-22.49,7.89-34.17,1.11-14.17,2.15-27.56,12.37-31.35,18.33-6.8,49.34,18.54,64.81,45.74,16.29,28.64,14,54.47-6.31,70.87-.04.03-.07.06-.11.09-.85.64-19.64,14.53-42.48,14.53ZM258,193.01c-1.38,0-2.64.2-3.75.61-5.4,2-6.25,12.91-7.16,24.45-.99,12.62-2.1,26.93-9.13,37.88-8.96,13.95-6.58,25.67-3.01,33.04,5.27,10.89,16.46,18.95,27.84,20.08,21.5,2.12,41.07-11.85,42.19-12.66,23.09-18.72,12.62-46,4.31-60.6-14.31-25.16-38.29-42.79-51.29-42.79ZM307.43,299.59h.01-.01Z"/>
    <g>
      <path class="cls-1" d="M204.59,145.17c-10.08,0-18.28-8.2-18.28-18.28s8.2-18.28,18.28-18.28,18.28,8.2,18.28,18.28-8.2,18.28-18.28,18.28ZM204.59,116.64c-5.65,0-10.25,4.6-10.25,10.25s4.6,10.25,10.25,10.25,10.25-4.6,10.25-10.25-4.6-10.25-10.25-10.25Z"/>
      <path class="cls-1" d="M243.37,177.77c-4.48,0-9.2-.81-13.98-2.45-26.88-9.24-49.87-4.36-50.1-4.31-.19.04-.38.07-.58.08-11.81.87-22.66-2.43-29.76-9.03-5.63-5.24-8.61-12.09-8.61-19.81,0-24,16.12-52.59,51.51-58.65,35.94-6.15,65.91,19.52,78.54,45.99,6.55,13.72,5.2,28.32-3.51,38.1-5.92,6.63-14.22,10.09-23.5,10.09ZM195.18,161.61c9.75,0,22.71,1.28,36.81,6.12,11.54,3.96,22.34,1.95,28.88-5.39,6.53-7.32,7.39-18.54,2.26-29.3-11.73-24.58-39.53-46.75-69.94-41.53-30.8,5.28-44.83,30-44.83,50.74,0,5.43,2.09,10.25,6.05,13.93,5.42,5.04,13.96,7.57,23.44,6.93,1.52-.31,7.92-1.5,17.32-1.5ZM178.42,167.09h.01-.01Z"/>
    </g>
    <path class="cls-1" d="M106,161.77c-.1,0-.2,0-.3-.01l-19.49-1.46c-2.21-.16-3.87-2.09-3.7-4.3.17-2.21,2.1-3.87,4.3-3.7l19.49,1.46c2.21.16,3.87,2.09,3.7,4.3-.16,2.11-1.92,3.71-4,3.71Z"/>
    <path class="cls-1" d="M117.12,138.31c-1.13,0-2.25-.47-3.04-1.4l-12.75-14.82c-1.45-1.68-1.26-4.21.42-5.66,1.68-1.44,4.21-1.26,5.66.42l12.75,14.82c1.45,1.68,1.26,4.21-.42,5.66-.76.65-1.69.97-2.62.97Z"/>
    <path class="cls-1" d="M291.75,155.86c-.91,0-1.82-.3-2.57-.93-1.7-1.42-1.93-3.95-.52-5.65l12.51-15.02c1.42-1.7,3.95-1.93,5.65-.52,1.7,1.42,1.93,3.95.52,5.65l-12.51,15.02c-.79.95-1.94,1.44-3.09,1.44Z"/>
    <path class="cls-1" d="M304.38,178.54c-2.05,0-3.8-1.57-3.99-3.65-.2-2.21,1.42-4.16,3.63-4.36l19.47-1.78c2.2-.22,4.16,1.42,4.36,3.63.2,2.21-1.42,4.16-3.63,4.36l-19.47,1.78c-.12.01-.25.02-.37.02Z"/>
  </g>
</svg>