<?xml version="1.0" encoding="UTF-8"?>
<svg id="Layer_1" data-name="Layer 1" xmlns="http://www.w3.org/2000/svg" viewBox="0 0 600 115.62">
  <defs>
    <style>
      .cls-1 {
        fill: #d2b885;
      }
    </style>
  </defs>
  <g id="Group_15" data-name="Group 15">
    <path id="Path_29" data-name="Path 29" class="cls-1" d="M57.22,7.56l-12.69,39.03H3.48l33.21,24.13-12.69,39.06,33.21-24.13,33.21,24.13-12.69-39.03,33.21-24.16h-41.05L57.22,7.56Z"/>
    <path id="Path_30" data-name="Path 30" class="cls-1" d="M176,7.56l-12.69,39.03h-41.05l33.21,24.13-12.69,39.03,33.21-24.13,33.21,24.13-12.69-39.03,33.21-24.13h-41.04l-12.69-39.03Z"/>
    <path id="Path_31" data-name="Path 31" class="cls-1" d="M294.79,7.56l-12.69,39.03h-41.05l33.21,24.13-12.69,39.03,33.21-24.13,33.21,24.13-12.69-39.03,33.21-24.13h-41.04l-12.69-39.03Z"/>
    <path id="Path_32" data-name="Path 32" class="cls-1" d="M416.81,7.56l-12.69,39.03h-41.05l33.21,24.13-12.69,39.03,33.21-24.13,33.21,24.13-12.68-39.03,33.21-24.13h-41.05l-12.69-39.03Z"/>
    <path id="Path_33" data-name="Path 33" class="cls-1" d="M539.27,7.56l-12.69,39.03h-41.05l33.21,24.13-12.69,39.03,33.21-24.13,33.21,24.13-12.69-39.03,33.21-24.13h-41.05l-12.68-39.03Z"/>
  </g>
</svg>