<?xml version="1.0" encoding="UTF-8"?>
<svg id="Layer_1" data-name="Layer 1" xmlns="http://www.w3.org/2000/svg" viewBox="0 0 150 150">
  <defs>
    <style>
      .cls-1 {
        fill: #d2b886;
        stroke-width: 0px;
      }
    </style>
  </defs>
  <path class="cls-1" d="m35.72,50.82c-1.34-.78-3.06-.32-3.83,1.02l-5.43,9.36c-.25.43-.38.96-.38,1.46s.13.98.38,1.41l5.47,9.46c.52.9,1.46,1.4,2.43,1.4.48,0,.96-.12,1.4-.38,1.34-.78,1.8-2.49,1.02-3.83l-4.67-8.08,4.63-7.98c.78-1.34.32-3.06-1.02-3.83Z"/>
  <path class="cls-1" d="m74.52,87.09c.44.25.93.38,1.4.38.97,0,1.91-.5,2.43-1.4l5.02-8.68h10.2c1.55,0,2.8-1.25,2.8-2.8s-1.25-2.81-2.8-2.81h-11.82c-1,0-1.93.54-2.43,1.4l-5.83,10.07c-.78,1.34-.32,3.06,1.02,3.84Z"/>
  <path class="cls-1" d="m138.59,79.51c-3.53,0-6.53,2.26-7.66,5.41h-11.91l-13.78-23.83c-.5-.87-1.43-1.4-2.43-1.4h-14.57c-1.55,0-2.8,1.25-2.8,2.8s1.25,2.8,2.8,2.8h12.95l13,22.49-13.02,22.48h-26.01l-12.87-22.78,13.53-23.34c.05-.08.08-.16.11-.24v-.02s.05-.1.08-.15c.18-.36.28-.74.3-1.13.05-.56-.07-1.14-.36-1.65l-13.77-23.86,2.22-3.89c.61.13,1.25.21,1.9.21,4.95,0,8.98-4.02,8.98-8.97s-4.03-9-8.98-9-8.97,4.04-8.97,9c0,2.27.85,4.34,2.25,5.92l-2.25,3.95h-26.4l-7.63-13.13c1.17-1.41,1.88-3.23,1.88-5.21,0-4.49-3.66-8.14-8.15-8.14s-8.16,3.65-8.16,8.14,3.66,8.16,8.16,8.16c.48,0,.96-.05,1.42-.13l7.83,13.48-13.64,23.59c-.25.43-.38,1.04-.38,1.53s.13.98.38,1.41l13.8,23.87-8.18,14.9c-.4-.06-.81-.1-1.23-.1-4.5,0-8.16,3.66-8.16,8.16s3.66,8.14,8.16,8.14,8.15-3.65,8.15-8.14c0-2.05-.76-3.92-2.01-5.35l8.15-14.83h12.99c1.55,0,2.81-1.26,2.81-2.8s-1.25-2.8-2.81-2.8h-13.03l-13-22.5,13.1-22.62h25.97l12.99,22.5-13.68,23.64c-.09.15-.15.3-.21.46-.01.04-.03.08-.04.12-.05.15-.09.31-.11.47,0,.02,0,.04,0,.05-.02.14-.02.29-.01.43,0,.04,0,.08,0,.12.01.16.04.31.08.47,0,.02.01.03.02.05.04.13.09.26.14.39.02.05.04.09.07.14.02.03.03.06.04.09l13.74,24.32-2.55,4.45c-.53-.11-1.08-.17-1.64-.17-4.5,0-8.16,3.66-8.16,8.15s3.66,8.15,8.16,8.15,8.15-3.65,8.15-8.15c0-1.9-.66-3.64-1.74-5.02l2.7-4.71h26.28l6.78,10.59c-1.53,1.76-2.46,4.05-2.46,6.56,0,5.52,4.49,10.01,10.01,10.01s10.03-4.49,10.03-10.01-4.5-10.03-10.03-10.03c-.99,0-1.94.15-2.84.42l-6.83-10.66,12.87-22.22h11.88c1.16,3.08,4.14,5.27,7.62,5.27,4.5,0,8.16-3.65,8.16-8.14s-3.66-8.16-8.16-8.16ZM14.48,15.98c0-1.4,1.14-2.53,2.55-2.53s2.54,1.13,2.54,2.53-1.14,2.55-2.54,2.55-2.55-1.14-2.55-2.55Zm5.09,94.86c0,1.39-1.14,2.53-2.54,2.53s-2.55-1.14-2.55-2.53,1.14-2.55,2.55-2.55,2.54,1.14,2.54,2.55ZM62.94,24.46c0-1.87,1.51-3.39,3.36-3.39s3.37,1.52,3.37,3.39c0,1.38-.84,2.56-2.03,3.08-.41.18-.87.28-1.34.28-1.85,0-3.36-1.5-3.36-3.35,0,0,0,0,0-.01Zm53.46,104.18c2.2.25,3.92,2.12,3.92,4.39,0,2.43-1.98,4.4-4.42,4.4s-4.4-1.97-4.4-4.4c0-.46.07-.91.2-1.33.56-1.79,2.23-3.1,4.2-3.1.17,0,.33.01.5.03Zm-47.68-3.03c0,1.4-1.14,2.54-2.54,2.54s-2.55-1.14-2.55-2.54,1.15-2.54,2.55-2.54,2.54,1.14,2.54,2.54Zm69.87-40.49c1.41,0,2.55,1.14,2.55,2.55s-1.14,2.53-2.55,2.53-2.54-1.13-2.54-2.53,1.14-2.55,2.54-2.55Z"/>
</svg>