<?xml version="1.0" encoding="UTF-8"?>
<svg id="Layer_1" data-name="Layer 1" xmlns="http://www.w3.org/2000/svg" viewBox="0 0 400 400">
  <defs>
    <style>
      .cls-1 {
        fill: #345c9f;
      }
    </style>
  </defs>
  <path class="cls-1" d="M200,386.47c-102.82,0-186.47-83.65-186.47-186.47S97.18,13.53,200,13.53s186.47,83.65,186.47,186.47-83.65,186.47-186.47,186.47ZM200,20.89C101.24,20.89,20.89,101.24,20.89,200s80.35,179.11,179.11,179.11,179.11-80.35,179.11-179.11S298.76,20.89,200,20.89Z"/>
  <path class="cls-1" d="M275.13,128.16c2.73,0,4.95-2.22,4.95-4.95l-.03-30.04c-.01-.18-.02-.36-.05-.53-.03-.15-.07-.3-.11-.45-.04-.16-.09-.32-.14-.47-.06-.15-.13-.3-.21-.45-.07-.14-.14-.27-.22-.4-.1-.15-.21-.3-.32-.44l-.27-.33c-.12-.13-.26-.25-.4-.37-.17-.15-.25-.22-.34-.28-.11-.08-.22-.14-.33-.2l-.2-.11c-.1-.06-.2-.12-.3-.16-.1-.05-.21-.08-.32-.12l-.22-.07c-.12-.04-.25-.09-.37-.12-.1-.02-.2-.03-.3-.05-.32-.04-.5-.07-.68-.07l-.05-.93h0l-.15.91h-29.68c-2.73,0-4.95,2.23-4.95,4.96s2.22,4.95,4.95,4.95h16.72l-136.83,121.73c-1.39,1.23-1.97,3.11-1.51,4.91.45,1.8,1.85,3.18,3.66,3.61l36.94,8.79-43,76.47c-1.18,2.1-.69,4.74,1.18,6.26,1.8,1.48,4.61,1.44,6.37-.09l113.42-97.97c1.42-1.23,2.02-3.12,1.57-4.94-.45-1.82-1.87-3.22-3.7-3.63l-37.03-8.46,33.4-39.13c.86-1.01,1.28-2.29,1.17-3.61-.1-1.32-.72-2.52-1.72-3.38-1.01-.86-2.29-1.28-3.61-1.17-1.32.1-2.52.72-3.38,1.72l-38.72,45.35c-1.12,1.31-1.48,3.14-.94,4.77.54,1.63,1.92,2.89,3.6,3.27l35.47,8.1-84.57,73.05,32.33-57.5c.76-1.35.84-3,.22-4.41-.62-1.42-1.89-2.48-3.39-2.83l-34.08-8.11,131.21-116.73v18.71c0,2.73,2.22,4.95,4.95,4.95Z"/>
</svg>