<?xml version="1.0" encoding="UTF-8"?>
<svg id="Layer_1" data-name="Layer 1" xmlns="http://www.w3.org/2000/svg" viewBox="0 0 400 400">
  <defs>
    <style>
      .cls-1 {
        fill: #d2b886;
      }
    </style>
  </defs>
  <path class="cls-1" d="M162.65,199.57c0,23.34,18.99,42.33,42.33,42.33s42.33-18.99,42.33-42.33-18.99-42.33-42.33-42.33-42.33,18.99-42.33,42.33ZM204.99,226.56c-14.88,0-26.98-12.11-26.98-26.99s12.11-26.98,26.98-26.98,26.99,12.11,26.99,26.98-12.11,26.99-26.99,26.99Z"/>
  <path class="cls-1" d="M51.63,164.65c9.95,13.02,23.17,26.71,39.3,40.72,7.03,6.09,14.61,12.22,22.52,18.21,1.34,1.02,2.95,1.56,4.63,1.56,2.43,0,4.66-1.11,6.12-3.04,1.24-1.63,1.76-3.65,1.48-5.68-.28-2.03-1.33-3.83-2.97-5.07-7.66-5.8-14.97-11.71-21.73-17.56-14.56-12.65-27.11-25.55-36.3-37.35,4.55-5.11,7.06-11.63,7.06-18.43,0-14.11-10.42-25.83-24.34-27.53.22-.52.46-1.01.73-1.47,8.95-15.53,49.08-14.16,99.84,3.4,17.32,5.99,35.36,13.62,53.61,22.66,10.3,5.11,20.75,10.71,31.04,16.65,10.11,5.83,20.17,12.07,29.92,18.54,10.54,7.02,20.64,14.3,30.03,21.62,1.34,1.05,3.02,1.62,4.72,1.62,2.38,0,4.59-1.08,6.05-2.95,1.26-1.62,1.82-3.63,1.56-5.66-.25-2.04-1.28-3.85-2.89-5.11-9.7-7.57-20.12-15.07-30.97-22.3-10-6.65-20.34-13.06-30.75-19.06-10.6-6.11-21.33-11.86-31.89-17.1-16.52-8.19-33.03-15.3-49.07-21.15,10.5-49.66,28.41-81.72,45.66-81.72,14.39,0,29.95,23.41,40.61,61.09,1.15,4.07,5.4,6.44,9.47,5.3,1.97-.56,3.61-1.85,4.61-3.64,1-1.79,1.24-3.86.69-5.83C247.19,28.76,227.52,3.1,204.99,3.1c-25.68,0-47.64,33.54-60.29,92.04-57-18.29-97.03-16.04-109.86,6.2-2.1,3.64-3.39,7.74-3.85,12.2-9.09,4.85-14.73,14.2-14.73,24.47,0,15.3,12.44,27.74,27.74,27.74,2.57,0,5.13-.37,7.63-1.09ZM31.61,138.01c0-6.83,5.56-12.39,12.39-12.39s12.39,5.56,12.39,12.39-5.56,12.39-12.39,12.39-12.39-5.56-12.39-12.39Z"/>
  <path class="cls-1" d="M271.7,265.58c.25-2.03-.31-4.04-1.57-5.66-1.26-1.62-3.08-2.64-5.11-2.89-2.03-.25-4.04.31-5.66,1.57-1.61,1.26-2.64,3.08-2.89,5.11-1.22,9.95-2.73,19.65-4.51,28.82-3.57,18.51-8.11,34.78-13.48,48.39-2.17-.54-4.38-.81-6.58-.81-15.3,0-27.74,12.44-27.74,27.74,0,4.4,1.06,8.76,3.08,12.65-.76.13-1.51.19-2.25.19-17.93,0-36.81-35.43-46.97-88.16-3.47-17.94-5.88-37.37-7.17-57.76-.74-11.43-1.12-23.27-1.12-35.21s.38-23.78,1.12-35.21c.67-10.6,1.66-21.08,2.94-31.15.26-2.03-.29-4.04-1.55-5.66-1.26-1.62-3.07-2.66-5.1-2.92-2.03-.27-4.04.29-5.67,1.54-1.62,1.26-2.66,3.07-2.92,5.1-1.32,10.38-2.34,21.18-3.03,32.1-.76,11.77-1.15,23.95-1.15,36.19s.39,24.43,1.15,36.18c1.17,18.45,3.26,36.3,6.21,53.07-48.27,15.73-84.99,16.25-93.61,1.31-7.11-12.31,5.06-37.16,31.77-64.87,1.42-1.48,2.18-3.42,2.15-5.47-.04-2.05-.87-3.96-2.35-5.38-1.44-1.39-3.32-2.15-5.32-2.15-.05,0-.1,0-.14,0-2.05.04-3.96.87-5.38,2.34-33.09,34.33-45.17,63.88-34.01,83.19,6.95,12.05,22.32,18.42,44.44,18.42,18.15,0,40.16-4.11,65.42-12.22,12.65,58.5,34.61,92.04,60.29,92.04,4.79,0,9.56-1.21,14.18-3.58,3.94,2.04,8.33,3.12,12.72,3.12,15.3,0,27.74-12.44,27.74-27.74,0-7.17-2.74-13.96-7.73-19.16,6.1-14.93,11.19-32.84,15.13-53.24,1.84-9.52,3.41-19.57,4.67-29.87ZM231.89,355.46c6.83,0,12.39,5.56,12.39,12.39s-5.56,12.39-12.39,12.39-12.39-5.56-12.39-12.39,5.56-12.39,12.39-12.39Z"/>
  <path class="cls-1" d="M325.58,199.57c44.34-40.22,62.4-76,49.57-98.21-1.2-2.1-2.69-4.06-4.43-5.84.13-1.08.19-2.1.19-3.11,0-15.3-12.44-27.74-27.74-27.74-12,0-22.52,7.61-26.29,18.98-17.36,1.77-38.06,6.7-59.89,14.26-7.86,2.72-15.97,5.81-24.1,9.17-1.89.78-3.37,2.26-4.15,4.15s-.79,3.98,0,5.87c1.19,2.88,3.97,4.74,7.09,4.74,1.01,0,2-.2,2.93-.59,7.84-3.25,15.67-6.22,23.25-8.85,19.78-6.85,38.54-11.43,54.28-13.26,3.07,12.19,14.3,20.99,26.88,20.99,7.47,0,14.67-3.05,19.88-8.41,5.29,16.5-16.24,49.27-54.05,82.04-13.79,11.95-29.42,23.76-46.45,35.11-9.74,6.47-19.81,12.72-29.92,18.55-10.3,5.94-20.75,11.54-31.04,16.64-7.22,3.58-14.5,6.98-21.66,10.11-3.88,1.7-5.65,6.23-3.95,10.11,1.22,2.79,3.98,4.6,7.03,4.6,1.06,0,2.1-.22,3.08-.65,7.37-3.23,14.88-6.73,22.32-10.42,10.59-5.25,21.32-11,31.89-17.1,10.41-6,20.76-12.42,30.76-19.07,15.42-10.27,29.84-21.02,42.87-31.93,37.75,33.94,56.56,65.47,47.93,80.41-7.76,13.45-40.02,14.31-82.21,2.19-4.07-1.17-8.33,1.19-9.49,5.26-.57,1.97-.33,4.04.66,5.83.99,1.79,2.63,3.09,4.6,3.66,21.13,6.07,39.75,9.15,55.34,9.15,22.09,0,37.45-6.37,44.4-18.42,12.85-22.23-5.21-58.02-49.55-98.24ZM343.17,104.79c-6.83,0-12.39-5.56-12.39-12.39s5.56-12.39,12.39-12.39,12.39,5.56,12.39,12.39-5.56,12.39-12.39,12.39Z"/>
</svg>