<?xml version="1.0" encoding="UTF-8"?>
<svg id="Layer_1" data-name="Layer 1" xmlns="http://www.w3.org/2000/svg" viewBox="0 0 400 400">
  <defs>
    <style>
      .cls-1 {
        fill: #345c9f;
      }
    </style>
  </defs>
  <g>
    <path class="cls-1" d="M195.06,200.29h-44.95c-1.41,0-2.72-.75-3.42-1.98l-22.48-38.93c-.71-1.22-.71-2.73,0-3.95l22.48-38.93c.7-1.22,2.01-1.98,3.42-1.98h44.95c1.41,0,2.72.75,3.42,1.98l22.47,38.93c.71,1.22.71,2.73,0,3.95l-22.47,38.93c-.7,1.22-2.01,1.98-3.42,1.98ZM152.39,192.39h40.39l20.19-34.98-20.19-34.98h-40.39l-20.19,34.98,20.19,34.98Z"/>
    <path class="cls-1" d="M144.79,161.37c-.67,0-1.35-.17-1.97-.53-1.89-1.09-2.54-3.51-1.45-5.4l13.89-24.07c1.09-1.89,3.51-2.55,5.4-1.45,1.89,1.09,2.54,3.51,1.45,5.4l-13.89,24.07c-.73,1.27-2.06,1.98-3.43,1.98Z"/>
    <path class="cls-1" d="M200.37,161.37c-1.37,0-2.7-.71-3.43-1.98l-13.89-24.06c-1.09-1.89-.44-4.3,1.45-5.4,1.89-1.09,4.31-.44,5.4,1.45l13.89,24.06c1.09,1.89.44,4.3-1.45,5.4-.62.36-1.3.53-1.97.53Z"/>
    <path class="cls-1" d="M195.05,122.43c-.72,0-1.44-.19-2.09-.6-1.85-1.16-2.42-3.6-1.26-5.45l12.35-19.77c1.16-1.85,3.61-2.4,5.45-1.25,1.85,1.16,2.42,3.6,1.26,5.45l-12.35,19.77c-.75,1.2-2.04,1.85-3.36,1.85Z"/>
    <path class="cls-1" d="M196.53,298.71h-44.95c-1.41,0-2.72-.75-3.42-1.98l-22.47-38.93c-.71-1.22-.71-2.73,0-3.95l22.47-38.93c.7-1.22,2.01-1.98,3.42-1.98h44.95c1.41,0,2.72.75,3.42,1.98l22.48,38.93c.71,1.22.71,2.73,0,3.95l-22.48,38.93c-.7,1.22-2.01,1.98-3.42,1.98ZM153.86,290.81h40.39l20.19-34.98-20.19-34.98h-40.39l-20.19,34.98,20.19,34.98Z"/>
    <path class="cls-1" d="M201.84,259.79c-1.37,0-2.7-.71-3.43-1.98l-13.89-24.06c-1.09-1.89-.44-4.3,1.45-5.4,1.89-1.09,4.31-.44,5.4,1.45l13.89,24.06c1.09,1.89.44,4.3-1.45,5.4-.62.36-1.3.53-1.97.53Z"/>
    <path class="cls-1" d="M146.26,259.78c-.67,0-1.35-.17-1.97-.53-1.89-1.09-2.54-3.51-1.45-5.4l13.89-24.06c1.08-1.89,3.51-2.55,5.4-1.45,1.89,1.09,2.54,3.51,1.45,5.4l-13.89,24.06c-.73,1.27-2.06,1.98-3.43,1.98Z"/>
    <path class="cls-1" d="M279.67,247.59h-44.95c-1.41,0-2.72-.75-3.42-1.98l-22.47-38.93c-.71-1.22-.71-2.73,0-3.95l22.47-38.93c.7-1.22,2.01-1.98,3.42-1.98h44.95c1.41,0,2.72.75,3.42,1.98l22.48,38.93c.71,1.22.71,2.73,0,3.95l-22.48,38.93c-.7,1.22-2.01,1.98-3.42,1.98ZM237,239.68h40.39l20.19-34.98-20.19-34.98h-40.39l-20.19,34.98,20.19,34.98Z"/>
    <path class="cls-1" d="M284.98,208.66c-1.37,0-2.7-.71-3.43-1.98l-13.89-24.06c-1.09-1.89-.44-4.3,1.45-5.4,1.89-1.09,4.31-.44,5.4,1.45l13.89,24.06c1.09,1.89.44,4.3-1.45,5.4-.62.36-1.3.53-1.97.53Z"/>
    <path class="cls-1" d="M229.41,208.66c-.67,0-1.35-.17-1.97-.53-1.89-1.09-2.54-3.51-1.45-5.4l13.89-24.06c1.09-1.89,3.52-2.54,5.4-1.45,1.89,1.09,2.54,3.51,1.45,5.4l-13.89,24.06c-.73,1.27-2.06,1.98-3.43,1.98Z"/>
    <path class="cls-1" d="M129.24,259.55h-.14l-23.3-.81c-2.18-.08-3.89-1.9-3.81-4.09.07-2.19,1.89-3.92,4.09-3.82l23.3.81c2.18.08,3.89,1.9,3.81,4.09-.07,2.14-1.83,3.82-3.95,3.82Z"/>
    <path class="cls-1" d="M327.04,208.66h-24.9c-2.18,0-3.95-1.77-3.95-3.95s1.77-3.95,3.95-3.95h24.9c2.18,0,3.95,1.77,3.95,3.95s-1.77,3.95-3.95,3.95Z"/>
    <path class="cls-1" d="M291.18,268.77c-1.4,0-2.76-.75-3.48-2.07l-11.5-21.18c-1.04-1.92-.33-4.32,1.59-5.36,1.91-1.05,4.32-.33,5.36,1.59l11.5,21.18c1.04,1.92.33,4.32-1.59,5.36-.6.33-1.24.48-1.88.48Z"/>
    <path class="cls-1" d="M249.59,139.02c-9.48,0-17.19-7.71-17.19-17.19s7.71-17.19,17.19-17.19,17.19,7.71,17.19,17.19-7.71,17.19-17.19,17.19ZM249.59,112.55c-5.12,0-9.28,4.17-9.28,9.28s4.16,9.28,9.28,9.28,9.28-4.17,9.28-9.28-4.16-9.28-9.28-9.28Z"/>
    <path class="cls-1" d="M250.14,294.76c-7.66,0-13.89-6.23-13.89-13.89s6.24-13.89,13.89-13.89,13.9,6.23,13.9,13.89-6.24,13.89-13.9,13.89ZM250.14,274.87c-3.3,0-5.99,2.69-5.99,5.99s2.69,5.99,5.99,5.99,5.99-2.69,5.99-5.99-2.69-5.99-5.99-5.99Z"/>
    <path class="cls-1" d="M105.94,224.74c-11.05,0-20.04-8.99-20.04-20.04s8.99-20.04,20.04-20.04,20.04,8.99,20.04,20.04-8.99,20.04-20.04,20.04ZM105.94,192.57c-6.69,0-12.14,5.45-12.14,12.14s5.44,12.14,12.14,12.14,12.14-5.44,12.14-12.14-5.44-12.14-12.14-12.14Z"/>
  </g>
  <path class="cls-1" d="M200,386.47c-102.82,0-186.47-83.65-186.47-186.47S97.18,13.53,200,13.53s186.47,83.65,186.47,186.47-83.65,186.47-186.47,186.47ZM200,20.89C101.24,20.89,20.89,101.24,20.89,200s80.35,179.11,179.11,179.11,179.11-80.35,179.11-179.11S298.76,20.89,200,20.89Z"/>
</svg>