<?xml version="1.0" encoding="UTF-8"?>
<svg id="Layer_1" data-name="Layer 1" xmlns="http://www.w3.org/2000/svg" viewBox="0 0 400 400">
  <defs>
    <style>
      .cls-1 {
        fill: #fff;
      }

      .cls-2 {
        fill: #8b1ac6;
      }
    </style>
  </defs>
  <circle class="cls-2" cx="200" cy="200" r="189.47"/>
  <g>
    <g>
      <g>
        <path class="cls-1" d="M201.1,168.63h-11.01c-3.2,0-6.35-.85-9.1-2.45l-8.48-4.95c-7.42-4.66-7.59-10.55-7.7-14.44l-.02-.76c0-.08,0-.17,0-.25l.43-18.4c.05-2.28,1.92-4.09,4.22-4.03,2.28.05,4.08,1.94,4.03,4.22l-.43,18.28.02.69c.09,3.24.15,5.38,3.73,7.62l8.36,4.88c1.49.87,3.2,1.33,4.95,1.33h11.01c2.28,0,4.13,1.85,4.13,4.13s-1.85,4.13-4.13,4.13Z"/>
        <path class="cls-1" d="M163.19,313.92c-2.28,0-4.13-1.85-4.13-4.13v-18.77c0-4.34-1.48-8.63-4.18-12.08l-4.85-6.21c-3.95-5.06-6.67-11.05-7.86-17.32l-5.84-30.75c-.83-4.35-3.92-8-8.08-9.53-2.14-.79-3.24-3.16-2.45-5.3.78-2.14,3.15-3.24,5.3-2.45,6.87,2.52,11.98,8.55,13.34,15.74l5.84,30.75c.94,4.98,3.11,9.75,6.25,13.78l4.85,6.21c3.82,4.89,5.92,10.99,5.92,17.15v18.77c0,2.28-1.85,4.13-4.13,4.13Z"/>
        <path class="cls-1" d="M245.19,313.92c-2.28,0-4.13-1.85-4.13-4.13v-18.77c0-6.17,2.1-12.26,5.92-17.15l4.85-6.21c3.14-4.03,5.31-8.79,6.25-13.78l6.3-33.19c1.42-7.48,7.1-13.54,14.48-15.43,2.21-.56,4.46.76,5.03,2.97.57,2.21-.76,4.46-2.97,5.03-4.29,1.1-7.59,4.62-8.42,8.97l-6.3,33.19c-1.19,6.27-3.91,12.25-7.86,17.32l-4.85,6.21c-2.69,3.45-4.18,7.74-4.18,12.08v18.77c0,2.28-1.85,4.13-4.13,4.13Z"/>
      </g>
      <path class="cls-1" d="M180.99,276.92c-1.78,0-3.42-1.16-3.95-2.95-.65-2.18.59-4.48,2.77-5.14l13.56-4.06c6.95-2.08,14.3-2.09,21.25-.02l13.68,4.07c2.18.65,3.43,2.95,2.78,5.13-.65,2.19-2.96,3.42-5.13,2.78l-13.68-4.07c-5.41-1.61-11.13-1.61-16.53.01l-13.56,4.06c-.39.12-.79.18-1.18.18Z"/>
      <g>
        <path class="cls-1" d="M177.92,186.9c-2.9,0-5.74-.91-8.14-2.66-6.04-4.41-15.96-8.56-28.87-3.32-1.01.41-2.14.4-3.14-.01-25.66-10.7-33.45,1.56-33.77,2.09-1.17,1.92-3.68,2.59-5.63,1.45-1.95-1.14-2.64-3.6-1.53-5.56.44-.78,10.99-18.68,42.56-6.23,16.51-5.99,29.1.44,35.24,4.92,1.4,1.02,3.17,1.34,4.87.85,1.62-.46,2.9-1.59,3.51-3.11.39-.95.58-1.96.58-2.99v-7.82c0-2.28,1.85-4.13,4.13-4.13s4.13,1.85,4.13,4.13v7.82c0,2.1-.4,4.15-1.19,6.1-1.58,3.89-4.83,6.78-8.9,7.94-1.27.36-2.57.54-3.85.54Z"/>
        <path class="cls-1" d="M95.52,196.57c-.69,0-1.39-.17-2.04-.54-1.98-1.13-2.67-3.65-1.55-5.63,4.45-7.82,5.14-9.82,4.8-19.99-.07-2.2-.24-4.54-.41-7.02-.71-10.01-1.51-21.37,3.3-30.72,1.04-2.03,3.53-2.82,5.56-1.78,2.03,1.04,2.82,3.53,1.78,5.56-3.76,7.3-3.04,17.42-2.41,26.35.18,2.56.35,4.98.43,7.33.39,11.94-.84,15.49-5.88,24.35-.76,1.34-2.16,2.09-3.59,2.09Z"/>
        <path class="cls-1" d="M121.86,229.2c-.33,0-.66-.04-1-.12-1.01-.25-1.83-.57-2.61-.88-1.74-.69-3.54-1.39-8.67-1.48-14.79-.24-22.2-6.1-28.75-11.27-3.57-2.82-6.66-5.26-10.65-6.52-5.36-1.69-8.97-6.67-9-12.4,0-.06,0-.12,0-.18.85-21.5,19.82-75.19,22.14-78.15,1.79-2.23,3.95-5.12,6.23-8.17,5.3-7.08,8.94-11.87,11.3-13.94,2.48-2.17,6-2.65,8.97-1.22l14.77,7.83c.2.11.4.23.58.37,2.61,2.01,6.71,7.32,3.83,13.26l-6.99,19.59c-.2.56-.52,1.07-.93,1.49-2.82,2.89-5.07,4.25-9.51,3.7-.2-.03-.41-.07-.61-.12l-8.78-2.45c-2.19-.61-3.48-2.89-2.86-5.09.61-2.19,2.89-3.47,5.09-2.86l8.46,2.36c.63.06.8.02.81.01.06-.02.28-.14.88-.71l6.76-18.94c.06-.18.14-.35.23-.52.61-1.16-.69-2.53-1.22-3.02l-14.05-7.45c-1.91,1.7-6.45,7.77-10.1,12.65-2.22,2.97-4.33,5.79-6.13,8.04-2.07,4.55-19.75,53.22-20.6,73.56.04,2.06,1.36,3.89,3.22,4.48,5.43,1.71,9.42,4.86,13.28,7.91,6.05,4.78,11.77,9.3,23.76,9.49,6.63.11,9.48,1.23,11.56,2.05.61.24,1.1.43,1.58.55,2.21.55,3.56,2.79,3.01,5-.47,1.88-2.15,3.13-4,3.13Z"/>
      </g>
      <g>
        <path class="cls-1" d="M230.23,186.07c-1.97,0-3.96-.42-5.82-1.27-4.66-2.12-7.63-6.4-7.95-11.45-.02-.3-.03-.6-.03-.9l-.51-61.15c.09-4.38-1.13-8.23-3.42-10.99-2.31-2.78-5.61-4.28-9.53-4.36l-43.1-.85c-1.7,22.71,6.53,26.92,10.17,28.25h12.7c2.28,0,4.13,1.85,4.13,4.13s-1.85,4.13-4.13,4.13h-13.4c-.45,0-.91-.08-1.34-.22-13.16-4.51-18.53-18.28-15.98-40.94.24-2.09,2-3.67,4.1-3.67h.08l46.93.93c6.29.13,11.87,2.73,15.71,7.33,3.57,4.28,5.46,10.08,5.33,16.32l.51,61.03c0,.15,0,.29.02.43.18,2.83,2.25,4.07,3.13,4.47,1.97.9,4.16.66,5.86-.65,5.65-4.32,15.64-8.25,31.42-2.91,31.46-12.46,42.53,4.23,42.99,4.96,1.22,1.92.65,4.47-1.27,5.7-1.92,1.22-4.47.66-5.7-1.27-.3-.44-8.53-11.92-34.33-1.16-.96.4-2.03.42-3.01.06-13.14-4.83-20.9-2.02-25.09,1.18-2.48,1.89-5.46,2.87-8.47,2.87Z"/>
        <path class="cls-1" d="M309.52,196.57c-1.43,0-2.83-.75-3.59-2.09-5.03-8.85-6.27-12.4-5.87-24.35.08-2.36.25-4.77.43-7.34.63-8.93,1.35-19.05-2.41-26.35-1.04-2.02-.25-4.51,1.78-5.56,2.03-1.04,4.51-.25,5.56,1.78,4.82,9.35,4.01,20.7,3.3,30.71-.18,2.48-.34,4.82-.41,7.02-.34,10.18.35,12.17,4.8,19.99,1.13,1.98.43,4.5-1.55,5.63-.64.37-1.34.54-2.04.54Z"/>
        <path class="cls-1" d="M283.19,229.2c-1.85,0-3.54-1.26-4-3.13-.55-2.21.8-4.45,3.01-5,.48-.12.97-.31,1.58-.55,2.08-.82,4.93-1.94,11.56-2.05,12-.19,17.71-4.71,23.77-9.49,3.86-3.05,7.85-6.2,13.28-7.91,1.86-.59,3.18-2.43,3.22-4.48-.86-20.35-18.54-69.01-20.6-73.56-1.77-2.23-3.89-5.05-6.11-8.03-3.65-4.89-8.2-10.96-10.11-12.67l-14.06,7.46c-.5.46-1.82,1.85-1.21,3.02.09.17.16.34.23.52l6.76,18.94c.6.57.82.69.89.71,0,0,.18.05.8-.01l8.46-2.36c2.2-.61,4.47.67,5.09,2.86.61,2.2-.67,4.47-2.86,5.09l-8.78,2.45c-.2.05-.4.1-.61.12-4.44.54-6.69-.82-9.51-3.7-.42-.43-.73-.94-.93-1.49l-6.99-19.59c-2.88-5.94,1.22-11.25,3.83-13.26.18-.14.38-.27.58-.37l14.63-7.76c3.11-1.5,6.63-1.03,9.11,1.14,2.36,2.07,6.01,6.87,11.31,13.96,2.28,3.05,4.43,5.92,6.19,8.12,2.35,2.99,21.32,56.67,22.17,78.19,0,.06,0,.12,0,.18-.02,5.72-3.64,10.71-8.99,12.4-3.99,1.26-7.08,3.7-10.65,6.52-6.55,5.17-13.96,11.03-28.75,11.27-5.13.08-6.93.79-8.67,1.48-.79.31-1.6.63-2.61.88-.33.08-.67.12-1,.12Z"/>
      </g>
    </g>
    <path class="cls-1" d="M204.06,340.81c-62.79,0-111.98-26.82-111.98-61.05,0-9.18,3.54-17.97,10.53-26.13,1.49-1.73,4.09-1.93,5.82-.45,1.73,1.48,1.93,4.09.45,5.82-5.67,6.62-8.55,13.6-8.55,20.76,0,29.11,46.53,52.8,103.73,52.8s103.73-23.69,103.73-52.8c0-8.81-4.52-17.59-13.07-25.4-1.68-1.54-1.8-4.15-.27-5.83,1.54-1.68,4.15-1.8,5.83-.27,10.31,9.41,15.76,20.31,15.76,31.5,0,34.24-49.19,61.05-111.98,61.05Z"/>
  </g>
</svg>