<?xml version="1.0" encoding="UTF-8"?>
<svg id="Layer_1" data-name="Layer 1" xmlns="http://www.w3.org/2000/svg" viewBox="0 0 400 400">
  <defs>
    <style>
      .cls-1 {
        fill: #5a8fae;
      }
    </style>
  </defs>
  <path class="cls-1" d="M206.95,391.57c-102.92,0-186.65-83.73-186.65-186.66S104.03,18.26,206.95,18.26s186.66,83.73,186.66,186.65-83.73,186.66-186.66,186.66ZM206.95,25.63C108.09,25.63,27.67,106.06,27.67,204.92s80.43,179.29,179.28,179.29,179.29-80.43,179.29-179.29S305.81,25.63,206.95,25.63Z"/>
  <g>
    <g>
      <g>
        <g>
          <path class="cls-1" d="M158.36,333.67c-.49,0-.99-.1-1.47-.32-46.28-20.88-75.03-59.79-75.03-101.54v-121.12l3.04-.47c39.08-6.03,72.42-17.1,99.1-32.89l1.73-1.02,1.77.94c30.83,16.3,64.23,27.39,99.26,32.98l3.02.48v22.07c0,1.98-1.6,3.58-3.58,3.58s-3.58-1.6-3.58-3.58v-15.97c-34.04-5.74-66.55-16.6-96.69-32.29-26.47,15.31-59.03,26.17-96.89,32.31v114.99c0,38.89,27.13,75.29,70.81,95,1.8.81,2.61,2.94,1.79,4.74-.6,1.32-1.9,2.11-3.27,2.11Z"/>
          <path class="cls-1" d="M158.36,334.24c-.6,0-1.17-.12-1.71-.37-46.49-20.98-75.37-60.08-75.37-102.06v-121.62l3.53-.54c39-6.02,72.28-17.06,98.89-32.82l2-1.19,2.06,1.09c30.78,16.27,64.11,27.34,99.09,32.92l3.5.56v22.56c0,2.29-1.87,4.16-4.16,4.16s-4.16-1.87-4.16-4.16v-15.48c-33.81-5.76-66.14-16.56-96.1-32.12-26.35,15.19-58.76,26-96.33,32.14v114.5c0,38.66,27,74.86,70.47,94.48,1.01.46,1.79,1.28,2.18,2.32.39,1.04.36,2.17-.1,3.18-.67,1.49-2.16,2.45-3.79,2.45ZM82.44,111.18v120.63c0,41.52,28.62,80.22,74.69,101.01,1.46.66,3.32-.04,3.98-1.5.33-.73.36-1.55.07-2.3s-.84-1.35-1.58-1.68c-43.89-19.8-71.15-56.41-71.15-95.53v-115.48l.48-.08c37.77-6.12,70.3-16.97,96.69-32.24l.27-.16.28.15c30.08,15.66,62.56,26.51,96.52,32.24l.48.08v16.46c0,1.66,1.35,3.01,3.01,3.01s3.01-1.35,3.01-3.01v-21.58l-2.53-.4c-35.1-5.6-68.55-16.71-99.44-33.04l-1.49-.79-1.45.86c-26.74,15.83-60.15,26.92-99.3,32.96l-2.55.39Z"/>
        </g>
        <g>
          <path class="cls-1" d="M158.36,334.09c-.57,0-1.13-.12-1.65-.36-46.43-20.95-75.28-60.01-75.28-101.92v-121.49l3.4-.52c39.02-6.02,72.31-17.07,98.95-32.84l1.93-1.14,1.98,1.05c30.79,16.27,64.14,27.35,99.13,32.93l3.38.54v22.44c0,2.21-1.8,4.01-4.01,4.01s-4.01-1.8-4.01-4.01v-15.61c-33.87-5.75-66.25-16.57-96.26-32.17-26.38,15.22-58.83,26.05-96.47,32.19v114.63c0,38.72,27.04,74.98,70.56,94.62,2.01.91,2.91,3.29,2,5.3-.65,1.43-2.08,2.36-3.66,2.36ZM82.29,111.06v120.76c0,41.58,28.65,80.34,74.78,101.15.41.19.84.28,1.3.28,1.24,0,2.37-.73,2.88-1.86.72-1.59,0-3.46-1.58-4.18-43.83-19.78-71.06-56.33-71.06-95.39v-115.35l.36-.06c37.78-6.13,70.33-16.98,96.74-32.26l.2-.12.21.11c30.1,15.67,62.59,26.52,96.57,32.25l.35.06v16.33c0,1.74,1.42,3.16,3.16,3.16s3.16-1.42,3.16-3.16v-21.71l-2.66-.42c-35.08-5.59-68.52-16.7-99.4-33.02l-1.56-.83-1.52.9c-26.73,15.82-60.12,26.9-99.25,32.94l-2.68.41Z"/>
          <path class="cls-1" d="M158.36,334.67c-.66,0-1.29-.14-1.89-.41-46.64-21.04-75.61-60.3-75.61-102.44v-121.98l3.88-.6c38.95-6.01,72.17-17.03,98.74-32.76l2.21-1.31,2.27,1.2c30.74,16.25,64.03,27.3,98.95,32.87l3.86.61v22.93c0,2.53-2.06,4.58-4.58,4.58s-4.58-2.06-4.58-4.58v-15.13c-33.65-5.76-65.83-16.53-95.67-32-26.28,15.11-58.54,25.88-95.91,32.02v114.14c0,38.49,26.91,74.55,70.22,94.09,2.3,1.04,3.33,3.76,2.29,6.06-.74,1.64-2.38,2.7-4.18,2.7ZM82.86,111.55v120.27c0,41.35,28.52,79.9,74.44,100.62,1.26.57,2.85-.03,3.42-1.29.28-.63.31-1.33.06-1.98-.24-.65-.72-1.16-1.35-1.44-44.04-19.87-71.4-56.63-71.4-95.92v-115.84l.84-.13c37.72-6.12,70.2-16.95,96.55-32.19l.47-.28.49.26c30.04,15.64,62.47,26.47,96.4,32.19l.83.14v16.82c0,1.42,1.16,2.58,2.58,2.58s2.58-1.16,2.58-2.58v-21.22l-2.17-.35c-35.14-5.6-68.65-16.73-99.57-33.08l-1.28-.68-1.24.74c-26.79,15.86-60.25,26.97-99.46,33.02l-2.19.34Z"/>
        </g>
      </g>
      <g>
        <g>
          <path class="cls-1" d="M120.76,278.28c-.75,0-1.48-.35-1.95-1-9.91-13.91-15.15-29.61-15.15-45.38v-103.92l1.92-.38c29.85-5.98,56.6-15.06,79.53-26.98l1.06-.55,1.08.52c24.88,12.04,51.35,21.08,78.68,26.87l1.89.4v18.48c0,1.32-1.07,2.39-2.39,2.39s-2.39-1.07-2.39-2.39v-14.61c-26.64-5.79-52.46-14.64-76.8-26.32-22.59,11.6-48.75,20.51-77.81,26.49v100.01c0,14.77,4.93,29.51,14.26,42.61.77,1.08.52,2.57-.56,3.33-.42.3-.91.44-1.38.44Z"/>
          <path class="cls-1" d="M120.76,278.86c-.96,0-1.86-.47-2.42-1.25-9.98-14.01-15.25-29.82-15.25-45.71v-104.39l2.38-.48c29.78-5.97,56.49-15.03,79.38-26.93l1.32-.69,1.34.65c24.84,12.02,51.27,21.04,78.54,26.82l2.35.5v18.95c0,1.63-1.33,2.96-2.96,2.96s-2.96-1.33-2.96-2.96v-14.15c-26.42-5.78-52.06-14.58-76.21-26.14-22.45,11.5-48.43,20.35-77.24,26.31v99.54c0,14.65,4.89,29.27,14.15,42.27.95,1.33.64,3.19-.69,4.13-.51.36-1.1.55-1.72.55ZM104.24,128.45v103.45c0,15.65,5.2,31.23,15.04,45.04.56.78,1.73.99,2.53.42.81-.58,1-1.71.42-2.53-9.4-13.2-14.37-28.05-14.37-42.94v-100.48l.46-.09c29-5.97,55.13-14.86,77.66-26.43l.25-.13.26.12c24.28,11.65,50.08,20.49,76.67,26.27l.45.1v15.08c0,1,.81,1.81,1.81,1.81s1.81-.81,1.81-1.81v-18.01l-1.44-.3c-27.37-5.8-53.88-14.85-78.81-26.91l-.82-.4-.81.42c-22.98,11.95-49.79,21.05-79.68,27.04l-1.46.29Z"/>
        </g>
        <g>
          <path class="cls-1" d="M120.76,278.71c-.91,0-1.77-.44-2.29-1.18-9.96-13.99-15.23-29.76-15.23-45.63v-104.27l2.26-.45c29.8-5.97,56.52-15.04,79.41-26.94l1.25-.65,1.27.62c24.85,12.03,51.29,21.05,78.58,26.83l2.23.47v18.82c0,1.55-1.26,2.81-2.81,2.81s-2.81-1.26-2.81-2.81v-14.27c-26.49-5.79-52.18-14.6-76.37-26.18-22.48,11.52-48.51,20.39-77.39,26.36v99.67c0,14.68,4.9,29.33,14.18,42.36.9,1.26.6,3.02-.66,3.92-.48.34-1.04.52-1.63.52ZM104.09,128.33v103.57c0,15.68,5.21,31.29,15.07,45.13.61.85,1.88,1.07,2.74.46.88-.63,1.09-1.86.46-2.74-9.38-13.17-14.34-27.99-14.34-42.85v-100.36l.34-.07c29.01-5.97,55.16-14.87,77.7-26.45l.19-.1.19.09c24.29,11.65,50.09,20.5,76.7,26.28l.33.07v14.95c0,1.08.88,1.96,1.96,1.96s1.96-.88,1.96-1.96v-18.14l-1.56-.33c-27.36-5.79-53.86-14.84-78.77-26.9l-.89-.43-.88.45c-22.97,11.94-49.76,21.03-79.64,27.02l-1.58.32Z"/>
          <path class="cls-1" d="M120.76,279.28c-1.1,0-2.13-.53-2.76-1.42-10.03-14.08-15.33-29.98-15.33-45.96v-104.74l2.72-.55c29.75-5.96,56.41-15.01,79.26-26.89l1.51-.78,1.53.74c24.8,12,51.2,21.02,78.45,26.79l2.69.57v19.29c0,1.87-1.52,3.39-3.39,3.39s-3.39-1.52-3.39-3.39v-13.81c-26.28-5.78-51.77-14.53-75.78-26.01-22.35,11.42-48.19,20.23-76.82,26.19v99.2c0,14.56,4.87,29.1,14.07,42.03,1.08,1.52.73,3.64-.79,4.73-.58.41-1.26.63-1.96.63ZM104.67,128.8v103.1c0,15.56,5.17,31.05,14.96,44.8.42.59,1.34.75,1.94.32.62-.44.77-1.31.32-1.94-9.45-13.27-14.45-28.2-14.45-43.19v-100.83l.8-.16c28.97-5.96,55.06-14.84,77.55-26.4l.44-.23.45.22c24.25,11.63,50.01,20.46,76.58,26.24l.79.17v15.42c0,.76.62,1.39,1.39,1.39s1.39-.62,1.39-1.39v-17.67l-1.1-.23c-27.4-5.8-53.95-14.87-78.91-26.95l-.63-.3-.62.32c-23.01,11.96-49.86,21.07-79.79,27.07l-1.12.22Z"/>
        </g>
      </g>
    </g>
    <g>
      <g>
        <g>
          <path class="cls-1" d="M227.22,239.06h-34.66c-1.09,0-2.1-.58-2.64-1.52l-17.33-30.02c-.55-.94-.55-2.1,0-3.05l17.33-30.02c.54-.94,1.55-1.52,2.64-1.52h34.66c1.09,0,2.1.58,2.64,1.52l17.33,30.02c.55.94.55,2.1,0,3.05l-17.33,30.02c-.54.94-1.55,1.52-2.64,1.52ZM194.32,232.97h31.14l15.57-26.97-15.57-26.97h-31.14l-15.57,26.97,15.57,26.97Z"/>
          <path class="cls-1" d="M227.22,239.64h-34.66c-1.29,0-2.49-.69-3.14-1.81l-17.33-30.02c-.65-1.12-.65-2.51,0-3.62l17.33-30.02c.64-1.12,1.85-1.81,3.14-1.81h34.66c1.29,0,2.49.69,3.14,1.81l17.33,30.02c.65,1.12.65,2.5,0,3.62l-17.33,30.02c-.64,1.12-1.85,1.81-3.14,1.81ZM192.56,173.52c-.88,0-1.7.47-2.14,1.24l-17.33,30.02c-.44.76-.44,1.71,0,2.47l17.33,30.02c.44.76,1.26,1.24,2.14,1.24h34.66c.88,0,1.7-.47,2.14-1.24l17.33-30.02c.44-.76.44-1.71,0-2.47l-17.33-30.02c-.44-.76-1.26-1.24-2.14-1.24h-34.66ZM225.8,233.55h-31.81l-15.9-27.55,15.9-27.55h31.81l15.9,27.55-15.9,27.55ZM194.65,232.4h30.48l15.24-26.39-15.24-26.39h-30.48l-15.24,26.39,15.24,26.39Z"/>
        </g>
        <g>
          <path class="cls-1" d="M227.22,239.49h-34.66c-1.24,0-2.39-.66-3.01-1.74l-17.33-30.02c-.62-1.07-.62-2.4,0-3.47l17.33-30.02c.62-1.07,1.77-1.74,3.01-1.74h34.66c1.24,0,2.39.66,3.01,1.74l17.33,30.02c.62,1.07.62,2.4,0,3.47l-17.33,30.02c-.62,1.07-1.77,1.74-3.01,1.74ZM192.56,173.36c-.94,0-1.81.5-2.27,1.31l-17.33,30.02c-.47.81-.47,1.81,0,2.62l17.33,30.02c.47.81,1.34,1.31,2.27,1.31h34.66c.93,0,1.8-.5,2.27-1.31l17.33-30.02c.47-.81.47-1.81,0-2.62l-17.33-30.02c-.47-.81-1.34-1.31-2.27-1.31h-34.66ZM225.71,233.4h-31.63l-.12-.21-15.69-27.18,15.81-27.39h31.63l.12.21,15.69,27.18-15.81,27.39ZM194.57,232.55h30.65l15.32-26.55-15.32-26.55h-30.65l-15.32,26.55,15.32,26.55Z"/>
          <path class="cls-1" d="M227.22,240.07h-34.66c-1.44,0-2.79-.77-3.51-2.02l-17.33-30.02c-.72-1.25-.72-2.8,0-4.05l17.33-30.02c.72-1.25,2.06-2.02,3.5-2.02h34.66c1.44,0,2.79.77,3.51,2.02l17.33,30.02c.72,1.25.72,2.8,0,4.05l-17.33,30.02c-.72,1.25-2.06,2.02-3.51,2.02ZM192.56,173.94c-.73,0-1.41.39-1.77,1.02l-17.33,30.02c-.36.63-.36,1.42,0,2.05l17.33,30.02c.37.63,1.05,1.02,1.77,1.02h34.66c.73,0,1.41-.39,1.77-1.02l17.33-30.02c.36-.63.36-1.42,0-2.05l-17.33-30.02c-.36-.63-1.04-1.02-1.77-1.02h-34.66ZM226.04,233.97h-32.3l-16.15-27.97,16.15-27.97h32.3l16.15,27.97-16.15,27.97ZM194.9,231.97h29.99l14.99-25.97-14.99-25.97h-29.99l-14.99,25.97,14.99,25.97Z"/>
        </g>
      </g>
      <g>
        <g>
          <path class="cls-1" d="M188.47,209.06c-.52,0-1.04-.13-1.52-.41-1.46-.84-1.96-2.7-1.12-4.16l10.71-18.56c.84-1.46,2.71-1.96,4.16-1.12,1.46.84,1.96,2.7,1.12,4.16l-10.71,18.56c-.56.98-1.59,1.53-2.64,1.53Z"/>
          <path class="cls-1" d="M188.46,209.63c-.63,0-1.26-.17-1.81-.49-.84-.48-1.44-1.26-1.69-2.19-.25-.94-.12-1.91.36-2.75l10.71-18.56c.48-.84,1.27-1.44,2.21-1.69.94-.25,1.91-.12,2.74.37.83.48,1.43,1.26,1.69,2.19.25.94.12,1.91-.36,2.76l-10.71,18.56c-.65,1.12-1.85,1.82-3.14,1.82ZM199.18,184.97c-.21,0-.43.03-.64.08-.64.17-1.18.58-1.51,1.15l-10.71,18.56c-.33.57-.42,1.24-.25,1.88.17.64.58,1.17,1.15,1.5,1.16.67,2.72.23,3.38-.91l10.71-18.56c.33-.57.42-1.24.25-1.88-.17-.64-.58-1.17-1.15-1.49-.38-.22-.8-.34-1.23-.34Z"/>
        </g>
        <g>
          <path class="cls-1" d="M188.47,209.48c-.61,0-1.21-.16-1.73-.47-.8-.46-1.38-1.21-1.62-2.1-.24-.9-.12-1.83.35-2.64l10.71-18.56c.46-.81,1.21-1.38,2.11-1.62.9-.24,1.83-.11,2.63.35.8.46,1.37,1.21,1.62,2.1.24.9.12,1.83-.35,2.64l-10.71,18.56c-.62,1.07-1.77,1.74-3.01,1.74ZM199.18,184.82c-.23,0-.45.03-.68.09-.68.18-1.25.62-1.6,1.23l-10.71,18.56c-.35.61-.44,1.32-.26,1.99.18.68.62,1.24,1.22,1.59,1.22.71,2.89.25,3.58-.96l10.71-18.56c.35-.61.44-1.32.26-1.99-.18-.68-.62-1.24-1.22-1.59-.4-.24-.85-.36-1.31-.36Z"/>
          <path class="cls-1" d="M188.46,210.06c-.71,0-1.41-.19-2.02-.55-.93-.54-1.6-1.41-1.88-2.45-.28-1.04-.14-2.14.4-3.08l10.71-18.56c.54-.94,1.41-1.61,2.46-1.89,1.05-.28,2.14-.13,3.07.41.93.53,1.6,1.4,1.88,2.45.28,1.05.14,2.14-.4,3.08l-10.71,18.56c-.72,1.25-2.06,2.03-3.51,2.03ZM199.18,185.39c-.17,0-.35.02-.53.07-.53.14-.97.48-1.25.96l-10.71,18.56c-.27.47-.35,1.03-.2,1.56.14.53.48.97.95,1.24.45.26,1.01.32,1.54.18.54-.14,1-.48,1.25-.93l10.71-18.56c.27-.47.35-1.03.2-1.56-.14-.53-.48-.97-.95-1.24-.31-.18-.67-.28-1.02-.28Z"/>
        </g>
      </g>
      <g>
        <g>
          <path class="cls-1" d="M231.32,209.05c-1.05,0-2.08-.55-2.64-1.53l-10.71-18.55c-.84-1.46-.34-3.32,1.12-4.16,1.46-.84,3.32-.34,4.16,1.12l10.71,18.55c.84,1.46.34,3.32-1.12,4.16-.48.28-1,.41-1.52.41Z"/>
          <path class="cls-1" d="M231.32,209.63c-1.29,0-2.49-.7-3.14-1.82l-10.71-18.55c-1-1.73-.4-3.95,1.33-4.95.84-.48,1.82-.61,2.76-.36.93.25,1.71.85,2.19,1.69l10.71,18.55c1,1.73.4,3.95-1.33,4.95-.55.32-1.18.49-1.81.49ZM220.6,184.98c-.43,0-.85.11-1.23.33-1.18.68-1.59,2.2-.91,3.38l10.71,18.55c.66,1.14,2.23,1.57,3.38.91,1.18-.68,1.59-2.2.91-3.38l-10.71-18.55c-.33-.57-.86-.98-1.49-1.15-.21-.06-.43-.09-.65-.09Z"/>
        </g>
        <g>
          <path class="cls-1" d="M231.32,209.48c-1.24,0-2.39-.67-3.01-1.74l-10.71-18.55c-.96-1.66-.38-3.78,1.27-4.74.81-.46,1.75-.59,2.64-.34.89.24,1.64.81,2.1,1.62l10.71,18.55c.96,1.66.38,3.78-1.27,4.74-.53.31-1.13.47-1.73.47ZM220.6,184.83c-.45,0-.9.12-1.31.35-1.25.72-1.68,2.33-.96,3.58l10.71,18.55c.7,1.21,2.37,1.67,3.58.96,1.25-.72,1.68-2.33.96-3.58l-10.71-18.55c-.35-.61-.91-1.04-1.59-1.22-.23-.06-.46-.09-.69-.09Z"/>
          <path class="cls-1" d="M231.32,210.05c-1.44,0-2.79-.78-3.51-2.03l-10.71-18.55c-1.11-1.93-.45-4.41,1.48-5.53.94-.54,2.03-.68,3.08-.4,1.04.28,1.91.95,2.45,1.89l10.71,18.55c.54.93.68,2.02.4,3.07-.28,1.04-.95,1.92-1.88,2.46-.61.36-1.31.55-2.02.55ZM220.6,185.4c-.36,0-.71.1-1.02.28-.98.56-1.32,1.82-.75,2.8l10.71,18.55c.26.45.72.79,1.26.93.54.15,1.1.08,1.53-.18.98-.57,1.32-1.82.75-2.8l-10.71-18.55c-.27-.47-.71-.81-1.24-.95-.18-.05-.36-.07-.54-.07Z"/>
        </g>
      </g>
      <g>
        <g>
          <path class="cls-1" d="M227.22,179.03c-.55,0-1.11-.15-1.61-.46-1.43-.89-1.86-2.77-.97-4.2l9.52-15.24c.9-1.43,2.78-1.85,4.2-.97,1.43.89,1.86,2.77.97,4.2l-9.52,15.24c-.58.92-1.57,1.43-2.59,1.43Z"/>
          <path class="cls-1" d="M227.22,179.61c-.68,0-1.34-.19-1.92-.55-1.69-1.06-2.21-3.3-1.15-4.99l9.52-15.24c1.06-1.69,3.3-2.2,4.99-1.15.82.51,1.4,1.32,1.61,2.26.22.94.05,1.92-.46,2.74l-9.52,15.24c-.67,1.06-1.82,1.7-3.07,1.7ZM236.75,158.27c-.83,0-1.63.41-2.1,1.16l-9.52,15.24c-.35.56-.46,1.22-.31,1.87s.54,1.19,1.1,1.54c1.12.7,2.71.33,3.41-.78l9.52-15.24c.35-.56.46-1.22.31-1.87-.15-.64-.54-1.19-1.1-1.54-.41-.25-.86-.37-1.31-.37Z"/>
        </g>
        <g>
          <path class="cls-1" d="M227.22,179.46c-.65,0-1.29-.18-1.84-.53-1.62-1.02-2.12-3.16-1.11-4.79l9.52-15.24c1.01-1.62,3.16-2.11,4.78-1.1.79.49,1.34,1.26,1.54,2.16.21.9.05,1.84-.44,2.62l-9.52,15.24c-.64,1.02-1.74,1.63-2.95,1.63ZM236.75,158.12c-.88,0-1.73.44-2.23,1.23l-9.52,15.24c-.77,1.23-.39,2.85.83,3.62.42.26.9.4,1.39.4.91,0,1.75-.46,2.23-1.23l9.52-15.24c.37-.6.49-1.3.33-1.98-.16-.68-.57-1.26-1.17-1.64-.43-.27-.91-.4-1.39-.4Z"/>
          <path class="cls-1" d="M227.22,180.03c-.76,0-1.5-.21-2.14-.61-.92-.57-1.55-1.47-1.8-2.53s-.06-2.14.51-3.06l9.52-15.24c1.18-1.89,3.68-2.46,5.58-1.29.92.57,1.56,1.47,1.8,2.52.24,1.06.06,2.14-.51,3.06l-9.52,15.24c-.74,1.19-2.03,1.9-3.43,1.9ZM236.75,158.7c-.72,0-1.37.36-1.74.96l-9.52,15.24c-.6.96-.31,2.23.65,2.83.93.58,2.24.27,2.82-.65l9.52-15.24c.29-.47.38-1.02.26-1.55-.12-.54-.45-.99-.91-1.28-.32-.2-.7-.31-1.08-.31Z"/>
        </g>
      </g>
      <g>
        <g>
          <path class="cls-1" d="M228.35,314.95h-34.66c-1.09,0-2.1-.58-2.64-1.52l-17.33-30.02c-.55-.94-.55-2.1,0-3.05l17.33-30.02c.54-.94,1.55-1.52,2.64-1.52h34.66c1.09,0,2.1.58,2.64,1.52l17.33,30.02c.55.94.55,2.1,0,3.05l-17.33,30.02c-.54.94-1.55,1.52-2.64,1.52ZM195.45,308.86h31.14l15.57-26.97-15.57-26.97h-31.14l-15.57,26.97,15.57,26.97Z"/>
          <path class="cls-1" d="M228.36,315.53h-34.66c-1.29,0-2.49-.69-3.14-1.81l-17.33-30.02c-.65-1.12-.65-2.5,0-3.62l17.33-30.02c.64-1.12,1.85-1.81,3.14-1.81h34.66c1.29,0,2.49.69,3.14,1.81l17.33,30.02c.65,1.12.65,2.5,0,3.62l-17.33,30.02c-.64,1.12-1.85,1.81-3.14,1.81ZM193.7,249.4c-.88,0-1.7.47-2.14,1.24l-17.33,30.02c-.44.76-.44,1.71,0,2.47l17.33,30.02c.44.76,1.26,1.24,2.14,1.24h34.66c.88,0,1.7-.47,2.14-1.24l17.33-30.02c.44-.76.44-1.71,0-2.47l-17.33-30.02c-.44-.76-1.26-1.24-2.14-1.24h-34.66ZM226.93,309.44h-31.81l-15.9-27.55,15.9-27.55h31.81l15.9,27.55-15.9,27.55ZM195.79,308.29h30.48l15.24-26.39-15.24-26.4h-30.48l-15.24,26.4,15.24,26.39Z"/>
        </g>
        <g>
          <path class="cls-1" d="M228.36,315.38h-34.66c-1.24,0-2.39-.67-3.01-1.74l-17.33-30.02c-.62-1.07-.62-2.4,0-3.47l17.33-30.02c.62-1.07,1.77-1.74,3.01-1.74h34.66c1.24,0,2.39.67,3.01,1.74l17.33,30.02c.62,1.07.62,2.4,0,3.47l-17.33,30.02c-.62,1.07-1.77,1.74-3.01,1.74ZM193.7,249.25c-.94,0-1.81.5-2.27,1.31l-17.33,30.02c-.47.81-.47,1.81,0,2.62l17.33,30.02c.47.81,1.34,1.31,2.27,1.31h34.66c.94,0,1.8-.5,2.27-1.31l17.33-30.02c.47-.81.47-1.81,0-2.62l-17.33-30.02c-.47-.81-1.34-1.31-2.27-1.31h-34.66ZM226.84,309.29h-31.63l-.12-.21-15.69-27.18,15.81-27.39h31.63l.12.21,15.69,27.18-15.81,27.39ZM195.7,308.44h30.65l15.32-26.55-15.32-26.55h-30.65l-15.32,26.55,15.32,26.55Z"/>
          <path class="cls-1" d="M228.36,315.95h-34.66c-1.44,0-2.79-.78-3.51-2.02l-17.33-30.02c-.72-1.25-.72-2.8,0-4.05l17.33-30.02c.72-1.25,2.06-2.02,3.51-2.02h34.66c1.44,0,2.78.78,3.51,2.02l17.33,30.02c.73,1.25.73,2.8,0,4.05l-17.33,30.01c-.72,1.25-2.06,2.02-3.5,2.02ZM193.7,249.83c-.73,0-1.41.39-1.77,1.02l-17.33,30.02c-.36.63-.36,1.41,0,2.05l17.33,30.02c.36.63,1.04,1.02,1.77,1.02h34.66c.73,0,1.41-.39,1.77-1.02l17.33-30.02c.37-.63.37-1.41,0-2.04l-17.33-30.02c-.36-.63-1.04-1.02-1.77-1.02h-34.66ZM227.17,309.86h-32.3l-.29-.5-15.86-27.47,16.14-27.97h32.3l16.15,27.97-16.15,27.97ZM196.03,307.86h29.99l14.99-25.97-14.99-25.97h-29.99l-14.99,25.97,14.99,25.97Z"/>
        </g>
      </g>
      <g>
        <g>
          <path class="cls-1" d="M232.45,284.94c-1.05,0-2.08-.55-2.64-1.53l-10.71-18.56c-.84-1.46-.34-3.32,1.12-4.16,1.46-.84,3.33-.34,4.16,1.12l10.71,18.56c.84,1.46.34,3.32-1.12,4.16-.48.28-1,.41-1.52.41Z"/>
          <path class="cls-1" d="M232.45,285.52c-1.29,0-2.49-.7-3.14-1.82l-10.71-18.55c-1-1.73-.4-3.95,1.33-4.95,1.74-1,3.95-.4,4.95,1.33l10.71,18.55c1,1.73.4,3.95-1.33,4.95-.55.32-1.18.49-1.81.49ZM221.74,260.86c-.42,0-.84.11-1.23.33-1.18.68-1.58,2.2-.9,3.38l10.71,18.56c.66,1.14,2.23,1.57,3.38.91,1.18-.68,1.59-2.2.91-3.38l-10.71-18.56c-.46-.79-1.29-1.24-2.15-1.24Z"/>
        </g>
        <g>
          <path class="cls-1" d="M232.45,285.37c-1.24,0-2.39-.67-3.01-1.74l-10.71-18.56c-.96-1.66-.39-3.78,1.27-4.74,1.66-.96,3.79-.38,4.74,1.27l10.71,18.56c.96,1.66.39,3.78-1.27,4.74-.53.31-1.13.47-1.73.47ZM221.74,260.71c-.45,0-.9.11-1.31.35-1.25.72-1.68,2.33-.96,3.58l10.71,18.56c.7,1.21,2.37,1.67,3.58.96,1.25-.72,1.69-2.33.96-3.58l-10.71-18.56c-.48-.84-1.37-1.31-2.28-1.31Z"/>
          <path class="cls-1" d="M232.45,285.94c-1.44,0-2.79-.78-3.51-2.03l-10.71-18.56c-1.12-1.93-.45-4.41,1.48-5.53.94-.54,2.02-.68,3.07-.4,1.05.28,1.92.95,2.46,1.89l10.71,18.55c1.12,1.93.45,4.41-1.48,5.53-.61.36-1.31.55-2.02.55ZM221.74,261.29c-.36,0-.71.09-1.02.27-.97.56-1.31,1.82-.75,2.8l10.71,18.56c.26.45.72.79,1.26.93.54.14,1.09.08,1.54-.18.98-.57,1.32-1.82.75-2.8l-10.71-18.56c-.36-.63-1.04-1.02-1.78-1.02Z"/>
        </g>
      </g>
      <g>
        <g>
          <path class="cls-1" d="M189.6,284.94c-.52,0-1.04-.13-1.52-.41-1.46-.84-1.96-2.7-1.12-4.16l10.71-18.56c.84-1.46,2.71-1.96,4.16-1.12,1.46.84,1.96,2.7,1.12,4.16l-10.71,18.56c-.56.98-1.59,1.52-2.64,1.52Z"/>
          <path class="cls-1" d="M189.6,285.51c-.64,0-1.26-.17-1.81-.48-.84-.48-1.44-1.26-1.69-2.19-.25-.94-.12-1.91.36-2.75l10.71-18.56c.48-.84,1.26-1.44,2.2-1.69.93-.25,1.91-.12,2.75.37.83.48,1.43,1.26,1.69,2.19.25.94.12,1.91-.36,2.75l-10.71,18.56c-.64,1.12-1.85,1.81-3.14,1.81ZM200.31,260.86c-.21,0-.43.03-.64.08-.64.17-1.17.58-1.5,1.16l-10.71,18.56c-.33.57-.42,1.24-.25,1.88.17.64.58,1.17,1.15,1.5,1.13.66,2.72.23,3.38-.91l10.71-18.56c.33-.57.42-1.24.25-1.88-.17-.64-.58-1.17-1.15-1.5-.38-.22-.81-.34-1.23-.34Z"/>
        </g>
        <g>
          <path class="cls-1" d="M189.6,285.36c-.61,0-1.21-.16-1.73-.46-.8-.46-1.38-1.21-1.62-2.1-.24-.9-.12-1.83.35-2.64l10.71-18.56c.46-.81,1.21-1.38,2.11-1.62.9-.24,1.83-.11,2.63.35.8.46,1.38,1.21,1.62,2.1.24.9.12,1.83-.35,2.64l-10.71,18.56c-.62,1.07-1.77,1.74-3.01,1.74ZM200.31,260.71c-.23,0-.46.03-.68.09-.68.18-1.25.62-1.59,1.23l-10.71,18.56c-.35.61-.44,1.32-.26,1.99.18.68.62,1.24,1.22,1.59,1.2.7,2.88.25,3.58-.96l10.71-18.56c.35-.61.44-1.32.26-1.99-.18-.68-.62-1.24-1.22-1.59-.4-.24-.85-.36-1.31-.36Z"/>
          <path class="cls-1" d="M189.6,285.94c-.71,0-1.41-.19-2.02-.54-.93-.54-1.6-1.41-1.88-2.45-.28-1.05-.14-2.14.4-3.08l10.71-18.56c.54-.94,1.41-1.61,2.46-1.89,1.05-.28,2.14-.13,3.07.41.93.54,1.6,1.41,1.88,2.45.28,1.05.14,2.14-.4,3.08l-10.71,18.56c-.72,1.25-2.06,2.02-3.51,2.02ZM200.31,261.28c-.18,0-.36.02-.53.07-.53.14-.97.48-1.24.96l-10.71,18.56c-.27.47-.35,1.03-.2,1.56.14.53.48.97.95,1.24.45.26,1.01.32,1.55.18.54-.14,1-.48,1.25-.93l10.71-18.56c.27-.47.35-1.03.2-1.56-.14-.53-.48-.97-.95-1.24-.31-.18-.67-.28-1.02-.28Z"/>
        </g>
      </g>
      <g>
        <g>
          <path class="cls-1" d="M292.47,275.54h-34.66c-1.09,0-2.1-.58-2.64-1.52l-17.33-30.02c-.55-.94-.55-2.1,0-3.05l17.33-30.02c.54-.94,1.55-1.52,2.64-1.52h34.66c1.09,0,2.1.58,2.64,1.52l17.33,30.02c.55.94.55,2.1,0,3.05l-17.33,30.02c-.54.94-1.55,1.52-2.64,1.52ZM259.56,269.44h31.14l15.57-26.97-15.57-26.97h-31.14l-15.57,26.97,15.57,26.97Z"/>
          <path class="cls-1" d="M292.47,276.11h-34.66c-1.29,0-2.49-.69-3.14-1.81l-17.33-30.02c-.65-1.12-.65-2.51,0-3.62l17.33-30.02c.64-1.12,1.85-1.81,3.14-1.81h34.66c1.29,0,2.49.69,3.14,1.81l17.33,30.02c.65,1.12.65,2.5,0,3.62l-17.33,30.02c-.65,1.12-1.85,1.81-3.14,1.81ZM257.81,209.99c-.88,0-1.7.47-2.14,1.24l-17.33,30.02c-.44.76-.44,1.71,0,2.47l17.33,30.02c.44.76,1.26,1.24,2.14,1.24h34.66c.88,0,1.7-.47,2.14-1.24l17.33-30.02c.44-.76.44-1.71,0-2.47l-17.33-30.02c-.44-.76-1.26-1.24-2.14-1.24h-34.66ZM291.04,270.02h-31.81l-15.9-27.55,15.9-27.55h31.81l15.9,27.55-15.9,27.55ZM259.9,268.87h30.48l15.24-26.39-15.24-26.39h-30.48l-15.24,26.39,15.24,26.39Z"/>
        </g>
        <g>
          <path class="cls-1" d="M292.47,275.96h-34.66c-1.24,0-2.39-.66-3.01-1.74l-17.33-30.02c-.62-1.07-.62-2.4,0-3.47l17.33-30.02c.62-1.07,1.77-1.74,3.01-1.74h34.66c1.24,0,2.39.66,3.01,1.74l17.33,30.02c.62,1.07.62,2.4,0,3.47l-17.33,30.02c-.62,1.07-1.77,1.74-3.01,1.74ZM257.81,209.84c-.94,0-1.81.5-2.27,1.31l-17.33,30.02c-.47.81-.47,1.81,0,2.62l17.33,30.02c.47.81,1.34,1.31,2.27,1.31h34.66c.94,0,1.81-.5,2.27-1.31l17.33-30.02c.47-.81.47-1.81,0-2.62l-17.33-30.02c-.47-.81-1.34-1.31-2.27-1.31h-34.66ZM290.95,269.87h-31.63l-.12-.21-15.69-27.18,15.81-27.39h31.63l.12.21,15.69,27.18-15.81,27.39ZM259.81,269.02h30.65l15.32-26.55-15.32-26.55h-30.65l-15.32,26.55,15.32,26.55Z"/>
          <path class="cls-1" d="M292.47,276.54h-34.66c-1.44,0-2.79-.77-3.51-2.02l-17.33-30.02c-.72-1.25-.72-2.8,0-4.05l17.33-30.02c.72-1.25,2.06-2.02,3.5-2.02h34.66c1.44,0,2.79.77,3.51,2.02l17.33,30.02c.72,1.25.72,2.8,0,4.05l-17.33,30.02c-.72,1.25-2.06,2.02-3.5,2.02ZM257.81,210.41c-.73,0-1.41.39-1.77,1.02l-17.33,30.02c-.37.63-.37,1.41,0,2.04l17.33,30.02c.36.63,1.04,1.02,1.77,1.02h34.66c.73,0,1.41-.39,1.77-1.02l17.33-30.02c.36-.63.36-1.42,0-2.05l-17.33-30.02c-.36-.63-1.04-1.02-1.77-1.02h-34.66ZM291.29,270.44h-32.3l-16.15-27.97,16.15-27.97h32.3l.29.5,15.86,27.47-16.15,27.97ZM260.14,268.44h29.99l14.99-25.97-14.99-25.97h-29.99l-14.99,25.97,14.99,25.97Z"/>
        </g>
      </g>
      <g>
        <g>
          <path class="cls-1" d="M296.56,245.52c-1.05,0-2.08-.55-2.64-1.53l-10.71-18.56c-.84-1.46-.34-3.32,1.12-4.16,1.46-.84,3.33-.34,4.16,1.12l10.71,18.56c.84,1.46.34,3.32-1.12,4.16-.48.28-1,.41-1.52.41Z"/>
          <path class="cls-1" d="M296.56,246.1c-1.29,0-2.49-.7-3.14-1.82l-10.71-18.56c-1-1.73-.4-3.95,1.33-4.95.84-.48,1.82-.61,2.75-.36.94.25,1.72.85,2.2,1.69l10.71,18.55c1,1.73.4,3.95-1.33,4.95-.55.32-1.18.49-1.81.49ZM285.84,221.45c-.43,0-.85.11-1.23.33-1.18.68-1.58,2.2-.9,3.38l10.71,18.56c.66,1.14,2.23,1.58,3.38.91,1.18-.68,1.59-2.2.91-3.38l-10.71-18.56c-.33-.57-.86-.98-1.5-1.15-.21-.06-.43-.09-.65-.09Z"/>
        </g>
        <g>
          <path class="cls-1" d="M296.56,245.95c-1.24,0-2.39-.67-3.01-1.74l-10.71-18.56c-.96-1.66-.39-3.78,1.27-4.74.81-.47,1.74-.59,2.65-.34.89.24,1.64.81,2.1,1.61l10.71,18.56c.96,1.66.39,3.78-1.27,4.74-.53.31-1.13.47-1.73.47ZM285.84,221.3c-.46,0-.9.12-1.31.35-1.25.72-1.68,2.33-.96,3.58l10.71,18.56c.69,1.21,2.36,1.67,3.58.96,1.25-.72,1.68-2.33.96-3.58l-10.71-18.56c-.35-.6-.91-1.04-1.58-1.22-.23-.06-.46-.09-.69-.09Z"/>
          <path class="cls-1" d="M296.56,246.52c-1.44,0-2.79-.78-3.51-2.03l-10.71-18.56c-1.12-1.93-.45-4.41,1.48-5.53.94-.54,2.03-.69,3.08-.4,1.04.28,1.91.95,2.45,1.88l10.71,18.55c1.11,1.93.45,4.41-1.48,5.53-.61.36-1.31.55-2.02.55ZM285.84,221.87c-.36,0-.71.1-1.02.28-.47.27-.81.71-.95,1.24-.14.53-.07,1.08.2,1.55l10.71,18.56c.26.45.72.79,1.25.93.54.15,1.1.08,1.54-.18.98-.57,1.31-1.82.75-2.8l-10.71-18.56c-.27-.47-.71-.81-1.23-.95-.18-.05-.36-.07-.54-.07Z"/>
        </g>
      </g>
      <g>
        <g>
          <path class="cls-1" d="M253.71,245.52c-.52,0-1.04-.13-1.52-.41-1.46-.84-1.96-2.7-1.12-4.16l10.71-18.55c.84-1.46,2.71-1.95,4.16-1.12,1.46.84,1.96,2.7,1.12,4.16l-10.71,18.55c-.56.98-1.59,1.53-2.64,1.53Z"/>
          <path class="cls-1" d="M253.71,246.1c-.63,0-1.26-.17-1.81-.49-1.73-1-2.32-3.22-1.32-4.95l10.71-18.55c.48-.84,1.26-1.44,2.2-1.69.93-.25,1.91-.12,2.75.36,1.73,1,2.32,3.22,1.33,4.95l-10.71,18.55c-.65,1.12-1.85,1.82-3.14,1.82ZM264.43,221.45c-.21,0-.43.03-.65.09-.64.17-1.17.58-1.5,1.15l-10.71,18.55c-.68,1.18-.27,2.69.91,3.38,1.16.67,2.72.23,3.38-.91l10.71-18.55c.68-1.18.27-2.69-.91-3.38-.38-.22-.8-.33-1.23-.33Z"/>
        </g>
        <g>
          <path class="cls-1" d="M253.71,245.95c-.61,0-1.21-.16-1.73-.47-1.66-.96-2.23-3.08-1.27-4.74l10.71-18.55c.46-.8,1.21-1.38,2.11-1.62.9-.24,1.83-.12,2.63.35,1.66.96,2.23,3.08,1.27,4.74l-10.71,18.55c-.62,1.07-1.77,1.74-3.01,1.74ZM264.43,221.3c-.23,0-.46.03-.69.09-.68.18-1.24.62-1.59,1.22l-10.71,18.55c-.72,1.25-.29,2.86.96,3.58,1.22.71,2.89.25,3.58-.96l10.71-18.55c.72-1.25.29-2.86-.96-3.58-.4-.23-.85-.35-1.3-.35Z"/>
          <path class="cls-1" d="M253.71,246.52c-.71,0-1.41-.19-2.02-.55-1.93-1.12-2.59-3.6-1.48-5.53l10.71-18.55c.54-.94,1.41-1.6,2.46-1.89,1.05-.28,2.14-.13,3.07.4,1.93,1.12,2.6,3.6,1.48,5.53l-10.71,18.55c-.72,1.25-2.06,2.03-3.51,2.03ZM264.43,221.88c-.18,0-.36.02-.54.07-.53.14-.97.48-1.24.95l-10.71,18.55c-.56.98-.23,2.23.75,2.8.45.26,1.01.33,1.54.18.54-.14,1-.48,1.25-.93l10.71-18.55c.56-.98.23-2.23-.75-2.8-.31-.18-.66-.27-1.02-.27Z"/>
        </g>
      </g>
      <g>
        <g>
          <path class="cls-1" d="M176.47,284.76h-.11l-17.96-.63c-1.68-.06-3-1.47-2.94-3.15.06-1.69,1.46-3.02,3.15-2.94l17.96.63c1.68.06,3,1.47,2.94,3.15-.06,1.65-1.41,2.94-3.04,2.94Z"/>
          <path class="cls-1" d="M176.47,285.34h-.11l-17.98-.63c-.97-.03-1.86-.44-2.52-1.15-.66-.71-1.01-1.63-.97-2.6.03-.98.45-1.89,1.17-2.55.71-.65,1.62-1.01,2.59-.94l17.96.63c.97.03,1.86.44,2.52,1.15s1.01,1.63.97,2.6c-.07,1.96-1.66,3.5-3.62,3.5ZM158.47,278.62c-.61,0-1.19.23-1.64.64-.49.45-.77,1.07-.8,1.75-.05,1.36,1.02,2.51,2.38,2.56l17.96.63.09.58v-.58c1.34,0,2.42-1.05,2.47-2.39.05-1.36-1.02-2.51-2.38-2.56l-17.96-.63s-.08,0-.12,0Z"/>
        </g>
        <g>
          <path class="cls-1" d="M176.47,285.19h-.11l-17.98-.63c-.93-.03-1.79-.42-2.42-1.1-.63-.68-.96-1.56-.93-2.49.03-.94.43-1.81,1.12-2.45.68-.62,1.57-.95,2.48-.9l17.96.62c1.91.07,3.42,1.68,3.35,3.59-.06,1.88-1.59,3.35-3.47,3.35ZM158.47,278.47c-.65,0-1.26.24-1.74.68-.52.48-.82,1.14-.85,1.85-.02.7.22,1.37.7,1.88.48.51,1.13.81,1.83.83l18.06.63c1.42,0,2.57-1.11,2.62-2.53.05-1.44-1.08-2.66-2.53-2.71l-17.96-.63s-.08,0-.13,0Z"/>
          <path class="cls-1" d="M176.47,285.76h-.11l-18-.63c-1.08-.04-2.08-.49-2.82-1.29-.74-.79-1.12-1.82-1.09-2.9.04-1.1.5-2.11,1.31-2.85.79-.72,1.84-1.11,2.9-1.05l17.95.62c2.23.08,3.98,1.96,3.9,4.19-.08,2.19-1.85,3.91-4.04,3.91ZM176.43,284.91l.04.27-.04-.27ZM158.47,278.47v.58c-.51,0-.98.18-1.35.53-.41.38-.64.89-.66,1.45-.02.55.18,1.07.55,1.47.37.4.88.63,1.43.65l18.06.63c1.09,0,1.99-.87,2.02-1.98.04-1.13-.85-2.08-1.97-2.12l-17.96-.63-.1-.58Z"/>
        </g>
      </g>
      <g>
        <g>
          <path class="cls-1" d="M328.99,245.52h-19.2c-1.68,0-3.05-1.36-3.05-3.05s1.36-3.05,3.05-3.05h19.2c1.68,0,3.05,1.36,3.05,3.05s-1.36,3.05-3.05,3.05Z"/>
          <path class="cls-1" d="M328.99,246.09h-19.2c-2,0-3.62-1.62-3.62-3.62s1.63-3.62,3.62-3.62h19.2c2,0,3.62,1.62,3.62,3.62s-1.63,3.62-3.62,3.62ZM309.8,240c-1.36,0-2.47,1.11-2.47,2.47s1.11,2.47,2.47,2.47h19.2c1.36,0,2.47-1.11,2.47-2.47s-1.11-2.47-2.47-2.47h-19.2Z"/>
        </g>
        <g>
          <path class="cls-1" d="M328.99,245.94h-19.2c-1.92,0-3.47-1.56-3.47-3.47s1.56-3.47,3.47-3.47h19.2c1.92,0,3.47,1.56,3.47,3.47s-1.56,3.47-3.47,3.47ZM309.8,239.85c-1.45,0-2.62,1.18-2.62,2.62s1.18,2.62,2.62,2.62h19.2c1.45,0,2.62-1.18,2.62-2.62s-1.18-2.62-2.62-2.62h-19.2Z"/>
          <path class="cls-1" d="M328.99,246.52h-19.2c-2.23,0-4.05-1.81-4.05-4.05s1.82-4.05,4.05-4.05h19.2c2.23,0,4.05,1.82,4.05,4.05s-1.82,4.05-4.05,4.05ZM309.8,240.43c-1.13,0-2.05.92-2.05,2.05s.92,2.05,2.05,2.05h19.2c1.13,0,2.05-.92,2.05-2.05s-.92-2.05-2.05-2.05h-19.2Z"/>
        </g>
      </g>
      <g>
        <g>
          <path class="cls-1" d="M301.34,291.87c-1.08,0-2.13-.58-2.68-1.6l-8.87-16.33c-.8-1.48-.26-3.33,1.23-4.13,1.48-.81,3.33-.25,4.13,1.23l8.87,16.33c.8,1.48.26,3.33-1.23,4.13-.46.25-.96.37-1.45.37Z"/>
          <path class="cls-1" d="M301.34,292.45c-1.33,0-2.55-.73-3.19-1.9l-8.87-16.33c-.46-.85-.57-1.83-.29-2.76.28-.93.9-1.69,1.75-2.16.84-.46,1.82-.57,2.75-.29.93.28,1.7.9,2.16,1.75l8.87,16.33c.46.85.57,1.83.29,2.76-.28.93-.9,1.69-1.75,2.16-.53.29-1.12.44-1.73.44ZM292.46,270.01c-.41,0-.81.1-1.17.3-.58.32-1.01.84-1.19,1.47-.19.63-.12,1.3.2,1.88l8.87,16.33c.64,1.17,2.19,1.63,3.35,1,.58-.32,1.01-.84,1.19-1.47.19-.63.12-1.3-.2-1.88l-8.87-16.33c-.32-.58-.84-1.01-1.48-1.2-.23-.07-.47-.1-.7-.1Z"/>
        </g>
        <g>
          <path class="cls-1" d="M301.34,292.3c-1.27,0-2.44-.7-3.05-1.82l-8.87-16.33c-.44-.81-.54-1.75-.28-2.64.26-.89.86-1.62,1.67-2.07.81-.44,1.75-.54,2.63-.28.89.26,1.63.86,2.07,1.68l8.87,16.33c.44.81.54,1.75.28,2.64-.26.89-.86,1.62-1.67,2.07-.5.28-1.08.42-1.65.42ZM292.46,269.86c-.43,0-.86.11-1.24.32-.62.34-1.07.89-1.27,1.56-.2.67-.12,1.38.21,2l8.87,16.33c.46.85,1.35,1.38,2.31,1.38.44,0,.87-.11,1.25-.32.62-.34,1.07-.89,1.27-1.56.2-.67.12-1.38-.21-2l-8.87-16.33c-.33-.62-.89-1.07-1.57-1.27-.25-.07-.5-.11-.74-.11Z"/>
          <path class="cls-1" d="M301.34,292.87c-1.48,0-2.85-.81-3.56-2.12l-8.87-16.34c-.52-.95-.63-2.04-.32-3.08s1-1.89,1.95-2.41c.94-.52,2.03-.63,3.07-.33,1.04.31,1.9,1,2.42,1.96l8.87,16.33c.52.95.63,2.05.32,3.08-.31,1.04-1,1.89-1.95,2.41-.59.32-1.25.49-1.93.49ZM292.46,270.44c-.34,0-.67.09-.97.25-.48.26-.84.7-.99,1.22s-.1,1.08.16,1.56l8.87,16.33c.52.96,1.82,1.35,2.77.83.48-.26.84-.7.99-1.22.16-.53.1-1.08-.16-1.56l-8.87-16.34c-.26-.48-.7-.83-1.22-.99-.19-.06-.39-.08-.58-.08Z"/>
        </g>
      </g>
      <g>
        <g>
          <path class="cls-1" d="M269.27,191.82c-7.31,0-13.25-5.94-13.25-13.25s5.95-13.25,13.25-13.25,13.25,5.94,13.25,13.25-5.95,13.25-13.25,13.25ZM269.27,171.41c-3.95,0-7.16,3.21-7.16,7.16s3.21,7.16,7.16,7.16,7.15-3.21,7.15-7.16-3.21-7.16-7.15-7.16Z"/>
          <path class="cls-1" d="M269.27,192.4c-7.63,0-13.83-6.2-13.83-13.83s6.2-13.83,13.83-13.83,13.83,6.2,13.83,13.83-6.2,13.83-13.83,13.83ZM269.27,165.89c-6.99,0-12.68,5.69-12.68,12.68s5.69,12.68,12.68,12.68,12.68-5.69,12.68-12.68-5.69-12.68-12.68-12.68ZM269.27,186.31c-4.26,0-7.73-3.47-7.73-7.74s3.47-7.73,7.73-7.73,7.73,3.47,7.73,7.73-3.47,7.74-7.73,7.74ZM269.27,171.99c-3.63,0-6.58,2.95-6.58,6.58s2.95,6.58,6.58,6.58,6.58-2.95,6.58-6.58-2.95-6.58-6.58-6.58Z"/>
        </g>
        <g>
          <path class="cls-1" d="M269.27,192.25c-7.54,0-13.68-6.14-13.68-13.68s6.14-13.68,13.68-13.68,13.68,6.14,13.68,13.68-6.14,13.68-13.68,13.68ZM269.27,165.74c-7.07,0-12.83,5.75-12.83,12.83s5.76,12.83,12.83,12.83,12.83-5.75,12.83-12.83-5.75-12.83-12.83-12.83ZM269.27,186.15c-4.18,0-7.58-3.4-7.58-7.58s3.4-7.58,7.58-7.58,7.58,3.4,7.58,7.58-3.4,7.58-7.58,7.58ZM269.27,171.84c-3.71,0-6.73,3.02-6.73,6.73s3.02,6.73,6.73,6.73,6.73-3.02,6.73-6.73-3.02-6.73-6.73-6.73Z"/>
          <path class="cls-1" d="M269.27,192.82c-7.86,0-14.26-6.39-14.26-14.25s6.4-14.25,14.26-14.25,14.25,6.39,14.25,14.25-6.39,14.25-14.25,14.25ZM269.27,166.32c-6.76,0-12.25,5.5-12.25,12.25s5.5,12.25,12.25,12.25,12.25-5.5,12.25-12.25-5.5-12.25-12.25-12.25ZM269.27,186.73c-4.5,0-8.16-3.66-8.16-8.16s3.66-8.16,8.16-8.16,8.15,3.66,8.15,8.16-3.66,8.16-8.15,8.16ZM269.27,172.41c-3.39,0-6.16,2.76-6.16,6.16s2.76,6.16,6.16,6.16,6.15-2.76,6.15-6.16-2.76-6.16-6.15-6.16Z"/>
        </g>
      </g>
      <g>
        <g>
          <path class="cls-1" d="M269.7,311.91c-5.91,0-10.71-4.8-10.71-10.71s4.81-10.71,10.71-10.71,10.72,4.8,10.72,10.71-4.81,10.71-10.72,10.71ZM269.7,296.58c-2.55,0-4.62,2.07-4.62,4.62s2.07,4.62,4.62,4.62,4.62-2.07,4.62-4.62-2.07-4.62-4.62-4.62Z"/>
          <path class="cls-1" d="M269.7,312.48c-6.23,0-11.29-5.06-11.29-11.29s5.07-11.29,11.29-11.29,11.29,5.06,11.29,11.29-5.07,11.29-11.29,11.29ZM269.7,291.06c-5.59,0-10.14,4.55-10.14,10.14s4.55,10.14,10.14,10.14,10.14-4.55,10.14-10.14-4.55-10.14-10.14-10.14ZM269.7,306.39c-2.86,0-5.19-2.33-5.19-5.19s2.33-5.2,5.19-5.2,5.19,2.33,5.19,5.2-2.33,5.19-5.19,5.19ZM269.7,297.15c-2.23,0-4.04,1.81-4.04,4.04s1.81,4.04,4.04,4.04,4.04-1.81,4.04-4.04-1.81-4.04-4.04-4.04Z"/>
        </g>
        <g>
          <path class="cls-1" d="M269.7,312.33c-6.14,0-11.14-5-11.14-11.14s5-11.14,11.14-11.14,11.14,5,11.14,11.14-5,11.14-11.14,11.14ZM269.7,290.91c-5.67,0-10.29,4.61-10.29,10.29s4.62,10.29,10.29,10.29,10.29-4.61,10.29-10.29-4.62-10.29-10.29-10.29ZM269.7,306.24c-2.78,0-5.04-2.26-5.04-5.04s2.26-5.04,5.04-5.04,5.04,2.26,5.04,5.04-2.26,5.04-5.04,5.04ZM269.7,297c-2.31,0-4.19,1.88-4.19,4.2s1.88,4.19,4.19,4.19,4.2-1.88,4.2-4.19-1.88-4.2-4.2-4.2Z"/>
          <path class="cls-1" d="M269.7,312.91c-6.46,0-11.71-5.25-11.71-11.71s5.25-11.71,11.71-11.71,11.72,5.25,11.72,11.71-5.26,11.71-11.72,11.71ZM269.7,291.48c-5.36,0-9.71,4.36-9.71,9.71s4.36,9.71,9.71,9.71,9.72-4.36,9.72-9.71-4.36-9.71-9.72-9.71ZM269.7,306.81c-3.1,0-5.62-2.52-5.62-5.62s2.52-5.62,5.62-5.62,5.62,2.52,5.62,5.62-2.52,5.62-5.62,5.62ZM269.7,297.58c-1.99,0-3.62,1.62-3.62,3.62s1.62,3.62,3.62,3.62,3.62-1.62,3.62-3.62-1.62-3.62-3.62-3.62Z"/>
        </g>
      </g>
      <g>
        <g>
          <path class="cls-1" d="M158.5,257.92c-8.52,0-15.45-6.93-15.45-15.45s6.93-15.45,15.45-15.45,15.45,6.93,15.45,15.45-6.93,15.45-15.45,15.45ZM158.5,233.11c-5.16,0-9.36,4.2-9.36,9.36s4.2,9.36,9.36,9.36,9.36-4.2,9.36-9.36-4.2-9.36-9.36-9.36Z"/>
          <path class="cls-1" d="M158.5,258.5c-8.84,0-16.03-7.19-16.03-16.02s7.19-16.03,16.03-16.03,16.03,7.19,16.03,16.03-7.19,16.02-16.03,16.02ZM158.5,227.59c-8.2,0-14.88,6.68-14.88,14.88s6.68,14.87,14.88,14.87,14.88-6.67,14.88-14.87-6.68-14.88-14.88-14.88ZM158.5,252.41c-5.48,0-9.93-4.46-9.93-9.93s4.46-9.94,9.93-9.94,9.93,4.46,9.93,9.94-4.46,9.93-9.93,9.93ZM158.5,233.69c-4.84,0-8.78,3.94-8.78,8.79s3.94,8.78,8.78,8.78,8.78-3.94,8.78-8.78-3.94-8.79-8.78-8.79Z"/>
        </g>
        <g>
          <path class="cls-1" d="M158.5,258.35c-8.76,0-15.88-7.12-15.88-15.87s7.12-15.88,15.88-15.88,15.88,7.12,15.88,15.88-7.12,15.87-15.88,15.87ZM158.5,227.44c-8.29,0-15.03,6.74-15.03,15.03s6.74,15.02,15.03,15.02,15.03-6.74,15.03-15.02-6.74-15.03-15.03-15.03ZM158.5,252.25c-5.39,0-9.78-4.39-9.78-9.78s4.39-9.79,9.78-9.79,9.78,4.39,9.78,9.79-4.39,9.78-9.78,9.78ZM158.5,233.54c-4.93,0-8.93,4.01-8.93,8.94s4.01,8.93,8.93,8.93,8.93-4.01,8.93-8.93-4.01-8.94-8.93-8.94Z"/>
          <path class="cls-1" d="M158.5,258.92c-9.07,0-16.46-7.38-16.46-16.45s7.38-16.45,16.46-16.45,16.45,7.38,16.45,16.45-7.38,16.45-16.45,16.45ZM158.5,228.02c-7.97,0-14.46,6.48-14.46,14.45s6.49,14.45,14.46,14.45,14.45-6.48,14.45-14.45-6.48-14.45-14.45-14.45ZM158.5,252.83c-5.71,0-10.36-4.65-10.36-10.36s4.65-10.36,10.36-10.36,10.36,4.65,10.36,10.36-4.65,10.36-10.36,10.36ZM158.5,234.11c-4.61,0-8.36,3.75-8.36,8.36s3.75,8.36,8.36,8.36,8.36-3.75,8.36-8.36-3.75-8.36-8.36-8.36Z"/>
        </g>
      </g>
    </g>
  </g>
</svg>