<?xml version="1.0" encoding="UTF-8"?>
<svg id="Layer_1" data-name="Layer 1" xmlns="http://www.w3.org/2000/svg" viewBox="0 0 400 340.19">
  <defs>
    <style>
      .cls-1 {
        fill: #d2b886;
      }
    </style>
  </defs>
  <path class="cls-1" d="M240.61,318.23c-7.94-72.31-37.87-139.4-75.71-186.09C112.89,62.55,50.66,34.12,15.05,17.87l-1.11-.5c-2.12-.97-4.62-.53-6.28,1.12-1.65,1.64-2.12,4.14-1.17,6.27,11.78,26.32,19.83,55.12,27.63,82.98,10.08,36.05,19.61,70.1,36.36,97.72,27.53,45.37,68.1,63.23,105.46,63.23,11.88,0,28.2-6.09,38.91-9.39,4.28,18.44,10.38,40.69,11.55,59.95M22.37,33.6c52.58,24.67,143.72,75.3,190.46,217.17-40.67,15.48-97.97,6.21-132.76-51.14-15.96-26.3-25.29-59.63-35.16-94.92-6.61-23.64-13.41-47.95-22.55-71.12Z"/>
  <path class="cls-1" d="M397.45,121.64c1.01-2.1.61-4.61-1-6.3-1.61-1.68-4.1-2.2-6.25-1.29l-.72.3c-34.17,14.5-105.27,44.67-141.86,150.04-.31.9-.31,1.81-.16,2.7-.93,2.89-1.81,5.81-2.63,8.76,2.81,12.42,5.04,24.92,6.55,37.4h.95c.91-13.18,3.1-26.16,6.26-38.73,7.68,2.58,16.04,4.03,24.67,4.03,24.34,0,50.7-11.36,69.3-40.24,11.53-17.91,18.36-40.02,25.6-63.43,5.53-17.92,11.26-36.45,19.31-53.24ZM343.11,232.24c-22.51,34.93-57.8,40.44-83.14,30.9,31.36-85.56,86.9-117.44,121.54-133.09-5.48,13.62-9.84,27.74-14.1,41.52-7,22.66-13.61,44.06-24.31,60.67Z"/>
  <path class="cls-1" d="M53.03,28.09c75.59,5.74,143.95,42.21,172.35,80.73h0c30.52,41.39,32.41,85.73,6.58,122.49,2.79,7.88,1.72,3.88,4.01,11.93,1.28-3.59,25.6-21.02,24.5-78.19,19.04-18.53,52.42-34.61,89.83-39.59,8.84-4.82,17.96-9.08,27.34-12.74-48.67-1.12-93.14,16.98-119.4,39.25-3.7-16.02-11.27-32.75-23.85-49.81C201.41,57.41,118.79,13.86,26.44,16.12c9.03,3.61,17.89,7.63,26.59,11.97Z"/>
</svg>