<?xml version="1.0" encoding="UTF-8"?>
<svg id="Layer_1" data-name="Layer 1" xmlns="http://www.w3.org/2000/svg" viewBox="0 0 400 400">
  <defs>
    <style>
      .cls-1 {
        fill: #345c9f;
      }
    </style>
  </defs>
  <g>
    <path class="cls-1" d="M275.19,211.61c0-12.32-7.19-23.71-18.32-29.02-1.84-.87-4.03-.1-4.91,1.74-.88,1.83-.1,4.03,1.74,4.91,8.58,4.09,14.13,12.88,14.13,22.38,0,13.66-11.11,24.78-24.78,24.78-2.03,0-3.68,1.65-3.68,3.68s1.65,3.68,3.68,3.68c3.28,0,6.44-.5,9.43-1.42.12.84.19,1.68.19,2.54,0,9-6.7,16.81-15.59,18.16-2.49.38-5.21.23-7.71-.46-1.96-.54-3.99.6-4.53,2.56-.54,1.96.6,3.99,2.56,4.53,2.24.62,4.56.94,6.91.94,1.31,0,2.62-.1,3.88-.29,12.45-1.89,21.85-12.83,21.85-25.44,0-1.91-.23-3.79-.64-5.63,9.44-5.6,15.8-15.87,15.8-27.63Z"/>
    <path class="cls-1" d="M225.1,276.07c-2.51,1.31-5.23,1.98-8.09,1.98-4.48,0-8.78-1.75-12.02-4.81v-143.44c2.19-3.1,5.78-5.01,9.6-5.01,5.5,0,10.15,3.84,11.41,8.97-.72.26-1.43.53-2.12.86-1.84.86-2.63,3.05-1.77,4.89.86,1.84,3.06,2.64,4.89,1.77,2.19-1.02,4.53-1.54,6.97-1.54,9.07,0,16.45,7.38,16.45,16.45,0,2.99-.81,5.91-2.33,8.45-1.05,1.74-.48,4,1.26,5.05.59.36,1.25.53,1.89.53,1.25,0,2.47-.64,3.16-1.79.2-.33.38-.67.56-1,2.68,2.84,4.41,6.47,4.85,10.44.21,1.88,1.8,3.27,3.65,3.27.14,0,.27,0,.41-.02,2.02-.22,3.48-2.04,3.25-4.06-.76-6.88-4.23-13.03-9.62-17.26.18-1.19.29-2.4.29-3.62,0-13.13-10.68-23.82-23.82-23.82-.24,0-.48.03-.72.04-1.9-8.56-9.57-14.99-18.66-14.99-4.99,0-9.76,1.99-13.28,5.39-3.53-3.4-8.29-5.39-13.28-5.39-4.58,0-9.01,1.64-12.47,4.63-1.54,1.33-1.71,3.65-.39,5.19,1.33,1.54,3.65,1.72,5.19.39,2.13-1.83,4.85-2.84,7.67-2.84,3.82,0,7.41,1.91,9.6,5.01v143.44c-3.24,3.07-7.54,4.82-12.02,4.82-5.94,0-11.26-2.93-14.44-7.62,1.37-.15,2.73-.4,4.06-.77,1.96-.54,3.1-2.57,2.56-4.53-.54-1.96-2.57-3.1-4.53-2.56-2.5.69-5.22.84-7.71.46-7.72-1.17-13.86-7.11-15.28-14.79-.37-2-2.3-3.33-4.29-2.95-2,.37-3.32,2.29-2.95,4.29,1.88,10.14,9.64,18.12,19.59,20.37,3.78,9.33,12.75,15.45,23,15.45,5.75,0,11.29-2.04,15.7-5.64,4.41,3.6,9.95,5.64,15.7,5.64,4,0,7.98-.97,11.5-2.81,1.8-.94,2.5-3.17,1.56-4.97-.94-1.8-3.17-2.5-4.97-1.56Z"/>
    <path class="cls-1" d="M135.33,179.91c0,3.1.55,6.09,1.61,8.93-5.96,5.95-9.51,14.13-9.51,22.78,0,17.72,14.42,32.14,32.14,32.14,2.03,0,3.68-1.65,3.68-3.68s-1.65-3.68-3.68-3.68c-13.66,0-24.78-11.11-24.78-24.78,0-9.5,5.54-18.28,14.12-22.38,1.84-.88,2.61-3.07,1.74-4.91-.87-1.84-3.07-2.61-4.91-1.74-.89.43-1.75.9-2.59,1.41-.3-1.33-.46-2.69-.46-4.09,0-4.73,1.8-9.16,4.95-12.49.18.34.36.68.56,1.02.69,1.15,1.91,1.79,3.16,1.79.64,0,1.3-.17,1.89-.53,1.74-1.05,2.31-3.31,1.26-5.05-1.53-2.54-2.33-5.47-2.33-8.45,0-9.07,7.38-16.45,16.45-16.45,2.44,0,4.78.52,6.97,1.54,1.84.86,4.03.07,4.9-1.77s.07-4.03-1.77-4.89c-3.17-1.49-6.57-2.24-10.09-2.24-13.13,0-23.82,10.68-23.82,23.82,0,1.22.1,2.44.29,3.64-6.16,4.83-9.78,12.15-9.78,20.08Z"/>
    <path class="cls-1" d="M242.61,158.54c-1.1-1.71-3.38-2.19-5.09-1.09-3.77,2.44-8.81,1.36-11.25-2.4-1.11-1.7-3.38-2.19-5.09-1.09-1.71,1.11-2.19,3.38-1.09,5.09,2.96,4.57,7.95,7.07,13.03,7.07,2.89,0,5.81-.8,8.4-2.49,1.71-1.11,2.19-3.38,1.09-5.09Z"/>
    <path class="cls-1" d="M235.09,211.81c1.43-3.88,1.26-8.09-.47-11.86-.85-1.85-3.04-2.65-4.89-1.8-1.85.85-2.65,3.04-1.8,4.89.91,1.98,1,4.19.25,6.22-.75,2.04-2.25,3.66-4.23,4.57-1.85.85-2.65,3.04-1.8,4.88.62,1.35,1.95,2.14,3.35,2.14.52,0,1.04-.11,1.54-.34,3.76-1.74,6.62-4.83,8.05-8.71Z"/>
    <path class="cls-1" d="M227.76,250.41c1.96-.53,3.12-2.55,2.6-4.51-.53-1.96-2.55-3.12-4.51-2.6-4,1.08-7.34,3.65-9.4,7.23-2.06,3.59-2.61,7.76-1.53,11.77.44,1.64,1.93,2.72,3.55,2.72.32,0,.64-.04.96-.13,1.96-.53,3.12-2.55,2.6-4.51-.57-2.1-.28-4.3.8-6.18,1.08-1.88,2.84-3.23,4.94-3.8Z"/>
    <path class="cls-1" d="M183.33,144.11c-7.96,0-14.43,6.47-14.43,14.43,0,2.03,1.65,3.68,3.68,3.68s3.68-1.65,3.68-3.68c0-3.9,3.17-7.07,7.07-7.07,2.03,0,3.68-1.65,3.68-3.68s-1.65-3.68-3.68-3.68Z"/>
    <path class="cls-1" d="M169.43,219.05c.17.02.34.04.51.04,1.81,0,3.38-1.33,3.64-3.17,1.1-7.88-4.42-15.19-12.3-16.29-2.02-.29-3.87,1.12-4.15,3.14-.28,2.01,1.12,3.87,3.14,4.15,3.86.54,6.56,4.12,6.03,7.98-.28,2.01,1.12,3.87,3.14,4.15Z"/>
    <path class="cls-1" d="M185.83,259.07c.17.02.34.04.51.04,1.81,0,3.38-1.33,3.64-3.17.53-3.82-.45-7.62-2.78-10.69-2.32-3.08-5.71-5.06-9.53-5.59-2.02-.28-3.87,1.13-4.15,3.14-.28,2.01,1.13,3.87,3.14,4.15,1.87.26,3.53,1.23,4.67,2.74s1.62,3.37,1.36,5.24c-.28,2.01,1.12,3.87,3.14,4.15Z"/>
    <path class="cls-1" d="M136.17,270.63l-18.93,10.64c-1.03.58-1.71,1.61-1.85,2.78-.14,1.17.29,2.33,1.16,3.13l5.76,5.32-15.04,6.88c-1.85.85-2.66,3.03-1.82,4.88.62,1.35,1.95,2.15,3.35,2.15.51,0,1.03-.11,1.53-.33l20.06-9.18c1.12-.51,1.91-1.55,2.1-2.77s-.23-2.45-1.14-3.28l-6.11-5.64,14.52-8.16c1.77-1,2.4-3.24,1.4-5.01-1-1.77-3.24-2.4-5.01-1.4Z"/>
    <path class="cls-1" d="M114.81,205.78c1.96.55,3.99-.59,4.54-2.55.55-1.96-.59-3.99-2.55-4.54l-20.91-5.86c-1.13-.32-2.35-.07-3.27.66s-1.44,1.86-1.4,3.03l.31,7.83-15.5-5.77c-1.91-.71-4.03.26-4.73,2.17-.71,1.91.26,4.03,2.17,4.73l20.68,7.7c.42.15.85.23,1.28.23.76,0,1.52-.24,2.16-.7,1-.72,1.57-1.9,1.52-3.13l-.33-8.3,16.04,4.49Z"/>
    <path class="cls-1" d="M116.07,123.53c.51,1.12,1.55,1.91,2.77,2.1,1.22.19,2.45-.23,3.28-1.14l5.64-6.11,8.16,14.52c.67,1.2,1.93,1.88,3.21,1.88.61,0,1.23-.15,1.8-.47,1.77-1,2.4-3.24,1.4-5.01l-10.64-18.93c-.58-1.03-1.61-1.71-2.78-1.85-1.17-.14-2.33.29-3.13,1.16l-5.32,5.76-6.88-15.04c-.85-1.85-3.03-2.66-4.88-1.82-1.85.85-2.66,3.03-1.82,4.88l9.18,20.06Z"/>
    <path class="cls-1" d="M295.35,299.38l-15.04-6.88,5.76-5.32c.87-.8,1.3-1.96,1.16-3.13-.14-1.17-.83-2.2-1.85-2.78l-18.93-10.64c-1.77-1-4.02-.37-5.01,1.4-1,1.77-.37,4.02,1.4,5.01l14.52,8.16-6.11,5.64c-.91.84-1.33,2.07-1.14,3.28s.98,2.25,2.1,2.77l20.06,9.18c.5.23,1.02.33,1.53.33,1.4,0,2.73-.8,3.35-2.15.85-1.85.03-4.03-1.82-4.88Z"/>
    <path class="cls-1" d="M331.32,200.75c-.71-1.9-2.82-2.87-4.73-2.17l-15.5,5.77.31-7.84c.05-1.18-.47-2.3-1.4-3.03-.92-.73-2.14-.97-3.27-.66l-20.91,5.86c-1.96.55-3.1,2.58-2.55,4.54.55,1.96,2.58,3.11,4.54,2.55l16.04-4.49-.33,8.3c-.05,1.23.52,2.4,1.52,3.13.64.46,1.39.7,2.16.7.43,0,.87-.08,1.28-.23l20.68-7.7c1.91-.71,2.88-2.83,2.17-4.73Z"/>
    <path class="cls-1" d="M261.68,134.32c.57.32,1.19.47,1.8.47,1.29,0,2.54-.68,3.21-1.88l8.16-14.52,5.64,6.11c.84.91,2.07,1.33,3.28,1.14,1.22-.19,2.25-.98,2.77-2.1l9.18-20.06c.85-1.85.03-4.03-1.82-4.88-1.85-.85-4.03-.03-4.88,1.82l-6.88,15.04-5.32-5.76c-.8-.86-1.96-1.3-3.13-1.16-1.17.14-2.2.83-2.78,1.85l-10.64,18.93c-1,1.77-.37,4.02,1.4,5.01Z"/>
  </g>
  <path class="cls-1" d="M200,386.47c-102.82,0-186.47-83.65-186.47-186.47S97.18,13.53,200,13.53s186.47,83.65,186.47,186.47-83.65,186.47-186.47,186.47ZM200,20.89C101.24,20.89,20.89,101.24,20.89,200s80.35,179.11,179.11,179.11,179.11-80.35,179.11-179.11S298.76,20.89,200,20.89Z"/>
</svg>