<?xml version="1.0" encoding="UTF-8"?>
<svg id="Layer_1" data-name="Layer 1" xmlns="http://www.w3.org/2000/svg" viewBox="0 0 400 400">
  <defs>
    <style>
      .cls-1 {
        fill: #fff;
      }

      .cls-2 {
        fill: #8b1ac6;
      }
    </style>
  </defs>
  <circle class="cls-2" cx="200" cy="200" r="189.47"/>
  <path class="cls-1" d="M284.85,112.88c3.12,0,5.66-2.54,5.66-5.66l-.04-34.32c-.01-.21-.03-.41-.06-.61-.03-.17-.08-.34-.12-.51-.05-.18-.1-.36-.16-.54-.07-.18-.15-.35-.24-.52-.08-.16-.16-.31-.25-.46-.11-.18-.24-.34-.37-.5l-.31-.38c-.14-.15-.3-.28-.46-.42-.2-.17-.29-.25-.38-.32-.12-.09-.25-.16-.38-.23l-.23-.13c-.11-.07-.23-.13-.35-.19-.12-.05-.24-.09-.36-.13l-.25-.09c-.14-.05-.28-.1-.43-.13-.11-.03-.22-.04-.34-.05-.36-.05-.57-.08-.78-.08l-.05-1.06h0l-.17,1.04h-33.9c-3.12,0-5.66,2.54-5.66,5.66s2.54,5.66,5.66,5.66h19.1L113.68,217.95c-1.58,1.41-2.25,3.56-1.73,5.61.52,2.05,2.12,3.63,4.18,4.12l42.2,10.04-49.11,87.35c-1.35,2.4-.78,5.41,1.35,7.15,2.06,1.69,5.27,1.64,7.28-.1l129.56-111.91c1.62-1.4,2.31-3.57,1.79-5.65-.52-2.08-2.14-3.67-4.23-4.15l-42.3-9.66,38.16-44.7c.98-1.15,1.46-2.61,1.34-4.12-.12-1.51-.82-2.88-1.97-3.86-1.15-.98-2.61-1.46-4.12-1.34-1.51.12-2.88.82-3.86,1.97l-44.22,51.81c-1.28,1.5-1.69,3.58-1.07,5.45.62,1.87,2.19,3.3,4.11,3.74l40.51,9.25-96.6,83.44,36.93-65.67c.87-1.54.96-3.42.25-5.04-.71-1.62-2.16-2.83-3.87-3.24l-38.93-9.26,149.87-133.33v21.37c0,3.12,2.54,5.66,5.66,5.66Z"/>
</svg>